<?xml version="1.0" standalone="no"?><!DOCTYPE svg PUBLIC "-//W3C//DTD SVG 1.1//EN" "http://www.w3.org/Graphics/SVG/1.1/DTD/svg11.dtd" ><svg version="1.1" xmlns="http://www.w3.org/2000/svg"><defs><font horiz-adv-x="0" id="font"><font-face ascent="800" bbox="-109 -243 1747 1046" cap-height="780" descent="-200" font-family="SEAS NVE Sans" font-stretch="normal" font-style="normal" font-weight="600" units-per-em="1000" x-height="530" /><missing-glyph d="M855 115V665L559 390ZM167 665V115L462 390ZM511 435 810 714H211ZM211 66H810L511 345ZM92 780H931V0H92Z" horiz-adv-x="1023" /><glyph d="M373 516 295 284H505L427 516L400 600ZM518 780 810 0H601L555 136H245L199 0H-10L282 780Z" glyph-name="A" horiz-adv-x="801" unicode="A" /><glyph d="M368 284H555L518 566ZM575 136H289L218 0H-5L445 780H1105V612H706L721 482H1047V315H748L765 168H1128V0H593Z" glyph-name="AE" horiz-adv-x="1184" unicode="&#198;" /><glyph d="M596 1030 485 822H306L400 1030ZM373 516 295 284H505L427 516L400 600ZM518 780 810 0H601L555 136H245L199 0H-10L282 780Z" glyph-name="Aacute" horiz-adv-x="801" unicode="&#193;" /><glyph d="M400 806Q341 806 300 821Q259 836 233.5 864.5Q208 893 197 934.5Q186 976 187 1030H327Q326 996 343.5 982Q361 968 400 968Q439 968 456.5 982Q474 996 473 1030H613Q614 976 603 934.5Q592 893 566.5 864.5Q541 836 500 821Q459 806 400 806ZM373 516 295 284H505L427 516L400 600ZM518 780 810 0H601L555 136H245L199 0H-10L282 780Z" glyph-name="Abreve" horiz-adv-x="801" unicode="&#258;" /><glyph d="M164 822 322 1030H478L636 822H453L400 881L347 822ZM373 516 295 284H505L427 516L400 600ZM518 780 810 0H601L555 136H245L199 0H-10L282 780Z" glyph-name="Acircumflex" horiz-adv-x="801" unicode="&#194;" /><glyph d="M635 919Q635 873 606.5 845.5Q578 818 525 818Q472 818 443.5 845.5Q415 873 415 919Q415 965 443.5 992.5Q472 1020 525 1020Q578 1020 606.5 992.5Q635 965 635 919ZM385 919Q385 873 356.5 845.5Q328 818 275 818Q222 818 193.5 845.5Q165 873 165 919Q165 965 193.5 992.5Q222 1020 275 1020Q328 1020 356.5 992.5Q385 965 385 919ZM373 516 295 284H505L427 516L400 600ZM518 780 810 0H601L555 136H245L199 0H-10L282 780Z" glyph-name="Adieresis" horiz-adv-x="801" unicode="&#196;" /><glyph d="M400 1030 494 822H315L204 1030ZM373 516 295 284H505L427 516L400 600ZM518 780 810 0H601L555 136H245L199 0H-10L282 780Z" glyph-name="Agrave" horiz-adv-x="801" unicode="&#192;" /><glyph d="M234 846V1010H566V846ZM373 516 295 284H505L427 516L400 600ZM518 780 810 0H601L555 136H245L199 0H-10L282 780Z" glyph-name="Amacron" horiz-adv-x="801" unicode="&#256;" /><glyph d="M373 516 295 284H505L427 516L400 600ZM518 780 810 0Q786 -2 766 -9.5Q746 -17 732.5 -27.5Q719 -38 712.5 -50Q706 -62 708 -73Q710 -82 718.5 -90Q727 -98 751 -93Q765 -90 776 -84Q781 -81 787 -77L821 -191Q805 -201 777.5 -208.5Q750 -216 716 -216Q662 -216 628.5 -195Q595 -174 583 -125Q575 -93 582 -66Q589 -39 606 -16L555 136H245L199 0H-10L282 780Z" glyph-name="Aogonek" horiz-adv-x="801" unicode="&#260;" /><glyph d="M373 516 295 284H505L427 516L400 600ZM518 780 810 0H601L555 136H245L199 0H-10L282 780ZM361 926Q361 909 372 899Q383 889 400 889Q418 889 429 899Q440 909 440 926Q440 943 429 953Q418 963 400 963Q383 963 372 953Q361 943 361 926ZM272 926Q272 977 306 1011.5Q340 1046 400 1046Q460 1046 494.5 1011.5Q529 977 529 926Q529 875 494.5 840.5Q460 806 400 806Q340 806 306 840.5Q272 875 272 926Z" glyph-name="Aring" horiz-adv-x="801" unicode="&#197;" /><glyph d="M481 806Q441 806 415 818Q389 830 370 844Q351 858 336.5 870Q322 882 305 882Q291 882 284 874.5Q277 867 273 858Q269 847 268 835L144 850Q148 886 159 921Q170 956 191 984Q212 1012 243.5 1029Q275 1046 319 1046Q359 1046 385 1034Q411 1022 430 1008Q449 994 463.5 982Q478 970 495 970Q508 970 515.5 977Q523 984 527 993Q531 1004 532 1017L656 1002Q652 966 641 931Q630 896 609 868Q588 840 556.5 823Q525 806 481 806ZM373 516 295 284H505L427 516L400 600ZM518 780 810 0H601L555 136H245L199 0H-10L282 780Z" glyph-name="Atilde" horiz-adv-x="801" unicode="&#195;" /><glyph d="M262 612V482H433Q468 482 488.5 495Q509 508 509 549Q509 588 488.5 600Q468 612 433 612ZM441 168Q454 168 470.5 170Q487 172 501.5 179Q516 186 525.5 200Q535 214 535 239Q535 264 526.5 279.5Q518 295 505 302.5Q492 310 476 312.5Q460 315 444 315H262V168ZM68 0V780H442Q484 780 531 771.5Q578 763 617 739Q656 715 681.5 671Q707 627 707 557Q707 509 689 471.5Q671 434 629 411Q684 389 708 342.5Q732 296 732 236Q732 162 708.5 116Q685 70 646 44Q607 18 555.5 9Q504 0 448 0Z" glyph-name="B" horiz-adv-x="772" unicode="B" /><glyph d="M245 390Q245 335 255.5 291Q266 247 288.5 216Q311 185 346 168.5Q381 152 431 152Q468 152 493.5 162Q519 172 537 188.5Q555 205 566.5 226.5Q578 248 589 271L750 189Q734 147 709 110Q684 73 646.5 45Q609 17 556.5 0.5Q504 -16 432 -16Q334 -16 262 13Q190 42 142.5 95.5Q95 149 71.5 223.5Q48 298 48 390Q48 481 71.5 556Q95 631 142.5 684.5Q190 738 262 767Q334 796 432 796Q504 796 556.5 779.5Q609 763 646.5 735Q684 707 709 670Q734 633 750 591L589 509Q578 532 566.5 553.5Q555 575 537 591.5Q519 608 493.5 618Q468 628 431 628Q381 628 346 611.5Q311 595 288.5 564Q266 533 255.5 489Q245 445 245 390Z" glyph-name="C" horiz-adv-x="785" unicode="C" /><glyph d="M615 1030 504 822H325L419 1030ZM245 390Q245 335 255.5 291Q266 247 288.5 216Q311 185 346 168.5Q381 152 431 152Q468 152 493.5 162Q519 172 537 188.5Q555 205 566.5 226.5Q578 248 589 271L750 189Q734 147 709 110Q684 73 646.5 45Q609 17 556.5 0.5Q504 -16 432 -16Q334 -16 262 13Q190 42 142.5 95.5Q95 149 71.5 223.5Q48 298 48 390Q48 481 71.5 556Q95 631 142.5 684.5Q190 738 262 767Q334 796 432 796Q504 796 556.5 779.5Q609 763 646.5 735Q684 707 709 670Q734 633 750 591L589 509Q578 532 566.5 553.5Q555 575 537 591.5Q519 608 493.5 618Q468 628 431 628Q381 628 346 611.5Q311 595 288.5 564Q266 533 255.5 489Q245 445 245 390Z" glyph-name="Cacute" horiz-adv-x="785" unicode="&#262;" /><glyph d="M655 1030 497 822H341L183 1030H366L419 971L472 1030ZM245 390Q245 335 255.5 291Q266 247 288.5 216Q311 185 346 168.5Q381 152 431 152Q468 152 493.5 162Q519 172 537 188.5Q555 205 566.5 226.5Q578 248 589 271L750 189Q734 147 709 110Q684 73 646.5 45Q609 17 556.5 0.5Q504 -16 432 -16Q334 -16 262 13Q190 42 142.5 95.5Q95 149 71.5 223.5Q48 298 48 390Q48 481 71.5 556Q95 631 142.5 684.5Q190 738 262 767Q334 796 432 796Q504 796 556.5 779.5Q609 763 646.5 735Q684 707 709 670Q734 633 750 591L589 509Q578 532 566.5 553.5Q555 575 537 591.5Q519 608 493.5 618Q468 628 431 628Q381 628 346 611.5Q311 595 288.5 564Q266 533 255.5 489Q245 445 245 390Z" glyph-name="Ccaron" horiz-adv-x="785" unicode="&#268;" /><glyph d="M245 390Q245 335 255.5 291Q266 247 288.5 216Q311 185 346 168.5Q381 152 431 152Q468 152 493.5 162Q519 172 537 188.5Q555 205 566.5 226.5Q578 248 589 271L750 189Q735 149 711.5 113.5Q688 78 653.5 50.5Q619 23 571.5 5.5Q524 -12 459 -15L455 -33Q506 -44 535.5 -67Q565 -90 560 -132Q557 -154 545.5 -170Q534 -186 516 -196Q498 -206 475 -211Q452 -216 427 -216Q374 -216 342 -207Q310 -198 298 -193L323 -117Q330 -120 338 -124Q354 -131 373 -134Q393 -137 407 -133Q421 -129 421 -113Q421 -99 400 -89Q379 -79 343 -75L364 -12Q284 -2 224.5 30.5Q165 63 126 115.5Q87 168 67.5 237.5Q48 307 48 390Q48 481 71.5 556Q95 631 142.5 684.5Q190 738 262 767Q334 796 432 796Q504 796 556.5 779.5Q609 763 646.5 735Q684 707 709 670Q734 633 750 591L589 509Q578 532 566.5 553.5Q555 575 537 591.5Q519 608 493.5 618Q468 628 431 628Q381 628 346 611.5Q311 595 288.5 564Q266 533 255.5 489Q245 445 245 390Z" glyph-name="Ccedilla" horiz-adv-x="785" unicode="&#199;" /><glyph d="M183 822 341 1030H497L655 822H472L419 881L366 822ZM245 390Q245 335 255.5 291Q266 247 288.5 216Q311 185 346 168.5Q381 152 431 152Q468 152 493.5 162Q519 172 537 188.5Q555 205 566.5 226.5Q578 248 589 271L750 189Q734 147 709 110Q684 73 646.5 45Q609 17 556.5 0.5Q504 -16 432 -16Q334 -16 262 13Q190 42 142.5 95.5Q95 149 71.5 223.5Q48 298 48 390Q48 481 71.5 556Q95 631 142.5 684.5Q190 738 262 767Q334 796 432 796Q504 796 556.5 779.5Q609 763 646.5 735Q684 707 709 670Q734 633 750 591L589 509Q578 532 566.5 553.5Q555 575 537 591.5Q519 608 493.5 618Q468 628 431 628Q381 628 346 611.5Q311 595 288.5 564Q266 533 255.5 489Q245 445 245 390Z" glyph-name="Ccircumflex" horiz-adv-x="785" unicode="&#264;" /><glyph d="M529 919Q529 873 500.5 845.5Q472 818 419 818Q366 818 337.5 845.5Q309 873 309 919Q309 965 337.5 992.5Q366 1020 419 1020Q472 1020 500.5 992.5Q529 965 529 919ZM245 390Q245 335 255.5 291Q266 247 288.5 216Q311 185 346 168.5Q381 152 431 152Q468 152 493.5 162Q519 172 537 188.5Q555 205 566.5 226.5Q578 248 589 271L750 189Q734 147 709 110Q684 73 646.5 45Q609 17 556.5 0.5Q504 -16 432 -16Q334 -16 262 13Q190 42 142.5 95.5Q95 149 71.5 223.5Q48 298 48 390Q48 481 71.5 556Q95 631 142.5 684.5Q190 738 262 767Q334 796 432 796Q504 796 556.5 779.5Q609 763 646.5 735Q684 707 709 670Q734 633 750 591L589 509Q578 532 566.5 553.5Q555 575 537 591.5Q519 608 493.5 618Q468 628 431 628Q381 628 346 611.5Q311 595 288.5 564Q266 533 255.5 489Q245 445 245 390Z" glyph-name="Cdotaccent" horiz-adv-x="785" unicode="&#266;" /><glyph d="M376 168Q432 168 470 183.5Q508 199 531.5 228Q555 257 565 298Q575 339 575 390Q575 441 565 482Q555 523 531.5 552Q508 581 470 596.5Q432 612 376 612H262V168ZM68 0V780H372Q567 780 669 686Q771 592 771 390Q771 188 669 94Q567 0 372 0Z" glyph-name="D" horiz-adv-x="822" unicode="D" /><glyph d="M615 1030 457 822H301L143 1030H326L379 971L432 1030ZM376 168Q432 168 470 183.5Q508 199 531.5 228Q555 257 565 298Q575 339 575 390Q575 441 565 482Q555 523 531.5 552Q508 581 470 596.5Q432 612 376 612H262V168ZM68 0V780H372Q567 780 669 686Q771 592 771 390Q771 188 669 94Q567 0 372 0Z" glyph-name="Dcaron" horiz-adv-x="822" unicode="&#270;" /><glyph d="M416 168Q472 168 510 183.5Q548 199 571.5 228Q595 257 605 298Q615 339 615 390Q615 441 605 482Q595 523 571.5 552Q548 581 510 596.5Q472 612 416 612H302V462H486V338H302V168ZM108 0V338H13V462H108V780H412Q607 780 709 686Q811 592 811 390Q811 188 709 94Q607 0 412 0Z" glyph-name="Dcroat" horiz-adv-x="862" unicode="&#272;" /><glyph d="M409 423 279 168 380 169H532L632 168L502 423L456 520ZM49 67 410 777H502L863 67V0H49Z" glyph-name="Delta" horiz-adv-x="911" unicode="&#8710;" /><glyph d="M684 780V612H262V482H629V315H262V168H702V0H68V780Z" glyph-name="E" horiz-adv-x="760" unicode="E" /><glyph d="M581 1030 470 822H291L385 1030ZM684 780V612H262V482H629V315H262V168H702V0H68V780Z" glyph-name="Eacute" horiz-adv-x="760" unicode="&#201;" /><glyph d="M385 806Q326 806 285 821Q244 836 218.5 864.5Q193 893 182 934.5Q171 976 172 1030H312Q311 996 328.5 982Q346 968 385 968Q424 968 441.5 982Q459 996 458 1030H598Q599 976 588 934.5Q577 893 551.5 864.5Q526 836 485 821Q444 806 385 806ZM684 780V612H262V482H629V315H262V168H702V0H68V780Z" glyph-name="Ebreve" horiz-adv-x="760" unicode="&#276;" /><glyph d="M621 1030 463 822H307L149 1030H332L385 971L438 1030ZM684 780V612H262V482H629V315H262V168H702V0H68V780Z" glyph-name="Ecaron" horiz-adv-x="760" unicode="&#282;" /><glyph d="M149 822 307 1030H463L621 822H438L385 881L332 822ZM684 780V612H262V482H629V315H262V168H702V0H68V780Z" glyph-name="Ecircumflex" horiz-adv-x="760" unicode="&#202;" /><glyph d="M620 919Q620 873 591.5 845.5Q563 818 510 818Q457 818 428.5 845.5Q400 873 400 919Q400 965 428.5 992.5Q457 1020 510 1020Q563 1020 591.5 992.5Q620 965 620 919ZM370 919Q370 873 341.5 845.5Q313 818 260 818Q207 818 178.5 845.5Q150 873 150 919Q150 965 178.5 992.5Q207 1020 260 1020Q313 1020 341.5 992.5Q370 965 370 919ZM684 780V612H262V482H629V315H262V168H702V0H68V780Z" glyph-name="Edieresis" horiz-adv-x="760" unicode="&#203;" /><glyph d="M495 919Q495 873 466.5 845.5Q438 818 385 818Q332 818 303.5 845.5Q275 873 275 919Q275 965 303.5 992.5Q332 1020 385 1020Q438 1020 466.5 992.5Q495 965 495 919ZM684 780V612H262V482H629V315H262V168H702V0H68V780Z" glyph-name="Edotaccent" horiz-adv-x="760" unicode="&#278;" /><glyph d="M385 1030 479 822H300L189 1030ZM684 780V612H262V482H629V315H262V168H702V0H68V780Z" glyph-name="Egrave" horiz-adv-x="760" unicode="&#200;" /><glyph d="M219 846V1010H551V846ZM684 780V612H262V482H629V315H262V168H702V0H68V780Z" glyph-name="Emacron" horiz-adv-x="760" unicode="&#274;" /><glyph d="M754 -2Q754 -42 745 -80.5Q736 -119 711.5 -149Q687 -179 642.5 -197.5Q598 -216 527 -216Q482 -216 449 -207.5Q416 -199 397 -188L414 -29Q431 -38 452 -45Q473 -52 500 -52Q534 -52 549 -37Q564 -22 564 9V14L334 336L262 443V0H68V780H248L488 444L560 337V780H754Z" glyph-name="Eng" horiz-adv-x="823" unicode="&#330;" /><glyph d="M684 780V612H262V482H629V315H262V168H702V0Q678 -2 658 -9.5Q638 -17 624.5 -27.5Q611 -38 604.5 -50Q598 -62 600 -73Q602 -82 610.5 -90Q619 -98 643 -93Q657 -90 668 -84Q673 -81 679 -77L713 -191Q697 -201 669.5 -208.5Q642 -216 608 -216Q554 -216 520.5 -195Q487 -174 475 -125Q465 -87 477 -56Q489 -25 513 0H68V780Z" glyph-name="Eogonek" horiz-adv-x="760" unicode="&#280;" /><glyph d="M416 168Q472 168 510 183.5Q548 199 571.5 228Q595 257 605 298Q615 339 615 390Q615 441 605 482Q595 523 571.5 552Q548 581 510 596.5Q472 612 416 612H302V462H486V338H302V168ZM108 0V338H13V462H108V780H412Q607 780 709 686Q811 592 811 390Q811 188 709 94Q607 0 412 0Z" glyph-name="Eth" horiz-adv-x="862" unicode="&#208;" /><glyph d="M20 253V369H110V395H20V511H125Q138 573 167 623Q196 673 240 708Q284 743 343 761.5Q402 780 476 780Q610 780 690 726.5Q770 673 801 586L629 502Q621 522 610 542Q599 562 581 578Q563 594 536.5 604Q510 614 471 614Q415 614 377.5 585Q340 556 326 511H586L544 395H311Q312 402 310 398Q308 394 308 382Q308 371 310 366.5Q312 362 311 369H537L493 253H326Q340 208 377.5 179Q415 150 471 150Q510 150 536.5 160Q563 170 581 186Q599 202 610 222Q621 242 629 262L801 178Q770 91 690 37.5Q610 -16 476 -16Q328 -16 240 56Q152 128 125 253Z" glyph-name="Euro" horiz-adv-x="843" unicode="&#8364;" /><glyph d="M262 0H68V780H661V612H262V482H605V315H262Z" glyph-name="F" horiz-adv-x="691" unicode="F" /><glyph d="M608 511Q588 568 551 598Q514 628 454 628Q398 628 358.5 608Q319 588 293.5 555Q268 522 256.5 479Q245 436 245 390Q245 343 256.5 300Q268 257 292 224Q316 191 353 171.5Q390 152 441 152Q500 152 531.5 159.5Q563 167 581 178V293H416V452H774V66Q718 27 633.5 5.5Q549 -16 446 -16Q348 -16 273.5 13Q199 42 149 95.5Q99 149 73.5 223.5Q48 298 48 390Q48 481 73.5 555.5Q99 630 148.5 683.5Q198 737 272 766.5Q346 796 442 796Q515 796 570.5 780.5Q626 765 665.5 737.5Q705 710 730.5 672.5Q756 635 770 591Z" glyph-name="G" horiz-adv-x="848" unicode="G" /><glyph d="M431 806Q372 806 331 821Q290 836 264.5 864.5Q239 893 228 934.5Q217 976 218 1030H358Q357 996 374.5 982Q392 968 431 968Q470 968 487.5 982Q505 996 504 1030H644Q645 976 634 934.5Q623 893 597.5 864.5Q572 836 531 821Q490 806 431 806ZM608 511Q588 568 551 598Q514 628 454 628Q398 628 358.5 608Q319 588 293.5 555Q268 522 256.5 479Q245 436 245 390Q245 343 256.5 300Q268 257 292 224Q316 191 353 171.5Q390 152 441 152Q500 152 531.5 159.5Q563 167 581 178V293H416V452H774V66Q718 27 633.5 5.5Q549 -16 446 -16Q348 -16 273.5 13Q199 42 149 95.5Q99 149 73.5 223.5Q48 298 48 390Q48 481 73.5 555.5Q99 630 148.5 683.5Q198 737 272 766.5Q346 796 442 796Q515 796 570.5 780.5Q626 765 665.5 737.5Q705 710 730.5 672.5Q756 635 770 591Z" glyph-name="Gbreve" horiz-adv-x="848" unicode="&#286;" /><glyph d="M195 822 353 1030H509L667 822H484L431 881L378 822ZM608 511Q588 568 551 598Q514 628 454 628Q398 628 358.5 608Q319 588 293.5 555Q268 522 256.5 479Q245 436 245 390Q245 343 256.5 300Q268 257 292 224Q316 191 353 171.5Q390 152 441 152Q500 152 531.5 159.5Q563 167 581 178V293H416V452H774V66Q718 27 633.5 5.5Q549 -16 446 -16Q348 -16 273.5 13Q199 42 149 95.5Q99 149 73.5 223.5Q48 298 48 390Q48 481 73.5 555.5Q99 630 148.5 683.5Q198 737 272 766.5Q346 796 442 796Q515 796 570.5 780.5Q626 765 665.5 737.5Q705 710 730.5 672.5Q756 635 770 591Z" glyph-name="Gcircumflex" horiz-adv-x="848" unicode="&#284;" /><glyph d="M545 -62 510 -200H343L354 -62ZM608 511Q588 568 551 598Q514 628 454 628Q398 628 358.5 608Q319 588 293.5 555Q268 522 256.5 479Q245 436 245 390Q245 343 256.5 300Q268 257 292 224Q316 191 353 171.5Q390 152 441 152Q500 152 531.5 159.5Q563 167 581 178V293H416V452H774V66Q718 27 633.5 5.5Q549 -16 446 -16Q348 -16 273.5 13Q199 42 149 95.5Q99 149 73.5 223.5Q48 298 48 390Q48 481 73.5 555.5Q99 630 148.5 683.5Q198 737 272 766.5Q346 796 442 796Q515 796 570.5 780.5Q626 765 665.5 737.5Q705 710 730.5 672.5Q756 635 770 591Z" glyph-name="Gcommaaccent" horiz-adv-x="848" unicode="&#290;" /><glyph d="M541 919Q541 873 512.5 845.5Q484 818 431 818Q378 818 349.5 845.5Q321 873 321 919Q321 965 349.5 992.5Q378 1020 431 1020Q484 1020 512.5 992.5Q541 965 541 919ZM608 511Q588 568 551 598Q514 628 454 628Q398 628 358.5 608Q319 588 293.5 555Q268 522 256.5 479Q245 436 245 390Q245 343 256.5 300Q268 257 292 224Q316 191 353 171.5Q390 152 441 152Q500 152 531.5 159.5Q563 167 581 178V293H416V452H774V66Q718 27 633.5 5.5Q549 -16 446 -16Q348 -16 273.5 13Q199 42 149 95.5Q99 149 73.5 223.5Q48 298 48 390Q48 481 73.5 555.5Q99 630 148.5 683.5Q198 737 272 766.5Q346 796 442 796Q515 796 570.5 780.5Q626 765 665.5 737.5Q705 710 730.5 672.5Q756 635 770 591Z" glyph-name="Gdotaccent" horiz-adv-x="848" unicode="&#288;" /><glyph d="M746 780V0H552V315H262V0H68V780H262V482H552V780Z" glyph-name="H" horiz-adv-x="813" unicode="H" /><glyph d="M552 482V569H262V482ZM746 780V0H552V315H262V0H68V780H262V693H552V780Z" glyph-name="Hbar" horiz-adv-x="813" unicode="&#294;" /><glyph d="M171 822 329 1030H485L643 822H460L407 881L354 822ZM746 780V0H552V315H262V0H68V780H262V482H552V780Z" glyph-name="Hcircumflex" horiz-adv-x="813" unicode="&#292;" /><glyph d="M273 0H79V780H273Z" glyph-name="I" horiz-adv-x="354" unicode="I" /><glyph d="M668 203Q668 162 659 122.5Q650 83 624.5 52.5Q599 22 553.5 3Q508 -16 436 -16Q390 -16 356.5 -7Q323 2 303 13L320 175Q337 165 359 157.5Q381 150 408 150Q443 150 458.5 166Q474 182 474 214V780H668ZM273 0H79V780H273Z" glyph-name="IJ" horiz-adv-x="730" unicode="&#306;" /><glyph d="M376 1030 265 822H86L180 1030ZM273 0H79V780H273Z" glyph-name="Iacute" horiz-adv-x="354" unicode="&#205;" /><glyph d="M176 806Q117 806 76 821Q35 836 9.5 864.5Q-16 893 -27 934.5Q-38 976 -37 1030H103Q102 996 119.5 982Q137 968 176 968Q215 968 232.5 982Q250 996 249 1030H389Q390 976 379 934.5Q368 893 342.5 864.5Q317 836 276 821Q235 806 176 806ZM273 0H79V780H273Z" glyph-name="Ibreve" horiz-adv-x="354" unicode="&#300;" /><glyph d="M-60 822 98 1030H254L412 822H229L176 881L123 822ZM273 0H79V780H273Z" glyph-name="Icircumflex" horiz-adv-x="354" unicode="&#206;" /><glyph d="M411 919Q411 873 382.5 845.5Q354 818 301 818Q248 818 219.5 845.5Q191 873 191 919Q191 965 219.5 992.5Q248 1020 301 1020Q354 1020 382.5 992.5Q411 965 411 919ZM161 919Q161 873 132.5 845.5Q104 818 51 818Q-2 818 -30.5 845.5Q-59 873 -59 919Q-59 965 -30.5 992.5Q-2 1020 51 1020Q104 1020 132.5 992.5Q161 965 161 919ZM273 0H79V780H273Z" glyph-name="Idieresis" horiz-adv-x="354" unicode="&#207;" /><glyph d="M286 919Q286 873 257.5 845.5Q229 818 176 818Q123 818 94.5 845.5Q66 873 66 919Q66 965 94.5 992.5Q123 1020 176 1020Q229 1020 257.5 992.5Q286 965 286 919ZM273 0H79V780H273Z" glyph-name="Idotaccent" horiz-adv-x="354" unicode="&#304;" /><glyph d="M171 1030 265 822H86L-25 1030ZM273 0H79V780H273Z" glyph-name="Igrave" horiz-adv-x="354" unicode="&#204;" /><glyph d="M10 846V1010H342V846ZM273 0H79V780H273Z" glyph-name="Imacron" horiz-adv-x="354" unicode="&#298;" /><glyph d="M273 0Q249 -2 229 -9.5Q209 -17 195.5 -27.5Q182 -38 175.5 -50Q169 -62 171 -73Q173 -82 181.5 -90Q190 -98 214 -93Q228 -90 239 -84Q244 -81 250 -77L284 -191Q268 -201 240.5 -208.5Q213 -216 179 -216Q125 -216 91.5 -195Q58 -174 46 -125Q37 -90 47 -59.5Q57 -29 79 -5V780H273Z" glyph-name="Iogonek" horiz-adv-x="354" unicode="&#302;" /><glyph d="M257 806Q217 806 191 818Q165 830 146 844Q127 858 112.5 870Q98 882 81 882Q67 882 60 874.5Q53 867 49 858Q45 847 44 835L-80 850Q-76 886 -65 921Q-54 956 -33 984Q-12 1012 19.5 1029Q51 1046 95 1046Q135 1046 161 1034Q187 1022 206 1008Q225 994 239.5 982Q254 970 271 970Q284 970 291.5 977Q299 984 303 993Q307 1004 308 1017L432 1002Q428 966 417 931Q406 896 385 868Q364 840 332.5 823Q301 806 257 806ZM273 0H79V780H273Z" glyph-name="Itilde" horiz-adv-x="354" unicode="&#296;" /><glyph d="M180 239Q192 197 216.5 173.5Q241 150 279 150Q319 150 340 169.5Q361 189 361 224V780H555V230Q555 176 540.5 131Q526 86 494 53.5Q462 21 409.5 2.5Q357 -16 281 -16Q215 -16 170 0Q125 16 95 41.5Q65 67 47.5 98.5Q30 130 21 161Z" glyph-name="J" horiz-adv-x="617" unicode="J" /><glyph d="M222 822 380 1030H536L694 822H511L458 881L405 822ZM180 239Q192 197 216.5 173.5Q241 150 279 150Q319 150 340 169.5Q361 189 361 224V780H555V230Q555 176 540.5 131Q526 86 494 53.5Q462 21 409.5 2.5Q357 -16 281 -16Q215 -16 170 0Q125 16 95 41.5Q65 67 47.5 98.5Q30 130 21 161Z" glyph-name="Jcircumflex" horiz-adv-x="617" unicode="&#308;" /><glyph d="M503 397 814 0H563L336 315H262V0H68V780H262V482H337L551 780H802Z" glyph-name="K" horiz-adv-x="817" unicode="K" /><glyph d="M499 -62 464 -200H297L308 -62ZM503 397 814 0H563L336 315H262V0H68V780H262V482H337L551 780H802Z" glyph-name="Kcommaaccent" horiz-adv-x="817" unicode="&#310;" /><glyph d="M262 168H635V0H68V780H262Z" glyph-name="L" horiz-adv-x="654" unicode="L" /><glyph d="M262 168H635V0H68V780H262ZM366 1030 255 822H76L170 1030Z" glyph-name="Lacute" horiz-adv-x="654" unicode="&#313;" /><glyph d="M593 800 530 592H375L402 800ZM262 168H635V0H68V780H262Z" glyph-name="Lcaron" horiz-adv-x="654" unicode="&#317;" /><glyph d="M443 -62 408 -200H241L252 -62ZM262 168H635V0H68V780H262Z" glyph-name="Lcommaaccent" horiz-adv-x="654" unicode="&#315;" /><glyph d="M384 399Q384 422 393 442.5Q402 463 417 478.5Q432 494 452.5 503Q473 512 497 512Q521 512 541.5 503Q562 494 577.5 478.5Q593 463 602 442.5Q611 422 611 399Q611 375 602 354.5Q593 334 577.5 318.5Q562 303 541.5 294Q521 285 497 285Q473 285 452.5 294Q432 303 417 318.5Q402 334 393 354.5Q384 375 384 399ZM262 168H635V0H68V780H262Z" glyph-name="Ldot" horiz-adv-x="654" unicode="&#319;" /><glyph d="M520 413 292 311V168H665V0H98V224L7 183V327L98 368V780H292V455L520 557Z" glyph-name="Lslash" horiz-adv-x="684" unicode="&#321;" /><glyph d="M296 335 259 448 258 303V0H68V780H307L437 408L479 285L523 408L654 780H892V0H701V444L663 335L551 0H409Z" glyph-name="M" horiz-adv-x="960" unicode="M" /><glyph d="M334 336 262 443V0H68V780H248L488 444L560 337V780H754V0H574Z" glyph-name="N" horiz-adv-x="823" unicode="N" /><glyph d="M607 1030 496 822H317L411 1030ZM334 336 262 443V0H68V780H248L488 444L560 337V780H754V0H574Z" glyph-name="Nacute" horiz-adv-x="823" unicode="&#323;" /><glyph d="M647 1030 489 822H333L175 1030H358L411 971L464 1030ZM334 336 262 443V0H68V780H248L488 444L560 337V780H754V0H574Z" glyph-name="Ncaron" horiz-adv-x="823" unicode="&#327;" /><glyph d="M512 -62 477 -200H310L321 -62ZM334 336 262 443V0H68V780H248L488 444L560 337V780H754V0H574Z" glyph-name="Ncommaaccent" horiz-adv-x="823" unicode="&#325;" /><glyph d="M492 806Q452 806 426 818Q400 830 381 844Q362 858 347.5 870Q333 882 316 882Q302 882 295 874.5Q288 867 284 858Q280 847 279 835L155 850Q159 886 170 921Q181 956 202 984Q223 1012 254.5 1029Q286 1046 330 1046Q370 1046 396 1034Q422 1022 441 1008Q460 994 474.5 982Q489 970 506 970Q519 970 526.5 977Q534 984 538 993Q542 1004 543 1017L667 1002Q663 966 652 931Q641 896 620 868Q599 840 567.5 823Q536 806 492 806ZM334 336 262 443V0H68V780H248L488 444L560 337V780H754V0H574Z" glyph-name="Ntilde" horiz-adv-x="823" unicode="&#209;" /><glyph d="M243 390Q243 342 251 298.5Q259 255 280.5 222.5Q302 190 340 171Q378 152 437 152Q496 152 534 171Q572 190 593.5 222.5Q615 255 623 298.5Q631 342 631 390Q631 438 623 481.5Q615 525 593.5 557.5Q572 590 534 609Q496 628 437 628Q378 628 340 609Q302 590 280.5 557.5Q259 525 251 481.5Q243 438 243 390ZM826 390Q826 297 804 222Q782 147 735 94Q688 41 614.5 12.5Q541 -16 437 -16Q333 -16 259.5 12.5Q186 41 139 94Q92 147 70 222Q48 297 48 390Q48 483 70 558Q92 633 139 686Q186 739 259.5 767.5Q333 796 437 796Q541 796 614.5 767.5Q688 739 735 686Q782 633 804 558Q826 483 826 390Z" glyph-name="O" horiz-adv-x="874" unicode="O" /><glyph d="M1136 780V612H734V482H1081V315H734V168H1154V0H450Q255 0 153 94Q51 188 51 390Q51 592 153 686Q255 780 450 780ZM446 612Q390 612 352 596.5Q314 581 290.5 552Q267 523 257 482Q247 441 247 390Q247 339 257 298Q267 257 290.5 228Q314 199 352 183.5Q390 168 446 168H540V612Z" glyph-name="OE" horiz-adv-x="1212" unicode="&#338;" /><glyph d="M633 1030 522 822H343L437 1030ZM243 390Q243 342 251 298.5Q259 255 280.5 222.5Q302 190 340 171Q378 152 437 152Q496 152 534 171Q572 190 593.5 222.5Q615 255 623 298.5Q631 342 631 390Q631 438 623 481.5Q615 525 593.5 557.5Q572 590 534 609Q496 628 437 628Q378 628 340 609Q302 590 280.5 557.5Q259 525 251 481.5Q243 438 243 390ZM826 390Q826 297 804 222Q782 147 735 94Q688 41 614.5 12.5Q541 -16 437 -16Q333 -16 259.5 12.5Q186 41 139 94Q92 147 70 222Q48 297 48 390Q48 483 70 558Q92 633 139 686Q186 739 259.5 767.5Q333 796 437 796Q541 796 614.5 767.5Q688 739 735 686Q782 633 804 558Q826 483 826 390Z" glyph-name="Oacute" horiz-adv-x="874" unicode="&#211;" /><glyph d="M437 806Q378 806 337 821Q296 836 270.5 864.5Q245 893 234 934.5Q223 976 224 1030H364Q363 996 380.5 982Q398 968 437 968Q476 968 493.5 982Q511 996 510 1030H650Q651 976 640 934.5Q629 893 603.5 864.5Q578 836 537 821Q496 806 437 806ZM243 390Q243 342 251 298.5Q259 255 280.5 222.5Q302 190 340 171Q378 152 437 152Q496 152 534 171Q572 190 593.5 222.5Q615 255 623 298.5Q631 342 631 390Q631 438 623 481.5Q615 525 593.5 557.5Q572 590 534 609Q496 628 437 628Q378 628 340 609Q302 590 280.5 557.5Q259 525 251 481.5Q243 438 243 390ZM826 390Q826 297 804 222Q782 147 735 94Q688 41 614.5 12.5Q541 -16 437 -16Q333 -16 259.5 12.5Q186 41 139 94Q92 147 70 222Q48 297 48 390Q48 483 70 558Q92 633 139 686Q186 739 259.5 767.5Q333 796 437 796Q541 796 614.5 767.5Q688 739 735 686Q782 633 804 558Q826 483 826 390Z" glyph-name="Obreve" horiz-adv-x="874" unicode="&#334;" /><glyph d="M201 822 359 1030H515L673 822H490L437 881L384 822ZM243 390Q243 342 251 298.5Q259 255 280.5 222.5Q302 190 340 171Q378 152 437 152Q496 152 534 171Q572 190 593.5 222.5Q615 255 623 298.5Q631 342 631 390Q631 438 623 481.5Q615 525 593.5 557.5Q572 590 534 609Q496 628 437 628Q378 628 340 609Q302 590 280.5 557.5Q259 525 251 481.5Q243 438 243 390ZM826 390Q826 297 804 222Q782 147 735 94Q688 41 614.5 12.5Q541 -16 437 -16Q333 -16 259.5 12.5Q186 41 139 94Q92 147 70 222Q48 297 48 390Q48 483 70 558Q92 633 139 686Q186 739 259.5 767.5Q333 796 437 796Q541 796 614.5 767.5Q688 739 735 686Q782 633 804 558Q826 483 826 390Z" glyph-name="Ocircumflex" horiz-adv-x="874" unicode="&#212;" /><glyph d="M672 919Q672 873 643.5 845.5Q615 818 562 818Q509 818 480.5 845.5Q452 873 452 919Q452 965 480.5 992.5Q509 1020 562 1020Q615 1020 643.5 992.5Q672 965 672 919ZM422 919Q422 873 393.5 845.5Q365 818 312 818Q259 818 230.5 845.5Q202 873 202 919Q202 965 230.5 992.5Q259 1020 312 1020Q365 1020 393.5 992.5Q422 965 422 919ZM243 390Q243 342 251 298.5Q259 255 280.5 222.5Q302 190 340 171Q378 152 437 152Q496 152 534 171Q572 190 593.5 222.5Q615 255 623 298.5Q631 342 631 390Q631 438 623 481.5Q615 525 593.5 557.5Q572 590 534 609Q496 628 437 628Q378 628 340 609Q302 590 280.5 557.5Q259 525 251 481.5Q243 438 243 390ZM826 390Q826 297 804 222Q782 147 735 94Q688 41 614.5 12.5Q541 -16 437 -16Q333 -16 259.5 12.5Q186 41 139 94Q92 147 70 222Q48 297 48 390Q48 483 70 558Q92 633 139 686Q186 739 259.5 767.5Q333 796 437 796Q541 796 614.5 767.5Q688 739 735 686Q782 633 804 558Q826 483 826 390Z" glyph-name="Odieresis" horiz-adv-x="874" unicode="&#214;" /><glyph d="M437 1030 531 822H352L241 1030ZM243 390Q243 342 251 298.5Q259 255 280.5 222.5Q302 190 340 171Q378 152 437 152Q496 152 534 171Q572 190 593.5 222.5Q615 255 623 298.5Q631 342 631 390Q631 438 623 481.5Q615 525 593.5 557.5Q572 590 534 609Q496 628 437 628Q378 628 340 609Q302 590 280.5 557.5Q259 525 251 481.5Q243 438 243 390ZM826 390Q826 297 804 222Q782 147 735 94Q688 41 614.5 12.5Q541 -16 437 -16Q333 -16 259.5 12.5Q186 41 139 94Q92 147 70 222Q48 297 48 390Q48 483 70 558Q92 633 139 686Q186 739 259.5 767.5Q333 796 437 796Q541 796 614.5 767.5Q688 739 735 686Q782 633 804 558Q826 483 826 390Z" glyph-name="Ograve" horiz-adv-x="874" unicode="&#210;" /><glyph d="M747 1030 636 822H457L551 1030ZM531 1030 420 822H241L335 1030ZM243 390Q243 342 251 298.5Q259 255 280.5 222.5Q302 190 340 171Q378 152 437 152Q496 152 534 171Q572 190 593.5 222.5Q615 255 623 298.5Q631 342 631 390Q631 438 623 481.5Q615 525 593.5 557.5Q572 590 534 609Q496 628 437 628Q378 628 340 609Q302 590 280.5 557.5Q259 525 251 481.5Q243 438 243 390ZM826 390Q826 297 804 222Q782 147 735 94Q688 41 614.5 12.5Q541 -16 437 -16Q333 -16 259.5 12.5Q186 41 139 94Q92 147 70 222Q48 297 48 390Q48 483 70 558Q92 633 139 686Q186 739 259.5 767.5Q333 796 437 796Q541 796 614.5 767.5Q688 739 735 686Q782 633 804 558Q826 483 826 390Z" glyph-name="Ohungarumlaut" horiz-adv-x="874" unicode="&#336;" /><glyph d="M271 846V1010H603V846ZM243 390Q243 342 251 298.5Q259 255 280.5 222.5Q302 190 340 171Q378 152 437 152Q496 152 534 171Q572 190 593.5 222.5Q615 255 623 298.5Q631 342 631 390Q631 438 623 481.5Q615 525 593.5 557.5Q572 590 534 609Q496 628 437 628Q378 628 340 609Q302 590 280.5 557.5Q259 525 251 481.5Q243 438 243 390ZM826 390Q826 297 804 222Q782 147 735 94Q688 41 614.5 12.5Q541 -16 437 -16Q333 -16 259.5 12.5Q186 41 139 94Q92 147 70 222Q48 297 48 390Q48 483 70 558Q92 633 139 686Q186 739 259.5 767.5Q333 796 437 796Q541 796 614.5 767.5Q688 739 735 686Q782 633 804 558Q826 483 826 390Z" glyph-name="Omacron" horiz-adv-x="874" unicode="&#332;" /><glyph d="M437 152Q496 152 534 171Q572 190 593.5 222.5Q615 255 623 298.5Q631 342 631 390Q631 428 627 456.5Q623 485 619 501L361 163Q369 160 388.5 156Q408 152 437 152ZM826 390Q826 297 804 222Q782 147 735 94Q688 41 614.5 12.5Q541 -16 437 -16Q333 -16 259.5 12.5Q186 41 139 94Q92 147 70 222Q48 297 48 390Q48 483 70 558Q92 633 139 686Q186 739 259.5 767.5Q333 796 437 796Q541 796 614.5 767.5Q688 739 735 686Q782 633 804 558Q826 483 826 390ZM437 628Q378 628 340 609Q302 590 280.5 557.5Q259 525 251 481.5Q243 438 243 390Q243 352 247 323.5Q251 295 255 279L513 617Q505 620 485.5 624Q466 628 437 628Z" glyph-name="Oslash" horiz-adv-x="874" unicode="&#216;" /><glyph d="M518 806Q478 806 452 818Q426 830 407 844Q388 858 373.5 870Q359 882 342 882Q328 882 321 874.5Q314 867 310 858Q306 847 305 835L181 850Q185 886 196 921Q207 956 228 984Q249 1012 280.5 1029Q312 1046 356 1046Q396 1046 422 1034Q448 1022 467 1008Q486 994 500.5 982Q515 970 532 970Q545 970 552.5 977Q560 984 564 993Q568 1004 569 1017L693 1002Q689 966 678 931Q667 896 646 868Q625 840 593.5 823Q562 806 518 806ZM243 390Q243 342 251 298.5Q259 255 280.5 222.5Q302 190 340 171Q378 152 437 152Q496 152 534 171Q572 190 593.5 222.5Q615 255 623 298.5Q631 342 631 390Q631 438 623 481.5Q615 525 593.5 557.5Q572 590 534 609Q496 628 437 628Q378 628 340 609Q302 590 280.5 557.5Q259 525 251 481.5Q243 438 243 390ZM826 390Q826 297 804 222Q782 147 735 94Q688 41 614.5 12.5Q541 -16 437 -16Q333 -16 259.5 12.5Q186 41 139 94Q92 147 70 222Q48 297 48 390Q48 483 70 558Q92 633 139 686Q186 739 259.5 767.5Q333 796 437 796Q541 796 614.5 767.5Q688 739 735 686Q782 633 804 558Q826 483 826 390Z" glyph-name="Otilde" horiz-adv-x="874" unicode="&#213;" /><glyph d="M262 0H68V780H399Q454 780 507.5 769Q561 758 603.5 729.5Q646 701 672.5 651.5Q699 602 699 525Q699 447 673 397.5Q647 348 605 319Q563 290 509.5 279Q456 268 401 268H262ZM410 437Q425 437 441 440Q457 443 470 452.5Q483 462 491.5 479.5Q500 497 500 525Q500 553 491.5 570Q483 587 470 596.5Q457 606 441 609Q425 612 410 612H262V437Z" glyph-name="P" horiz-adv-x="722" unicode="P" /><glyph d="M243 390Q243 342 251 298.5Q259 255 280.5 222.5Q302 190 340 171Q378 152 437 152Q496 152 534 171Q572 190 593.5 222.5Q615 255 623 298.5Q631 342 631 390Q631 438 623 481.5Q615 525 593.5 557.5Q572 590 534 609Q496 628 437 628Q378 628 340 609Q302 590 280.5 557.5Q259 525 251 481.5Q243 438 243 390ZM48 390Q48 483 70 558Q92 633 139 686Q186 739 259.5 767.5Q333 796 437 796Q541 796 614.5 767.5Q688 739 735 686Q782 633 804 558Q826 483 826 390Q826 309 809.5 241.5Q793 174 757.5 122.5Q722 71 666.5 37.5Q611 4 532 -9Q536 -34 552 -42.5Q568 -51 605 -51Q643 -51 676.5 -42.5Q710 -34 721 -28L743 -190Q726 -197 687.5 -206.5Q649 -216 582 -216Q513 -216 467 -198.5Q421 -181 393.5 -152Q366 -123 354 -86Q342 -49 342 -9Q263 4 207.5 37.5Q152 71 116.5 122.5Q81 174 64.5 241.5Q48 309 48 390Z" glyph-name="Q" horiz-adv-x="874" unicode="Q" /><glyph d="M437 451Q453 451 470 453.5Q487 456 500.5 464Q514 472 522.5 488Q531 504 531 531Q531 558 522.5 574Q514 590 500.5 598.5Q487 607 470 609.5Q453 612 437 612H262V451ZM262 0H68V780H427Q485 780 539 769Q593 758 634.5 730.5Q676 703 701 654.5Q726 606 726 531Q726 481 715.5 443.5Q705 406 685.5 378.5Q666 351 639 333Q612 315 579 304L768 0H541L371 282H262Z" glyph-name="R" horiz-adv-x="784" unicode="R" /><glyph d="M564 1030 453 822H274L368 1030ZM437 451Q453 451 470 453.5Q487 456 500.5 464Q514 472 522.5 488Q531 504 531 531Q531 558 522.5 574Q514 590 500.5 598.5Q487 607 470 609.5Q453 612 437 612H262V451ZM262 0H68V780H427Q485 780 539 769Q593 758 634.5 730.5Q676 703 701 654.5Q726 606 726 531Q726 481 715.5 443.5Q705 406 685.5 378.5Q666 351 639 333Q612 315 579 304L768 0H541L371 282H262Z" glyph-name="Racute" horiz-adv-x="784" unicode="&#340;" /><glyph d="M604 1030 446 822H290L132 1030H315L368 971L421 1030ZM437 451Q453 451 470 453.5Q487 456 500.5 464Q514 472 522.5 488Q531 504 531 531Q531 558 522.5 574Q514 590 500.5 598.5Q487 607 470 609.5Q453 612 437 612H262V451ZM262 0H68V780H427Q485 780 539 769Q593 758 634.5 730.5Q676 703 701 654.5Q726 606 726 531Q726 481 715.5 443.5Q705 406 685.5 378.5Q666 351 639 333Q612 315 579 304L768 0H541L371 282H262Z" glyph-name="Rcaron" horiz-adv-x="784" unicode="&#344;" /><glyph d="M473 -62 438 -200H271L282 -62ZM437 451Q453 451 470 453.5Q487 456 500.5 464Q514 472 522.5 488Q531 504 531 531Q531 558 522.5 574Q514 590 500.5 598.5Q487 607 470 609.5Q453 612 437 612H262V451ZM262 0H68V780H427Q485 780 539 769Q593 758 634.5 730.5Q676 703 701 654.5Q726 606 726 531Q726 481 715.5 443.5Q705 406 685.5 378.5Q666 351 639 333Q612 315 579 304L768 0H541L371 282H262Z" glyph-name="Rcommaaccent" horiz-adv-x="784" unicode="&#342;" /><glyph d="M557 519Q534 580 494 604Q454 628 383 628Q365 628 343.5 624Q322 620 303.5 611Q285 602 272.5 588Q260 574 260 553Q260 535 266.5 522.5Q273 510 288.5 501.5Q304 493 330 488.5Q356 484 396 481Q475 475 538 463Q601 451 644 425Q687 399 710 354Q733 309 733 237Q733 168 704 120Q675 72 627 42Q579 12 517 -2Q455 -16 390 -16Q240 -16 157 33.5Q74 83 42 177L210 258Q230 200 273.5 176Q317 152 383 152Q414 152 442 156.5Q470 161 491.5 170.5Q513 180 526 196.5Q539 213 539 237Q539 273 505.5 293Q472 313 386 319Q327 323 269.5 333.5Q212 344 167 369Q122 394 94 436.5Q66 479 66 546Q66 611 92 658Q118 705 162 736Q206 767 264 781.5Q322 796 386 796Q459 796 514.5 783.5Q570 771 611 746Q652 721 681 685Q710 649 729 602Z" glyph-name="S" horiz-adv-x="776" unicode="S" /><glyph d="M583 1030 472 822H293L387 1030ZM557 519Q534 580 494 604Q454 628 383 628Q365 628 343.5 624Q322 620 303.5 611Q285 602 272.5 588Q260 574 260 553Q260 535 266.5 522.5Q273 510 288.5 501.5Q304 493 330 488.5Q356 484 396 481Q475 475 538 463Q601 451 644 425Q687 399 710 354Q733 309 733 237Q733 168 704 120Q675 72 627 42Q579 12 517 -2Q455 -16 390 -16Q240 -16 157 33.5Q74 83 42 177L210 258Q230 200 273.5 176Q317 152 383 152Q414 152 442 156.5Q470 161 491.5 170.5Q513 180 526 196.5Q539 213 539 237Q539 273 505.5 293Q472 313 386 319Q327 323 269.5 333.5Q212 344 167 369Q122 394 94 436.5Q66 479 66 546Q66 611 92 658Q118 705 162 736Q206 767 264 781.5Q322 796 386 796Q459 796 514.5 783.5Q570 771 611 746Q652 721 681 685Q710 649 729 602Z" glyph-name="Sacute" horiz-adv-x="776" unicode="&#346;" /><glyph d="M623 1030 465 822H309L151 1030H334L387 971L440 1030ZM557 519Q534 580 494 604Q454 628 383 628Q365 628 343.5 624Q322 620 303.5 611Q285 602 272.5 588Q260 574 260 553Q260 535 266.5 522.5Q273 510 288.5 501.5Q304 493 330 488.5Q356 484 396 481Q475 475 538 463Q601 451 644 425Q687 399 710 354Q733 309 733 237Q733 168 704 120Q675 72 627 42Q579 12 517 -2Q455 -16 390 -16Q240 -16 157 33.5Q74 83 42 177L210 258Q230 200 273.5 176Q317 152 383 152Q414 152 442 156.5Q470 161 491.5 170.5Q513 180 526 196.5Q539 213 539 237Q539 273 505.5 293Q472 313 386 319Q327 323 269.5 333.5Q212 344 167 369Q122 394 94 436.5Q66 479 66 546Q66 611 92 658Q118 705 162 736Q206 767 264 781.5Q322 796 386 796Q459 796 514.5 783.5Q570 771 611 746Q652 721 681 685Q710 649 729 602Z" glyph-name="Scaron" horiz-adv-x="776" unicode="&#352;" /><glyph d="M557 519Q534 580 494 604Q454 628 383 628Q365 628 343.5 624Q322 620 303.5 611Q285 602 272.5 588Q260 574 260 553Q260 535 266.5 522.5Q273 510 288.5 501.5Q304 493 330 488.5Q356 484 396 481Q475 475 538 463Q601 451 644 425Q687 399 710 354Q733 309 733 237Q733 173 707.5 127Q682 81 639.5 50.5Q597 20 541 4Q485 -12 425 -15L420 -33Q471 -44 500.5 -67Q530 -90 525 -132Q522 -154 510.5 -170Q499 -186 481 -196Q463 -206 440 -211Q417 -216 392 -216Q339 -216 307 -207Q275 -198 263 -193L288 -117Q295 -120 303 -124Q319 -131 338 -134Q358 -137 372 -133Q386 -129 386 -113Q386 -99 365 -89Q344 -79 308 -75L329 -13Q208 -3 139.5 44.5Q71 92 42 177L210 258Q230 200 273.5 176Q317 152 383 152Q414 152 442 156.5Q470 161 491.5 170.5Q513 180 526 196.5Q539 213 539 237Q539 273 505.5 293Q472 313 386 319Q327 323 269.5 333.5Q212 344 167 369Q122 394 94 436.5Q66 479 66 546Q66 611 92 658Q118 705 162 736Q206 767 264 781.5Q322 796 386 796Q459 796 514.5 783.5Q570 771 611 746Q652 721 681 685Q710 649 729 602Z" glyph-name="Scedilla" horiz-adv-x="776" unicode="&#350;" /><glyph d="M151 822 309 1030H465L623 822H440L387 881L334 822ZM557 519Q534 580 494 604Q454 628 383 628Q365 628 343.5 624Q322 620 303.5 611Q285 602 272.5 588Q260 574 260 553Q260 535 266.5 522.5Q273 510 288.5 501.5Q304 493 330 488.5Q356 484 396 481Q475 475 538 463Q601 451 644 425Q687 399 710 354Q733 309 733 237Q733 168 704 120Q675 72 627 42Q579 12 517 -2Q455 -16 390 -16Q240 -16 157 33.5Q74 83 42 177L210 258Q230 200 273.5 176Q317 152 383 152Q414 152 442 156.5Q470 161 491.5 170.5Q513 180 526 196.5Q539 213 539 237Q539 273 505.5 293Q472 313 386 319Q327 323 269.5 333.5Q212 344 167 369Q122 394 94 436.5Q66 479 66 546Q66 611 92 658Q118 705 162 736Q206 767 264 781.5Q322 796 386 796Q459 796 514.5 783.5Q570 771 611 746Q652 721 681 685Q710 649 729 602Z" glyph-name="Scircumflex" horiz-adv-x="776" unicode="&#348;" /><glyph d="M489 -62 454 -200H287L298 -62ZM557 519Q534 580 494 604Q454 628 383 628Q365 628 343.5 624Q322 620 303.5 611Q285 602 272.5 588Q260 574 260 553Q260 535 266.5 522.5Q273 510 288.5 501.5Q304 493 330 488.5Q356 484 396 481Q475 475 538 463Q601 451 644 425Q687 399 710 354Q733 309 733 237Q733 168 704 120Q675 72 627 42Q579 12 517 -2Q455 -16 390 -16Q240 -16 157 33.5Q74 83 42 177L210 258Q230 200 273.5 176Q317 152 383 152Q414 152 442 156.5Q470 161 491.5 170.5Q513 180 526 196.5Q539 213 539 237Q539 273 505.5 293Q472 313 386 319Q327 323 269.5 333.5Q212 344 167 369Q122 394 94 436.5Q66 479 66 546Q66 611 92 658Q118 705 162 736Q206 767 264 781.5Q322 796 386 796Q459 796 514.5 783.5Q570 771 611 746Q652 721 681 685Q710 649 729 602Z" glyph-name="Scommaaccent" horiz-adv-x="776" unicode="&#536;" /><glyph d="M443 0H248V612H19V780H672V612H443Z" glyph-name="T" horiz-adv-x="691" unicode="T" /><glyph d="M551 338H443V0H248V338H138V462H248V612H19V780H672V612H443V462H551Z" glyph-name="Tbar" horiz-adv-x="691" unicode="&#358;" /><glyph d="M581 1030 423 822H267L109 1030H292L345 971L398 1030ZM443 0H248V612H19V780H672V612H443Z" glyph-name="Tcaron" horiz-adv-x="691" unicode="&#356;" /><glyph d="M446 -62 411 -200H244L255 -62ZM443 0H248V612H19V780H672V612H443Z" glyph-name="Tcommaaccent" horiz-adv-x="691" unicode="&#354;" /><glyph d="M410 303Q425 303 441 306Q457 309 470 318.5Q483 328 491.5 345.5Q500 363 500 391Q500 419 491.5 436Q483 453 470 462.5Q457 472 441 475Q425 478 410 478H262V303ZM262 646H399Q454 646 507.5 635Q561 624 603.5 595.5Q646 567 672.5 517.5Q699 468 699 391Q699 313 673 263.5Q647 214 605 185Q563 156 509.5 145Q456 134 401 134H262V0H68V780H262Z" glyph-name="Thorn" horiz-adv-x="730" unicode="&#222;" /><glyph d="M410 -16Q309 -16 241.5 7Q174 30 134 70.5Q94 111 77.5 167Q61 223 61 288V780H254V289Q254 260 259.5 235Q265 210 282 191.5Q299 173 329.5 162.5Q360 152 410 152Q459 152 489.5 162.5Q520 173 536.5 191.5Q553 210 559 235Q565 260 565 289V780H757V288Q757 223 740.5 167Q724 111 684 70.5Q644 30 577 7Q510 -16 410 -16Z" glyph-name="U" horiz-adv-x="818" unicode="U" /><glyph d="M605 1030 494 822H315L409 1030ZM410 -16Q309 -16 241.5 7Q174 30 134 70.5Q94 111 77.5 167Q61 223 61 288V780H254V289Q254 260 259.5 235Q265 210 282 191.5Q299 173 329.5 162.5Q360 152 410 152Q459 152 489.5 162.5Q520 173 536.5 191.5Q553 210 559 235Q565 260 565 289V780H757V288Q757 223 740.5 167Q724 111 684 70.5Q644 30 577 7Q510 -16 410 -16Z" glyph-name="Uacute" horiz-adv-x="818" unicode="&#218;" /><glyph d="M409 806Q350 806 309 821Q268 836 242.5 864.5Q217 893 206 934.5Q195 976 196 1030H336Q335 996 352.5 982Q370 968 409 968Q448 968 465.5 982Q483 996 482 1030H622Q623 976 612 934.5Q601 893 575.5 864.5Q550 836 509 821Q468 806 409 806ZM410 -16Q309 -16 241.5 7Q174 30 134 70.5Q94 111 77.5 167Q61 223 61 288V780H254V289Q254 260 259.5 235Q265 210 282 191.5Q299 173 329.5 162.5Q360 152 410 152Q459 152 489.5 162.5Q520 173 536.5 191.5Q553 210 559 235Q565 260 565 289V780H757V288Q757 223 740.5 167Q724 111 684 70.5Q644 30 577 7Q510 -16 410 -16Z" glyph-name="Ubreve" horiz-adv-x="818" unicode="&#364;" /><glyph d="M173 822 331 1030H487L645 822H462L409 881L356 822ZM410 -16Q309 -16 241.5 7Q174 30 134 70.5Q94 111 77.5 167Q61 223 61 288V780H254V289Q254 260 259.5 235Q265 210 282 191.5Q299 173 329.5 162.5Q360 152 410 152Q459 152 489.5 162.5Q520 173 536.5 191.5Q553 210 559 235Q565 260 565 289V780H757V288Q757 223 740.5 167Q724 111 684 70.5Q644 30 577 7Q510 -16 410 -16Z" glyph-name="Ucircumflex" horiz-adv-x="818" unicode="&#219;" /><glyph d="M644 919Q644 873 615.5 845.5Q587 818 534 818Q481 818 452.5 845.5Q424 873 424 919Q424 965 452.5 992.5Q481 1020 534 1020Q587 1020 615.5 992.5Q644 965 644 919ZM394 919Q394 873 365.5 845.5Q337 818 284 818Q231 818 202.5 845.5Q174 873 174 919Q174 965 202.5 992.5Q231 1020 284 1020Q337 1020 365.5 992.5Q394 965 394 919ZM410 -16Q309 -16 241.5 7Q174 30 134 70.5Q94 111 77.5 167Q61 223 61 288V780H254V289Q254 260 259.5 235Q265 210 282 191.5Q299 173 329.5 162.5Q360 152 410 152Q459 152 489.5 162.5Q520 173 536.5 191.5Q553 210 559 235Q565 260 565 289V780H757V288Q757 223 740.5 167Q724 111 684 70.5Q644 30 577 7Q510 -16 410 -16Z" glyph-name="Udieresis" horiz-adv-x="818" unicode="&#220;" /><glyph d="M409 1030 503 822H324L213 1030ZM410 -16Q309 -16 241.5 7Q174 30 134 70.5Q94 111 77.5 167Q61 223 61 288V780H254V289Q254 260 259.5 235Q265 210 282 191.5Q299 173 329.5 162.5Q360 152 410 152Q459 152 489.5 162.5Q520 173 536.5 191.5Q553 210 559 235Q565 260 565 289V780H757V288Q757 223 740.5 167Q724 111 684 70.5Q644 30 577 7Q510 -16 410 -16Z" glyph-name="Ugrave" horiz-adv-x="818" unicode="&#217;" /><glyph d="M719 1030 608 822H429L523 1030ZM503 1030 392 822H213L307 1030ZM410 -16Q309 -16 241.5 7Q174 30 134 70.5Q94 111 77.5 167Q61 223 61 288V780H254V289Q254 260 259.5 235Q265 210 282 191.5Q299 173 329.5 162.5Q360 152 410 152Q459 152 489.5 162.5Q520 173 536.5 191.5Q553 210 559 235Q565 260 565 289V780H757V288Q757 223 740.5 167Q724 111 684 70.5Q644 30 577 7Q510 -16 410 -16Z" glyph-name="Uhungarumlaut" horiz-adv-x="818" unicode="&#368;" /><glyph d="M243 846V1010H575V846ZM410 -16Q309 -16 241.5 7Q174 30 134 70.5Q94 111 77.5 167Q61 223 61 288V780H254V289Q254 260 259.5 235Q265 210 282 191.5Q299 173 329.5 162.5Q360 152 410 152Q459 152 489.5 162.5Q520 173 536.5 191.5Q553 210 559 235Q565 260 565 289V780H757V288Q757 223 740.5 167Q724 111 684 70.5Q644 30 577 7Q510 -16 410 -16Z" glyph-name="Umacron" horiz-adv-x="818" unicode="&#362;" /><glyph d="M757 288Q757 235 746.5 188.5Q736 142 711 104Q686 66 644.5 39Q603 12 542 -2Q541 -3 541 -3Q500 -11 478 -32Q456 -53 459 -73Q461 -82 469.5 -90Q478 -98 502 -93Q516 -90 527 -84Q532 -81 538 -77L572 -191Q556 -201 528.5 -208.5Q501 -216 467 -216Q413 -216 379.5 -195Q346 -174 334 -125Q326 -93 333.5 -65Q341 -37 359 -14Q273 -8 216 17Q159 42 124.5 81.5Q90 121 75.5 174Q61 227 61 288V780H254V289Q254 260 259.5 235Q265 210 282 191.5Q299 173 329.5 162.5Q360 152 410 152Q459 152 489.5 162.5Q520 173 536.5 191.5Q553 210 559 235Q565 260 565 289V780H757Z" glyph-name="Uogonek" horiz-adv-x="818" unicode="&#370;" /><glyph d="M370 926Q370 909 381 899Q392 889 409 889Q427 889 438 899Q449 909 449 926Q449 943 438 953Q427 963 409 963Q392 963 381 953Q370 943 370 926ZM281 926Q281 977 315 1011.5Q349 1046 409 1046Q469 1046 503.5 1011.5Q538 977 538 926Q538 875 503.5 840.5Q469 806 409 806Q349 806 315 840.5Q281 875 281 926ZM410 -16Q309 -16 241.5 7Q174 30 134 70.5Q94 111 77.5 167Q61 223 61 288V780H254V289Q254 260 259.5 235Q265 210 282 191.5Q299 173 329.5 162.5Q360 152 410 152Q459 152 489.5 162.5Q520 173 536.5 191.5Q553 210 559 235Q565 260 565 289V780H757V288Q757 223 740.5 167Q724 111 684 70.5Q644 30 577 7Q510 -16 410 -16Z" glyph-name="Uring" horiz-adv-x="818" unicode="&#366;" /><glyph d="M490 806Q450 806 424 818Q398 830 379 844Q360 858 345.5 870Q331 882 314 882Q300 882 293 874.5Q286 867 282 858Q278 847 277 835L153 850Q157 886 168 921Q179 956 200 984Q221 1012 252.5 1029Q284 1046 328 1046Q368 1046 394 1034Q420 1022 439 1008Q458 994 472.5 982Q487 970 504 970Q517 970 524.5 977Q532 984 536 993Q540 1004 541 1017L665 1002Q661 966 650 931Q639 896 618 868Q597 840 565.5 823Q534 806 490 806ZM410 -16Q309 -16 241.5 7Q174 30 134 70.5Q94 111 77.5 167Q61 223 61 288V780H254V289Q254 260 259.5 235Q265 210 282 191.5Q299 173 329.5 162.5Q360 152 410 152Q459 152 489.5 162.5Q520 173 536.5 191.5Q553 210 559 235Q565 260 565 289V780H757V288Q757 223 740.5 167Q724 111 684 70.5Q644 30 577 7Q510 -16 410 -16Z" glyph-name="Utilde" horiz-adv-x="818" unicode="&#360;" /><glyph d="M302 0 -4 780H212L341 401L401 225L461 401L590 780H806L500 0Z" glyph-name="V" horiz-adv-x="801" unicode="V" /><glyph d="M434 780H587L689 504L738 356L762 504L801 780H1004L843 -16H682L553 347L511 467L469 347L341 -16H179L20 780H220L261 504L285 356L334 504Z" glyph-name="W" horiz-adv-x="1023" unicode="W" /><glyph d="M713 1030 602 822H423L517 1030ZM434 780H587L689 504L738 356L762 504L801 780H1004L843 -16H682L553 347L511 467L469 347L341 -16H179L20 780H220L261 504L285 356L334 504Z" glyph-name="Wacute" horiz-adv-x="1023" unicode="&#7810;" /><glyph d="M276 822 434 1030H590L748 822H565L512 881L459 822ZM434 780H587L689 504L738 356L762 504L801 780H1004L843 -16H682L553 347L511 467L469 347L341 -16H179L20 780H220L261 504L285 356L334 504Z" glyph-name="Wcircumflex" horiz-adv-x="1023" unicode="&#372;" /><glyph d="M747 919Q747 873 718.5 845.5Q690 818 637 818Q584 818 555.5 845.5Q527 873 527 919Q527 965 555.5 992.5Q584 1020 637 1020Q690 1020 718.5 992.5Q747 965 747 919ZM497 919Q497 873 468.5 845.5Q440 818 387 818Q334 818 305.5 845.5Q277 873 277 919Q277 965 305.5 992.5Q334 1020 387 1020Q440 1020 468.5 992.5Q497 965 497 919ZM434 780H587L689 504L738 356L762 504L801 780H1004L843 -16H682L553 347L511 467L469 347L341 -16H179L20 780H220L261 504L285 356L334 504Z" glyph-name="Wdieresis" horiz-adv-x="1023" unicode="&#7812;" /><glyph d="M507 1030 601 822H422L311 1030ZM434 780H587L689 504L738 356L762 504L801 780H1004L843 -16H682L553 347L511 467L469 347L341 -16H179L20 780H220L261 504L285 356L334 504Z" glyph-name="Wgrave" horiz-adv-x="1023" unicode="&#7808;" /><glyph d="M365 166 247 0H14L246 312L309 398L238 494L28 780H259L372 622L424 547L477 622L589 780H819L607 494L537 398L602 312L835 0H602L482 166L424 248Z" glyph-name="X" horiz-adv-x="847" unicode="X" /><glyph d="M186 780 335 555 386 478 435 555 586 780H808L483 316V0H288V316L-38 780Z" glyph-name="Y" horiz-adv-x="770" unicode="Y" /><glyph d="M581 1030 470 822H291L385 1030ZM186 780 335 555 386 478 435 555 586 780H808L483 316V0H288V316L-38 780Z" glyph-name="Yacute" horiz-adv-x="770" unicode="&#221;" /><glyph d="M149 822 307 1030H463L621 822H438L385 881L332 822ZM186 780 335 555 386 478 435 555 586 780H808L483 316V0H288V316L-38 780Z" glyph-name="Ycircumflex" horiz-adv-x="770" unicode="&#374;" /><glyph d="M620 919Q620 873 591.5 845.5Q563 818 510 818Q457 818 428.5 845.5Q400 873 400 919Q400 965 428.5 992.5Q457 1020 510 1020Q563 1020 591.5 992.5Q620 965 620 919ZM370 919Q370 873 341.5 845.5Q313 818 260 818Q207 818 178.5 845.5Q150 873 150 919Q150 965 178.5 992.5Q207 1020 260 1020Q313 1020 341.5 992.5Q370 965 370 919ZM186 780 335 555 386 478 435 555 586 780H808L483 316V0H288V316L-38 780Z" glyph-name="Ydieresis" horiz-adv-x="770" unicode="&#376;" /><glyph d="M28 125 394 564 437 613 344 612H48V780H707V655L341 216L297 167L391 168H707V0H28Z" glyph-name="Z" horiz-adv-x="740" unicode="Z" /><glyph d="M563 1030 452 822H273L367 1030ZM28 125 394 564 437 613 344 612H48V780H707V655L341 216L297 167L391 168H707V0H28Z" glyph-name="Zacute" horiz-adv-x="740" unicode="&#377;" /><glyph d="M603 1030 445 822H289L131 1030H314L367 971L420 1030ZM28 125 394 564 437 613 344 612H48V780H707V655L341 216L297 167L391 168H707V0H28Z" glyph-name="Zcaron" horiz-adv-x="740" unicode="&#381;" /><glyph d="M477 919Q477 873 448.5 845.5Q420 818 367 818Q314 818 285.5 845.5Q257 873 257 919Q257 965 285.5 992.5Q314 1020 367 1020Q420 1020 448.5 992.5Q477 965 477 919ZM28 125 394 564 437 613 344 612H48V780H707V655L341 216L297 167L391 168H707V0H28Z" glyph-name="Zdotaccent" horiz-adv-x="740" unicode="&#379;" /><glyph d="M37 156Q37 199 52.5 228.5Q68 258 95.5 277Q123 296 161 306.5Q199 317 244 323L406 344V353Q406 368 386 380.5Q366 393 319 393Q273 393 249.5 376.5Q226 360 215 332L54 410Q65 434 82.5 458Q100 482 131 501.5Q162 521 210.5 533.5Q259 546 331 546Q392 546 441 534Q490 522 524.5 496.5Q559 471 577.5 431.5Q596 392 596 338V175Q596 138 628 138Q636 138 641.5 139Q647 140 649 141V0Q639 -6 619 -11Q599 -16 563 -16Q520 -16 480 -2.5Q440 11 417 51Q382 18 339.5 1Q297 -16 235 -16Q181 -16 143.5 -2.5Q106 11 82 34Q58 57 47.5 88.5Q37 120 37 156ZM239 166Q239 150 252.5 140.5Q266 131 293 131Q336 131 363 151Q390 171 406 194V222L281 202Q257 198 248 189.5Q239 181 239 166Z" glyph-name="a" horiz-adv-x="671" unicode="a" /><glyph d="M521 800 410 592H231L325 800ZM37 156Q37 199 52.5 228.5Q68 258 95.5 277Q123 296 161 306.5Q199 317 244 323L406 344V353Q406 368 386 380.5Q366 393 319 393Q273 393 249.5 376.5Q226 360 215 332L54 410Q65 434 82.5 458Q100 482 131 501.5Q162 521 210.5 533.5Q259 546 331 546Q392 546 441 534Q490 522 524.5 496.5Q559 471 577.5 431.5Q596 392 596 338V175Q596 138 628 138Q636 138 641.5 139Q647 140 649 141V0Q639 -6 619 -11Q599 -16 563 -16Q520 -16 480 -2.5Q440 11 417 51Q382 18 339.5 1Q297 -16 235 -16Q181 -16 143.5 -2.5Q106 11 82 34Q58 57 47.5 88.5Q37 120 37 156ZM239 166Q239 150 252.5 140.5Q266 131 293 131Q336 131 363 151Q390 171 406 194V222L281 202Q257 198 248 189.5Q239 181 239 166Z" glyph-name="aacute" horiz-adv-x="671" unicode="&#225;" /><glyph d="M325 576Q266 576 225 591Q184 606 158.5 634.5Q133 663 122 704.5Q111 746 112 800H252Q251 766 268.5 752Q286 738 325 738Q364 738 381.5 752Q399 766 398 800H538Q539 746 528 704.5Q517 663 491.5 634.5Q466 606 425 591Q384 576 325 576ZM37 156Q37 199 52.5 228.5Q68 258 95.5 277Q123 296 161 306.5Q199 317 244 323L406 344V353Q406 368 386 380.5Q366 393 319 393Q273 393 249.5 376.5Q226 360 215 332L54 410Q65 434 82.5 458Q100 482 131 501.5Q162 521 210.5 533.5Q259 546 331 546Q392 546 441 534Q490 522 524.5 496.5Q559 471 577.5 431.5Q596 392 596 338V175Q596 138 628 138Q636 138 641.5 139Q647 140 649 141V0Q639 -6 619 -11Q599 -16 563 -16Q520 -16 480 -2.5Q440 11 417 51Q382 18 339.5 1Q297 -16 235 -16Q181 -16 143.5 -2.5Q106 11 82 34Q58 57 47.5 88.5Q37 120 37 156ZM239 166Q239 150 252.5 140.5Q266 131 293 131Q336 131 363 151Q390 171 406 194V222L281 202Q257 198 248 189.5Q239 181 239 166Z" glyph-name="abreve" horiz-adv-x="671" unicode="&#259;" /><glyph d="M89 592 247 800H403L561 592H378L325 651L272 592ZM37 156Q37 199 52.5 228.5Q68 258 95.5 277Q123 296 161 306.5Q199 317 244 323L406 344V353Q406 368 386 380.5Q366 393 319 393Q273 393 249.5 376.5Q226 360 215 332L54 410Q65 434 82.5 458Q100 482 131 501.5Q162 521 210.5 533.5Q259 546 331 546Q392 546 441 534Q490 522 524.5 496.5Q559 471 577.5 431.5Q596 392 596 338V175Q596 138 628 138Q636 138 641.5 139Q647 140 649 141V0Q639 -6 619 -11Q599 -16 563 -16Q520 -16 480 -2.5Q440 11 417 51Q382 18 339.5 1Q297 -16 235 -16Q181 -16 143.5 -2.5Q106 11 82 34Q58 57 47.5 88.5Q37 120 37 156ZM239 166Q239 150 252.5 140.5Q266 131 293 131Q336 131 363 151Q390 171 406 194V222L281 202Q257 198 248 189.5Q239 181 239 166Z" glyph-name="acircumflex" horiz-adv-x="671" unicode="&#226;" /><glyph d="M491 800 380 592H201L295 800Z" glyph-name="acute" horiz-adv-x="590" unicode="&#180;" /><glyph d="M491 1030 380 822H201L295 1030Z" glyph-name="acute.cap" horiz-adv-x="590" unicode="&#58402;" /><glyph d="M340 690Q340 713 348.5 733Q357 753 372 768Q387 783 407 791.5Q427 800 450 800Q473 800 493 791.5Q513 783 528 768Q543 753 551.5 733Q560 713 560 690Q560 667 551.5 647Q543 627 528 612Q513 597 493 588.5Q473 580 450 580Q427 580 407 588.5Q387 597 372 612Q357 627 348.5 647Q340 667 340 690ZM90 690Q90 713 98.5 733Q107 753 122 768Q137 783 157 791.5Q177 800 200 800Q223 800 243 791.5Q263 783 278 768Q293 753 301.5 733Q310 713 310 690Q310 667 301.5 647Q293 627 278 612Q263 597 243 588.5Q223 580 200 580Q177 580 157 588.5Q137 597 122 612Q107 627 98.5 647Q90 667 90 690ZM37 156Q37 199 52.5 228.5Q68 258 95.5 277Q123 296 161 306.5Q199 317 244 323L406 344V353Q406 368 386 380.5Q366 393 319 393Q273 393 249.5 376.5Q226 360 215 332L54 410Q65 434 82.5 458Q100 482 131 501.5Q162 521 210.5 533.5Q259 546 331 546Q392 546 441 534Q490 522 524.5 496.5Q559 471 577.5 431.5Q596 392 596 338V175Q596 138 628 138Q636 138 641.5 139Q647 140 649 141V0Q639 -6 619 -11Q599 -16 563 -16Q520 -16 480 -2.5Q440 11 417 51Q382 18 339.5 1Q297 -16 235 -16Q181 -16 143.5 -2.5Q106 11 82 34Q58 57 47.5 88.5Q37 120 37 156ZM239 166Q239 150 252.5 140.5Q266 131 293 131Q336 131 363 151Q390 171 406 194V222L281 202Q257 198 248 189.5Q239 181 239 166Z" glyph-name="adieresis" horiz-adv-x="671" unicode="&#228;" /><glyph d="M709 -16Q642 -16 588 0.5Q534 17 494 49Q472 36 447.5 24.5Q423 13 394.5 4Q366 -5 332 -10.5Q298 -16 256 -16Q194 -16 152 -3Q110 10 84.5 33Q59 56 48 87Q37 118 37 155Q37 202 56 235Q75 268 108.5 288.5Q142 309 188.5 318.5Q235 328 290 328H406V346Q406 366 385.5 379.5Q365 393 317 393Q293 393 276.5 388.5Q260 384 249 376.5Q238 369 231.5 359Q225 349 220 338L59 416Q68 441 84 464.5Q100 488 129 506Q158 524 202.5 535Q247 546 312 546Q381 546 431.5 534Q482 522 517 500Q551 521 596 533.5Q641 546 698 546Q835 546 910.5 474.5Q986 403 986 264V203H605Q607 172 636 154.5Q665 137 716 137Q756 137 781 152.5Q806 168 815 188L974 111Q964 89 944 66.5Q924 44 892 25.5Q860 7 814.5 -4.5Q769 -16 709 -16ZM700 393Q661 393 637 376Q613 359 607 328H782Q780 361 758 376.5Q736 392 700 393ZM238 166Q238 130 288 130Q314 130 334 137Q354 144 369 154Q384 164 393 175Q402 186 406 194V203H286Q260 203 249 193Q238 183 238 166Z" glyph-name="ae" horiz-adv-x="1020" unicode="&#230;" /><glyph d="M208 436Q231 468 251 517Q271 566 271 622Q271 639 265.5 649.5Q260 660 246 660Q229 660 218.5 633Q208 606 208 539ZM267 -14Q173 -14 117.5 23.5Q62 61 62 131V164L13 134V257Q24 264 36 272Q48 280 62 291V524Q60 582 72.5 629Q85 676 108.5 709Q132 742 166 760Q200 778 242 778Q318 778 353 736Q388 694 388 619Q388 559 371.5 506.5Q355 454 329.5 409.5Q304 365 271.5 327.5Q239 290 208 260V179Q208 140 222 126Q236 112 272 111Q300 111 321.5 117.5Q343 124 353 129L368 1Q354 -4 326.5 -9Q299 -14 267 -14Z" glyph-name="afii61289" horiz-adv-x="420" unicode="&#8467;" /><glyph d="M325 800 419 592H240L129 800ZM37 156Q37 199 52.5 228.5Q68 258 95.5 277Q123 296 161 306.5Q199 317 244 323L406 344V353Q406 368 386 380.5Q366 393 319 393Q273 393 249.5 376.5Q226 360 215 332L54 410Q65 434 82.5 458Q100 482 131 501.5Q162 521 210.5 533.5Q259 546 331 546Q392 546 441 534Q490 522 524.5 496.5Q559 471 577.5 431.5Q596 392 596 338V175Q596 138 628 138Q636 138 641.5 139Q647 140 649 141V0Q639 -6 619 -11Q599 -16 563 -16Q520 -16 480 -2.5Q440 11 417 51Q382 18 339.5 1Q297 -16 235 -16Q181 -16 143.5 -2.5Q106 11 82 34Q58 57 47.5 88.5Q37 120 37 156ZM239 166Q239 150 252.5 140.5Q266 131 293 131Q336 131 363 151Q390 171 406 194V222L281 202Q257 198 248 189.5Q239 181 239 166Z" glyph-name="agrave" horiz-adv-x="671" unicode="&#224;" /><glyph d="M220 -21Q280 -25 319.5 -35Q359 -45 381.5 -59.5Q404 -74 412.5 -92.5Q421 -111 418 -132Q415 -154 403.5 -170Q392 -186 374 -196Q356 -206 333 -211Q310 -216 285 -216Q232 -216 200 -207Q168 -198 156 -193L181 -117Q188 -120 196 -124Q212 -131 231 -134Q251 -137 265 -133Q279 -129 279 -113Q279 -99 258 -89Q237 -79 201 -75Z" glyph-name="altcedilla" horiz-adv-x="590" unicode="&#58390;" /><glyph d="M159 780H491V616H159ZM37 156Q37 199 52.5 228.5Q68 258 95.5 277Q123 296 161 306.5Q199 317 244 323L406 344V353Q406 368 386 380.5Q366 393 319 393Q273 393 249.5 376.5Q226 360 215 332L54 410Q65 434 82.5 458Q100 482 131 501.5Q162 521 210.5 533.5Q259 546 331 546Q392 546 441 534Q490 522 524.5 496.5Q559 471 577.5 431.5Q596 392 596 338V175Q596 138 628 138Q636 138 641.5 139Q647 140 649 141V0Q639 -6 619 -11Q599 -16 563 -16Q520 -16 480 -2.5Q440 11 417 51Q382 18 339.5 1Q297 -16 235 -16Q181 -16 143.5 -2.5Q106 11 82 34Q58 57 47.5 88.5Q37 120 37 156ZM239 166Q239 150 252.5 140.5Q266 131 293 131Q336 131 363 151Q390 171 406 194V222L281 202Q257 198 248 189.5Q239 181 239 166Z" glyph-name="amacron" horiz-adv-x="671" unicode="&#257;" /><glyph d="M275 580Q275 563 282.5 548Q290 533 313 511Q344 526 366.5 543Q389 560 389 587Q389 604 375 615.5Q361 627 335 627Q275 627 275 580ZM463 193Q410 231 366.5 263Q323 295 288 321Q230 281 230 231Q230 203 242 186Q254 169 271 160Q288 151 306.5 148.5Q325 146 338 146Q377 146 408 158.5Q439 171 463 193ZM578 591Q578 526 544 483.5Q510 441 446 406L540 337Q546 362 549 387.5Q552 413 552 437H745Q745 380 734.5 325.5Q724 271 703 220L749 187V-15Q711 13 677 38Q643 63 610 86Q559 39 487 11.5Q415 -16 318 -16Q266 -16 216 -3Q166 10 126.5 38Q87 66 62.5 110.5Q38 155 38 219Q38 260 45.5 290.5Q53 321 68 345.5Q83 370 105.5 390Q128 410 159 429Q136 451 121.5 470Q107 489 99 507.5Q91 526 87.5 545Q84 564 84 586Q84 685 149 740Q214 795 335 795Q395 795 440.5 779Q486 763 516.5 735.5Q547 708 562.5 670.5Q578 633 578 591Z" glyph-name="ampersand" horiz-adv-x="789" unicode="&amp;" /><glyph d="M334 -130H143L16 350L143 830H334L211 350Z" glyph-name="anglebracketleft" horiz-adv-x="336" unicode="&#12296;" /><glyph d="M334 -90H143L16 390L143 870H334L211 390Z" glyph-name="anglebracketleft.cap" horiz-adv-x="336" unicode="&#58519;" /><glyph d="M3 830H192L321 350L192 -130H3L126 350Z" glyph-name="anglebracketright" horiz-adv-x="336" unicode="&#12297;" /><glyph d="M127 390 7 870H195L324 390L195 -90H7Z" glyph-name="anglebracketright.cap" horiz-adv-x="336" unicode="&#58520;" /><glyph d="M239 166Q239 150 252.5 140.5Q266 131 293 131Q336 131 363 151Q390 171 406 194V222L281 202Q257 198 248 189.5Q239 181 239 166ZM37 156Q37 199 52.5 228.5Q68 258 95.5 277Q123 296 161 306.5Q199 317 244 323L406 344V353Q406 368 386 380.5Q366 393 319 393Q273 393 249.5 376.5Q226 360 215 332L54 410Q65 434 82.5 458Q100 482 131 501.5Q162 521 210.5 533.5Q259 546 331 546Q392 546 441 534Q490 522 524.5 496.5Q559 471 577.5 431.5Q596 392 596 338V175Q596 138 628 138Q636 138 641.5 139Q647 140 649 141V0Q639 -4 624 -10Q609 -16 595.5 -24.5Q582 -33 573 -45Q564 -57 567 -73Q569 -82 577.5 -90Q586 -98 610 -93Q624 -90 635 -84Q640 -81 646 -77L680 -191Q664 -201 636.5 -208.5Q609 -216 575 -216Q521 -216 487.5 -195Q454 -174 442 -125Q432 -88 443.5 -57.5Q455 -27 478 -2Q459 6 443.5 18.5Q428 31 417 51Q382 18 339.5 1Q297 -16 235 -16Q181 -16 143.5 -2.5Q106 11 82 34Q58 57 47.5 88.5Q37 120 37 156Z" glyph-name="aogonek" horiz-adv-x="671" unicode="&#261;" /><glyph d="M706 282Q683 255 653 235Q627 218 592 203.5Q557 189 512 189Q458 189 423 197Q388 205 358.5 215Q329 225 299 233Q269 241 226 241Q207 241 187.5 233Q168 225 152 215Q134 204 116 190L39 316Q61 342 91 362Q116 379 151.5 394Q187 409 232 409Q286 409 321 401Q356 393 386 383Q416 373 446 365Q476 357 519 357Q537 357 556.5 364.5Q576 372 592 382Q610 393 628 408ZM39 506Q61 532 91 552Q116 569 151.5 584Q187 599 232 599Q286 599 321 591Q356 583 386 573Q416 563 446 555Q476 547 519 547Q537 547 556.5 554.5Q576 562 592 572Q610 583 628 598L706 472Q683 445 653 425Q627 408 592 393.5Q557 379 512 379Q458 379 423 387Q388 395 358.5 405Q329 415 299 423Q269 431 226 431Q207 431 187.5 423Q168 415 152 405Q134 394 116 380Z" glyph-name="approxequal" horiz-adv-x="742" unicode="&#8776;" /><glyph d="M286 696Q286 679 297 669Q308 659 325 659Q343 659 354 669Q365 679 365 696Q365 713 354 723Q343 733 325 733Q308 733 297 723Q286 713 286 696ZM197 696Q197 747 231 781.5Q265 816 325 816Q385 816 419.5 781.5Q454 747 454 696Q454 645 419.5 610.5Q385 576 325 576Q265 576 231 610.5Q197 645 197 696ZM37 156Q37 199 52.5 228.5Q68 258 95.5 277Q123 296 161 306.5Q199 317 244 323L406 344V353Q406 368 386 380.5Q366 393 319 393Q273 393 249.5 376.5Q226 360 215 332L54 410Q65 434 82.5 458Q100 482 131 501.5Q162 521 210.5 533.5Q259 546 331 546Q392 546 441 534Q490 522 524.5 496.5Q559 471 577.5 431.5Q596 392 596 338V175Q596 138 628 138Q636 138 641.5 139Q647 140 649 141V0Q639 -6 619 -11Q599 -16 563 -16Q520 -16 480 -2.5Q440 11 417 51Q382 18 339.5 1Q297 -16 235 -16Q181 -16 143.5 -2.5Q106 11 82 34Q58 57 47.5 88.5Q37 120 37 156ZM239 166Q239 150 252.5 140.5Q266 131 293 131Q336 131 363 151Q390 171 406 194V222L281 202Q257 198 248 189.5Q239 181 239 166Z" glyph-name="aring" horiz-adv-x="671" unicode="&#229;" /><glyph d="M124 423H290L395 246L391 444V780H533V444L530 246L635 423H801L512 -14H412Z" glyph-name="arrowdown" horiz-adv-x="929" unicode="&#8595;" /><glyph d="M31 437 500 706V551L310 453L522 456H882V324H522L310 327L500 229V74L31 343Z" glyph-name="arrowleft" horiz-adv-x="929" unicode="&#8592;" /><glyph d="M897 343 429 74V229L619 327L406 324H46V456H406L619 453L429 551V706L897 437Z" glyph-name="arrowright" horiz-adv-x="929" unicode="&#8594;" /><glyph d="M512 794 801 357H635L530 534L533 336V0H391V336L395 534L290 357H124L412 794Z" glyph-name="arrowup" horiz-adv-x="929" unicode="&#8593;" /><glyph d="M285 520 223 384H16L228 796H400L611 384H405L342 520L314 585Z" glyph-name="asciicircum" horiz-adv-x="628" unicode="^" /><glyph d="M24 362Q39 388 62 409Q82 426 111.5 441Q141 456 183 456Q228 456 256.5 443Q285 430 306 414Q327 398 343 384.5Q359 371 379 371Q396 370 409 375Q422 380 432 387Q443 394 453 404L520 307Q505 280 482 259Q462 241 432.5 226.5Q403 212 361 212Q315 212 286 225.5Q257 239 236.5 255Q216 271 200 284.5Q184 298 165 298Q148 298 135 293.5Q122 289 112 283.5Q102 278 96.5 272.5Q91 267 91 266Z" glyph-name="asciitilde" horiz-adv-x="546" unicode="~" /><glyph d="M235 780 227 700 308 731 343 630 258 610 314 549 223 487 179 557 134 486 42 548 98 610 15 630 48 730 129 699 120 780Z" glyph-name="asterisk" horiz-adv-x="356" unicode="*" /><glyph d="M657 334Q651 354 630.5 367Q610 380 578 380Q559 380 541.5 376.5Q524 373 511 363Q498 353 490.5 335Q483 317 483 289Q483 251 500.5 230.5Q518 210 555 210Q588 210 611.5 223Q635 236 647 256ZM627 800Q759 800 856.5 771Q954 742 1018 689Q1082 636 1113 562Q1144 488 1144 398Q1144 330 1124 267Q1104 204 1064.5 155.5Q1025 107 965 78Q905 49 825 49Q809 49 788.5 52Q768 55 748.5 63.5Q729 72 712.5 87.5Q696 103 687 128Q682 113 670.5 97.5Q659 82 638 69.5Q617 57 585 49Q553 41 509 42Q464 43 424.5 57Q385 71 356 98.5Q327 126 310.5 168Q294 210 294 267Q294 342 319 395Q344 448 382.5 482Q421 516 468.5 532Q516 548 561 548Q595 548 618.5 542.5Q642 537 657.5 529.5Q673 522 681.5 514.5Q690 507 693 503L705 530H870L838 253Q836 235 844 223.5Q852 212 868 212Q881 212 897.5 221Q914 230 927.5 252Q941 274 950.5 309.5Q960 345 960 398Q960 525 878 580.5Q796 636 623 636Q544 636 471.5 616Q399 596 344 551Q289 506 256.5 432.5Q224 359 224 252Q224 163 254.5 104.5Q285 46 337 11.5Q389 -23 457.5 -37.5Q526 -52 602 -52Q664 -52 711.5 -44Q759 -36 794 -23Q829 -10 853.5 6Q878 22 893 37L1064 -45Q1004 -130 884.5 -173Q765 -216 594 -216Q462 -216 358.5 -187Q255 -158 183 -99.5Q111 -41 73 47Q35 135 35 252Q35 374 80 475Q125 576 204.5 648Q284 720 392 760Q500 800 627 800Z" glyph-name="at" horiz-adv-x="1170" unicode="@" /><glyph d="M657 388Q651 408 630.5 421Q610 434 578 434Q559 434 541.5 430.5Q524 427 511 417Q498 407 490.5 389Q483 371 483 343Q483 305 500.5 284.5Q518 264 555 264Q588 264 611.5 277Q635 290 647 310ZM627 854Q759 854 856.5 825Q954 796 1018 743Q1082 690 1113 616Q1144 542 1144 452Q1144 384 1124 321Q1104 258 1064.5 209.5Q1025 161 965 132Q905 103 825 103Q809 103 788.5 106Q768 109 748.5 117.5Q729 126 712.5 141.5Q696 157 687 182Q682 167 670.5 151.5Q659 136 638 123.5Q617 111 585 103Q553 95 509 96Q464 97 424.5 111Q385 125 356 152.5Q327 180 310.5 222Q294 264 294 321Q294 396 319 449Q344 502 382.5 536Q421 570 468.5 586Q516 602 561 602Q595 602 618.5 596.5Q642 591 657.5 583.5Q673 576 681.5 568.5Q690 561 693 557L705 584H870L838 307Q836 289 844 277.5Q852 266 868 266Q881 266 897.5 275Q914 284 927.5 306Q941 328 950.5 363.5Q960 399 960 452Q960 579 878 634.5Q796 690 623 690Q544 690 471.5 670Q399 650 344 605Q289 560 256.5 486.5Q224 413 224 306Q224 217 254.5 158.5Q285 100 337 65.5Q389 31 457.5 16.5Q526 2 602 2Q664 2 711.5 10Q759 18 794 31Q829 44 853.5 60Q878 76 893 91L1064 9Q1004 -76 884.5 -119Q765 -162 594 -162Q462 -162 358.5 -133Q255 -104 183 -45.5Q111 13 73 101Q35 189 35 306Q35 428 80 529Q125 630 204.5 702Q284 774 392 814Q500 854 627 854Z" glyph-name="at.cap" horiz-adv-x="1170" unicode="&#58643;" /><glyph d="M406 576Q366 576 340 588Q314 600 295 614Q276 628 261.5 640Q247 652 230 652Q216 652 209 644.5Q202 637 198 628Q194 617 193 605L69 620Q73 656 84 691Q95 726 116 754Q137 782 168.5 799Q200 816 244 816Q284 816 310 804Q336 792 355 778Q374 764 388.5 752Q403 740 420 740Q433 740 440.5 747Q448 754 452 763Q456 774 457 787L581 772Q577 736 566 701Q555 666 534 638Q513 610 481.5 593Q450 576 406 576ZM37 156Q37 199 52.5 228.5Q68 258 95.5 277Q123 296 161 306.5Q199 317 244 323L406 344V353Q406 368 386 380.5Q366 393 319 393Q273 393 249.5 376.5Q226 360 215 332L54 410Q65 434 82.5 458Q100 482 131 501.5Q162 521 210.5 533.5Q259 546 331 546Q392 546 441 534Q490 522 524.5 496.5Q559 471 577.5 431.5Q596 392 596 338V175Q596 138 628 138Q636 138 641.5 139Q647 140 649 141V0Q639 -6 619 -11Q599 -16 563 -16Q520 -16 480 -2.5Q440 11 417 51Q382 18 339.5 1Q297 -16 235 -16Q181 -16 143.5 -2.5Q106 11 82 34Q58 57 47.5 88.5Q37 120 37 156ZM239 166Q239 150 252.5 140.5Q266 131 293 131Q336 131 363 151Q390 171 406 194V222L281 202Q257 198 248 189.5Q239 181 239 166Z" glyph-name="atilde" horiz-adv-x="671" unicode="&#227;" /><glyph d="M461 265Q461 296 452 317.5Q443 339 428.5 353Q414 367 395 373.5Q376 380 356 380Q318 380 290 365.5Q262 351 250 328V202Q262 179 290 164.5Q318 150 356 150Q376 150 395 156.5Q414 163 428.5 177Q443 191 452 213Q461 235 461 265ZM250 486Q265 507 304.5 526.5Q344 546 402 546Q525 546 591.5 475Q658 404 658 265Q658 126 591.5 55Q525 -16 402 -16Q351 -16 307 2.5Q263 21 236 57L224 0H59V772L250 800Z" glyph-name="b" horiz-adv-x="691" unicode="b" /><glyph d="M8 893H202L447 -67H253Z" glyph-name="backslash" horiz-adv-x="455" unicode="\" /><glyph d="M25 800H219L429 -20H235Z" glyph-name="backslash.cap" horiz-adv-x="453" unicode="&#58466;" /><glyph d="M176 164 278 69 386 170 494 69 596 164 488 265 596 366 494 461 386 360 278 461 176 366 284 265ZM670 0H102V530H670Z" glyph-name="ballotboxwithx" horiz-adv-x="772" unicode="&#9746;" /><glyph d="M266 -130H72V830H266Z" glyph-name="bar" horiz-adv-x="339" unicode="|" /><glyph d="M266 -20H72V800H266Z" glyph-name="bar.cap" horiz-adv-x="339" unicode="&#58467;" /><glyph d="M91 390Q91 474 125.5 548Q160 622 219 677Q278 732 358 764Q438 796 528 796Q618 796 698 764Q778 732 837 677Q896 622 930.5 548Q965 474 965 390Q965 306 930.5 232Q896 158 837 103Q778 48 698 16Q618 -16 528 -16Q438 -16 358 16Q278 48 219 103Q160 158 125.5 232Q91 306 91 390Z" glyph-name="blackcircle" horiz-adv-x="1056" unicode="&#9679;" /><glyph d="M676 0H106V530H676Z" glyph-name="blacksmallsquare" horiz-adv-x="781" unicode="&#9642;" /><glyph d="M945 0H106V780H945Z" glyph-name="blacksquare" horiz-adv-x="1049" unicode="&#9632;" /><glyph d="M29 433Q55 433 69.5 444Q84 455 84 481V633Q84 668 93 704.5Q102 741 127 770.5Q152 800 196.5 819Q241 838 312 838H357V670H331Q307 670 291 660Q275 650 275 625V483Q275 445 258.5 409.5Q242 374 207 350Q242 327 258.5 291.5Q275 256 275 218V75Q275 50 291 40Q307 30 331 30H357V-138H312Q241 -138 196.5 -119Q152 -100 127 -70.5Q102 -41 93 -4.5Q84 32 84 67V221Q84 246 69.5 257Q55 268 29 268H6V433Z" glyph-name="braceleft" horiz-adv-x="363" unicode="{" /><glyph d="M29 473Q55 473 69.5 484Q84 495 84 521V673Q84 708 93 744.5Q102 781 127 810.5Q152 840 196.5 859Q241 878 312 878H357V710H331Q307 710 291 700Q275 690 275 665V523Q275 485 258.5 449.5Q242 414 207 390Q242 367 258.5 331.5Q275 296 275 258V115Q275 90 291 80Q307 70 331 70H357V-98H312Q241 -98 196.5 -79Q152 -60 127 -30.5Q102 -1 93 35.5Q84 72 84 107V261Q84 286 69.5 297Q55 308 29 308H6V473Z" glyph-name="braceleft.cap" horiz-adv-x="363" unicode="&#58517;" /><glyph d="M333 267Q309 267 293.5 256Q278 245 278 219V67Q278 32 269 -4.5Q260 -41 235 -70.5Q210 -100 166 -119Q122 -138 52 -138H8V30H31Q57 30 72 40Q87 50 87 75V217Q87 255 103.5 290.5Q120 326 156 350Q120 373 103.5 408.5Q87 444 87 482V625Q87 650 72 660Q57 670 31 670H8V838H52Q122 838 166 819Q210 800 235 770.5Q260 741 269 704.5Q278 668 278 633V479Q278 454 293.5 443Q309 432 333 432H358V267Z" glyph-name="braceright" horiz-adv-x="363" unicode="}" /><glyph d="M333 307Q309 307 293.5 296Q278 285 278 259V107Q278 72 269 35.5Q260 -1 235 -30.5Q210 -60 166 -79Q122 -98 52 -98H8V70H31Q57 70 72 80Q87 90 87 115V257Q87 295 103.5 330.5Q120 366 156 390Q120 413 103.5 448.5Q87 484 87 522V665Q87 690 72 700Q57 710 31 710H8V878H52Q122 878 166 859Q210 840 235 810.5Q260 781 269 744.5Q278 708 278 673V519Q278 494 293.5 483Q309 472 333 472H358V307Z" glyph-name="braceright.cap" horiz-adv-x="363" unicode="&#58518;" /><glyph d="M265 38H322V-130H70V830H322V662H265Z" glyph-name="bracketleft" horiz-adv-x="336" unicode="[" /><glyph d="M265 78H322V-90H70V870H322V702H265Z" glyph-name="bracketleft.cap" horiz-adv-x="336" unicode="&#58515;" /><glyph d="M72 662H16V830H266V-130H16V38H72Z" glyph-name="bracketright" horiz-adv-x="336" unicode="]" /><glyph d="M72 702H16V870H266V-90H16V78H72Z" glyph-name="bracketright.cap" horiz-adv-x="336" unicode="&#58516;" /><glyph d="M295 576Q236 576 195 591Q154 606 128.5 634.5Q103 663 92 704.5Q81 746 82 800H222Q221 766 238.5 752Q256 738 295 738Q334 738 351.5 752Q369 766 368 800H508Q509 746 498 704.5Q487 663 461.5 634.5Q436 606 395 591Q354 576 295 576Z" glyph-name="breve" horiz-adv-x="590" unicode="&#728;" /><glyph d="M295 806Q236 806 195 821Q154 836 128.5 864.5Q103 893 92 934.5Q81 976 82 1030H222Q221 996 238.5 982Q256 968 295 968Q334 968 351.5 982Q369 996 368 1030H508Q509 976 498 934.5Q487 893 461.5 864.5Q436 836 395 821Q354 806 295 806Z" glyph-name="breve.cap" horiz-adv-x="590" unicode="&#58406;" /><glyph d="M266 406H72V830H266ZM266 -130H72V294H266Z" glyph-name="brokenbar" horiz-adv-x="339" unicode="&#166;" /><glyph d="M266 334V-20H72V334ZM266 446H72V800H266Z" glyph-name="brokenbar.cap" horiz-adv-x="339" unicode="&#58469;" /><glyph d="M49 335Q49 364 60 389.5Q71 415 90 434Q109 453 134.5 464Q160 475 189 475Q218 475 243.5 464Q269 453 288 434Q307 415 318 389.5Q329 364 329 335Q329 306 318 280.5Q307 255 288 236Q269 217 243.5 206Q218 195 189 195Q160 195 134.5 206Q109 217 90 236Q71 255 60 280.5Q49 306 49 335Z" glyph-name="bullet" horiz-adv-x="378" unicode="&#8226;" /><glyph d="M49 390Q49 419 60 444.5Q71 470 90 489Q109 508 134.5 519Q160 530 189 530Q218 530 243.5 519Q269 508 288 489Q307 470 318 444.5Q329 419 329 390Q329 361 318 335.5Q307 310 288 291Q269 272 243.5 261Q218 250 189 250Q160 250 134.5 261Q109 272 90 291Q71 310 60 335.5Q49 361 49 390Z" glyph-name="bullet.cap" horiz-adv-x="378" unicode="&#58470;" /><glyph d="M164 339Q164 282 187 232.5Q210 183 249.5 146.5Q289 110 342.5 88.5Q396 67 457 67Q517 67 570.5 88.5Q624 110 663.5 146.5Q703 183 726 232.5Q749 282 749 339Q749 396 726 445.5Q703 495 663.5 532Q624 569 570.5 590.5Q517 612 457 612Q396 612 342.5 590.5Q289 569 249.5 532Q210 495 187 445.5Q164 396 164 339ZM351 390Q351 421 363.5 448.5Q376 476 397.5 496Q419 516 448 528Q477 540 511 540Q544 540 573.5 528Q603 516 625 496Q647 476 659.5 448.5Q672 421 672 390Q672 359 659.5 331.5Q647 304 625 284Q603 264 573.5 252Q544 240 511 240Q477 240 448 252Q419 264 397.5 284Q376 304 363.5 331.5Q351 359 351 390ZM82 390Q82 473 115.5 546Q149 619 207 673Q265 727 343.5 758.5Q422 790 511 790Q600 790 678.5 758.5Q757 727 815.5 673Q874 619 908 546Q942 473 942 390Q942 307 908 234Q874 161 815.5 107Q757 53 678.5 21.5Q600 -10 511 -10Q422 -10 343.5 21.5Q265 53 207 107Q149 161 115.5 234Q82 307 82 390Z" glyph-name="bullseye" horiz-adv-x="1023" unicode="&#9678;" /><glyph d="M34 265Q34 404 111.5 475Q189 546 333 546Q391 546 434.5 534.5Q478 523 509.5 503.5Q541 484 561 458.5Q581 433 593 406L420 322Q412 342 391 361.5Q370 381 334 381Q283 381 254 354.5Q225 328 225 265Q225 202 254 175.5Q283 149 334 149Q370 149 391 168.5Q412 188 420 208L593 124Q581 97 561 71.5Q541 46 509.5 26.5Q478 7 434.5 -4.5Q391 -16 333 -16Q189 -16 111.5 55Q34 126 34 265Z" glyph-name="c" horiz-adv-x="615" unicode="c" /><glyph d="M519 800 408 592H229L323 800ZM34 265Q34 404 111.5 475Q189 546 333 546Q391 546 434.5 534.5Q478 523 509.5 503.5Q541 484 561 458.5Q581 433 593 406L420 322Q412 342 391 361.5Q370 381 334 381Q283 381 254 354.5Q225 328 225 265Q225 202 254 175.5Q283 149 334 149Q370 149 391 168.5Q412 188 420 208L593 124Q581 97 561 71.5Q541 46 509.5 26.5Q478 7 434.5 -4.5Q391 -16 333 -16Q189 -16 111.5 55Q34 126 34 265Z" glyph-name="cacute" horiz-adv-x="615" unicode="&#263;" /><glyph d="M531 800 373 592H217L59 800H242L295 741L348 800Z" glyph-name="caron" horiz-adv-x="590" unicode="&#711;" /><glyph d="M531 1030 373 822H217L59 1030H242L295 971L348 1030Z" glyph-name="caron.cap" horiz-adv-x="590" unicode="&#58413;" /><glyph d="M434 800 371 592H216L243 800Z" glyph-name="caronSlovak" horiz-adv-x="590" unicode="&#58387;" /><glyph d="M559 800 401 592H245L87 800H270L323 741L376 800ZM34 265Q34 404 111.5 475Q189 546 333 546Q391 546 434.5 534.5Q478 523 509.5 503.5Q541 484 561 458.5Q581 433 593 406L420 322Q412 342 391 361.5Q370 381 334 381Q283 381 254 354.5Q225 328 225 265Q225 202 254 175.5Q283 149 334 149Q370 149 391 168.5Q412 188 420 208L593 124Q581 97 561 71.5Q541 46 509.5 26.5Q478 7 434.5 -4.5Q391 -16 333 -16Q189 -16 111.5 55Q34 126 34 265Z" glyph-name="ccaron" horiz-adv-x="615" unicode="&#269;" /><glyph d="M34 265Q34 404 111.5 475Q189 546 333 546Q391 546 434.5 534.5Q478 523 509.5 503.5Q541 484 561 458.5Q581 433 593 406L420 322Q412 342 391 361.5Q370 381 334 381Q283 381 254 354.5Q225 328 225 265Q225 202 254 175.5Q283 149 334 149Q370 149 391 168.5Q412 188 420 208L593 124Q582 99 564.5 75.5Q547 52 520 33.5Q493 15 456.5 2.5Q420 -10 372 -14L367 -33Q418 -44 447.5 -67Q477 -90 472 -132Q469 -154 457.5 -170Q446 -186 428 -196Q410 -206 387 -211Q364 -216 339 -216Q286 -216 254 -207Q222 -198 210 -193L235 -117Q242 -120 250 -124Q266 -131 285 -134Q305 -137 319 -133Q333 -129 333 -113Q333 -99 312 -89Q291 -79 255 -75L276 -13Q158 1 96 70.5Q34 140 34 265Z" glyph-name="ccedilla" horiz-adv-x="615" unicode="&#231;" /><glyph d="M87 592 245 800H401L559 592H376L323 651L270 592ZM34 265Q34 404 111.5 475Q189 546 333 546Q391 546 434.5 534.5Q478 523 509.5 503.5Q541 484 561 458.5Q581 433 593 406L420 322Q412 342 391 361.5Q370 381 334 381Q283 381 254 354.5Q225 328 225 265Q225 202 254 175.5Q283 149 334 149Q370 149 391 168.5Q412 188 420 208L593 124Q581 97 561 71.5Q541 46 509.5 26.5Q478 7 434.5 -4.5Q391 -16 333 -16Q189 -16 111.5 55Q34 126 34 265Z" glyph-name="ccircumflex" horiz-adv-x="615" unicode="&#265;" /><glyph d="M213 690Q213 713 221.5 733Q230 753 245 768Q260 783 280 791.5Q300 800 323 800Q346 800 366 791.5Q386 783 401 768Q416 753 424.5 733Q433 713 433 690Q433 667 424.5 647Q416 627 401 612Q386 597 366 588.5Q346 580 323 580Q300 580 280 588.5Q260 597 245 612Q230 627 221.5 647Q213 667 213 690ZM34 265Q34 404 111.5 475Q189 546 333 546Q391 546 434.5 534.5Q478 523 509.5 503.5Q541 484 561 458.5Q581 433 593 406L420 322Q412 342 391 361.5Q370 381 334 381Q283 381 254 354.5Q225 328 225 265Q225 202 254 175.5Q283 149 334 149Q370 149 391 168.5Q412 188 420 208L593 124Q581 97 561 71.5Q541 46 509.5 26.5Q478 7 434.5 -4.5Q391 -16 333 -16Q189 -16 111.5 55Q34 126 34 265Z" glyph-name="cdotaccent" horiz-adv-x="615" unicode="&#267;" /><glyph d="M325 12 313 -33Q364 -44 393.5 -67Q423 -90 418 -132Q415 -154 403.5 -170Q392 -186 374 -196Q356 -206 333 -211Q310 -216 285 -216Q232 -216 200 -207Q168 -198 156 -193L181 -117Q188 -120 196 -124Q212 -131 231 -134Q251 -137 265 -133Q279 -129 279 -113Q279 -99 258 -89Q237 -79 201 -75L231 12Z" glyph-name="cedilla" horiz-adv-x="590" unicode="&#184;" /><glyph d="M225 379Q225 329 239 302L294 492Q261 481 243 455.5Q225 430 225 379ZM152 0 188 122Q114 152 74 217Q34 282 34 379Q34 516 113.5 587.5Q193 659 336 660Q337 660 342 660.5Q347 661 344 661L374 764H506L470 639Q523 622 552.5 589.5Q582 557 593 519L420 435Q416 442 417 457L361 267Q384 274 398.5 290Q413 306 420 322L593 238Q584 209 565 183Q546 157 515 138Q484 119 440 108Q396 97 338 97Q332 97 325.5 97Q319 97 313 96L284 0Z" glyph-name="cent" horiz-adv-x="626" unicode="&#162;" /><glyph d="M59 592 217 800H373L531 592H348L295 651L242 592Z" glyph-name="circumflex" horiz-adv-x="590" unicode="&#710;" /><glyph d="M59 822 217 1030H373L531 822H348L295 881L242 822Z" glyph-name="circumflex.cap" horiz-adv-x="590" unicode="&#58403;" /><glyph d="M371 0Q390 37 404.5 73Q419 109 429.5 147Q440 185 447 227Q454 269 458 320L456 321Q442 290 421 261Q400 232 373 209.5Q346 187 313 173.5Q280 160 240 160Q201 160 166.5 173.5Q132 187 106.5 210.5Q81 234 66 265.5Q51 297 51 334Q51 373 64.5 406Q78 439 103 463Q128 487 162 500.5Q196 514 238 514Q266 514 287.5 507Q309 500 328 491L330 493Q313 518 301.5 547.5Q290 577 290 610Q290 647 304.5 680Q319 713 344 737.5Q369 762 403.5 776Q438 790 479 790Q519 790 554 776Q589 762 614 737.5Q639 713 653.5 680Q668 647 668 610Q668 577 657 547.5Q646 518 627 493L629 491Q648 500 670 507Q692 514 719 514Q761 514 796 500.5Q831 487 856 463Q881 439 894.5 406Q908 373 908 334Q908 297 893 265.5Q878 234 852 210.5Q826 187 791.5 173.5Q757 160 717 160Q677 160 644 173.5Q611 187 584 209.5Q557 232 536.5 261Q516 290 503 321L499 320Q503 269 510 227Q517 185 527.5 147Q538 109 552.5 73Q567 37 587 0Z" glyph-name="club" horiz-adv-x="957" unicode="&#9827;" /><glyph d="M10 397Q10 421 19 441.5Q28 462 43 477.5Q58 493 78.5 502Q99 511 123 511Q147 511 167.5 502Q188 493 203.5 477.5Q219 462 228 441.5Q237 421 237 397Q237 373 228 352.5Q219 332 203.5 317Q188 302 167.5 293Q147 284 123 284Q99 284 78.5 293Q58 302 43 317Q28 332 19 352.5Q10 373 10 397ZM10 101Q10 124 19 144.5Q28 165 43 180.5Q58 196 78.5 205Q99 214 123 214Q147 214 167.5 205Q188 196 203.5 180.5Q219 165 228 144.5Q237 124 237 101Q237 77 228 56.5Q219 36 203.5 20.5Q188 5 167.5 -4Q147 -13 123 -13Q99 -13 78.5 -4Q58 5 43 20.5Q28 36 19 56.5Q10 77 10 101Z" glyph-name="colon" horiz-adv-x="247" unicode=":" /><glyph d="M230 186 134 -105H-18L17 186Z" glyph-name="comma" horiz-adv-x="247" unicode="," /><glyph d="M391 -62 356 -200H189L200 -62Z" glyph-name="commaaccent" horiz-adv-x="590" unicode="&#58388;" /><glyph d="M196 822 249 1030H404L387 822Z" glyph-name="commaaccent.cap" horiz-adv-x="590" unicode="&#58414;" /><glyph d="M153 390Q153 325 179 268.5Q205 212 249.5 170Q294 128 354 103.5Q414 79 482 79Q550 79 610 103.5Q670 128 714.5 170Q759 212 785 268.5Q811 325 811 390Q811 454 785 511Q759 568 714.5 610Q670 652 610 676.5Q550 701 482 701Q414 701 354 676.5Q294 652 249.5 610Q205 568 179 511Q153 454 153 390ZM49 390Q49 474 83 547.5Q117 621 176 675.5Q235 730 313.5 762Q392 794 482 794Q572 794 650.5 762Q729 730 788 675.5Q847 621 881 547.5Q915 474 915 390Q915 306 881 232.5Q847 159 788 104.5Q729 50 650.5 18Q572 -14 482 -14Q392 -14 313.5 18Q235 50 176 104.5Q117 159 83 232.5Q49 306 49 390ZM226 390Q226 453 244.5 500.5Q263 548 297.5 579.5Q332 611 379.5 627Q427 643 486 643Q538 643 577 631.5Q616 620 644 601Q672 582 690 557Q708 532 717 505L593 445Q587 458 578 472Q569 486 556 497.5Q543 509 525.5 516Q508 523 485 523Q460 523 438.5 516Q417 509 400.5 493Q384 477 374.5 451.5Q365 426 365 390Q365 354 374.5 328.5Q384 303 400.5 287Q417 271 438.5 264Q460 257 485 257Q508 257 525.5 264Q543 271 556 282.5Q569 294 578 307.5Q587 321 593 335L717 275Q708 248 690 223Q672 198 644 179Q616 160 577 148.5Q538 137 486 137Q427 137 379.5 153Q332 169 297.5 200.5Q263 232 244.5 279.5Q226 327 226 390Z" glyph-name="copyright" horiz-adv-x="964" unicode="&#169;" /><glyph d="M129 219Q86 287 86 382Q86 434 98 476.5Q110 519 133 552L23 654L125 749L240 642Q275 660 318.5 669Q362 678 411 678Q459 678 502 669Q545 660 581 641L697 749L799 654L688 552Q711 519 723 476.5Q735 434 735 382Q735 332 723.5 291.5Q712 251 692 219L806 114L704 19L590 126Q514 86 411 86Q360 86 315 96Q270 106 232 126L117 19L15 114ZM411 214Q447 214 478.5 223Q510 232 534 252.5Q558 273 571.5 305Q585 337 585 382Q585 427 571.5 459Q558 491 534 511.5Q510 532 478.5 541Q447 550 411 550Q375 550 343 541Q311 532 287 511.5Q263 491 249.5 459Q236 427 236 382Q236 337 249.5 305Q263 273 287 252.5Q311 232 343 223Q375 214 411 214Z" glyph-name="currency" horiz-adv-x="821" unicode="&#164;" /><glyph d="M231 265Q231 235 240 213Q249 191 263.5 177Q278 163 297 156.5Q316 150 336 150Q374 150 402 164.5Q430 179 442 202V328Q430 351 402 365.5Q374 380 336 380Q316 380 297 373.5Q278 367 263.5 353Q249 339 240 317.5Q231 296 231 265ZM453 53Q428 20 384.5 2Q341 -16 290 -16Q167 -16 100.5 55Q34 126 34 265Q34 404 100.5 475Q167 546 290 546Q348 546 387.5 526.5Q427 507 442 486V772L633 800V175Q633 138 665 138Q673 138 678.5 139Q684 140 686 141V0Q676 -6 656 -11Q636 -16 600 -16Q558 -16 516.5 -1Q475 14 453 53Z" glyph-name="d" horiz-adv-x="704" unicode="d" /><glyph d="M251 388H96L124 584L13 574V687L124 677L113 780H234L222 677L334 687V574L222 584Z" glyph-name="dagger" horiz-adv-x="345" unicode="&#8224;" /><glyph d="M334 415 222 425 251 229H96L124 425L13 415V528L124 517L120 551L124 584L13 574V687L124 677L113 780H234L222 677L334 687V574L222 584L225 551L222 517L334 528Z" glyph-name="daggerdbl" horiz-adv-x="346" unicode="&#8225;" /><glyph d="M900 800 819 570H678L707 800ZM231 265Q231 235 240 213Q249 191 263.5 177Q278 163 297 156.5Q316 150 336 150Q374 150 402 164.5Q430 179 442 202V328Q430 351 402 365.5Q374 380 336 380Q316 380 297 373.5Q278 367 263.5 353Q249 339 240 317.5Q231 296 231 265ZM453 53Q428 20 384.5 2Q341 -16 290 -16Q167 -16 100.5 55Q34 126 34 265Q34 404 100.5 475Q167 546 290 546Q348 546 387.5 526.5Q427 507 442 486V772L633 800V175Q633 138 665 138Q673 138 678.5 139Q684 140 686 141V0Q676 -6 656 -11Q636 -16 600 -16Q558 -16 516.5 -1Q475 14 453 53Z" glyph-name="dcaron" horiz-adv-x="754" unicode="&#271;" /><glyph d="M231 265Q231 235 240 213Q249 191 263.5 177Q278 163 297 156.5Q316 150 336 150Q374 150 402 164.5Q430 179 442 202V328Q430 351 402 365.5Q374 380 336 380Q316 380 297 373.5Q278 367 263.5 353Q249 339 240 317.5Q231 296 231 265ZM713 579H633V175Q633 138 665 138Q673 138 678.5 139Q684 140 686 141V0Q676 -6 656 -11Q636 -16 600 -16Q558 -16 516.5 -1Q475 14 453 53Q428 20 384.5 2Q341 -16 290 -16Q167 -16 100.5 55Q34 126 34 265Q34 404 100.5 475Q167 546 290 546Q348 546 387.5 526.5Q427 507 442 486V579H310V703H442V772L633 800V703H713Z" glyph-name="dcroat" horiz-adv-x="704" unicode="&#273;" /><glyph d="M259 408Q214 408 175 419.5Q136 431 108 454Q80 477 64 512Q48 547 48 594Q48 641 64 676Q80 711 108 734Q136 757 175 768.5Q214 780 259 780Q305 780 343.5 768.5Q382 757 410.5 734Q439 711 455 676Q471 641 471 594Q471 547 455 512Q439 477 410.5 454Q382 431 343.5 419.5Q305 408 259 408ZM259 536Q288 536 305.5 550Q323 564 323 594Q323 624 305.5 638Q288 652 259 652Q233 652 214 638Q195 624 195 594Q195 564 214 550Q233 536 259 536Z" glyph-name="degree" horiz-adv-x="520" unicode="&#176;" /><glyph d="M873 390Q816 348 760.5 300.5Q705 253 655 201.5Q605 150 560 96.5Q515 43 479 -10H478Q442 43 397.5 96.5Q353 150 302.5 201.5Q252 253 197 300.5Q142 348 85 390Q142 432 197 479.5Q252 527 302.5 578.5Q353 630 397.5 683.5Q442 737 478 790H479Q515 737 560 683.5Q605 630 655 578.5Q705 527 760.5 479.5Q816 432 873 390Z" glyph-name="diamond" horiz-adv-x="957" unicode="&#9830;" /><glyph d="M310 690Q310 713 318.5 733Q327 753 342 768Q357 783 377 791.5Q397 800 420 800Q443 800 463 791.5Q483 783 498 768Q513 753 521.5 733Q530 713 530 690Q530 667 521.5 647Q513 627 498 612Q483 597 463 588.5Q443 580 420 580Q397 580 377 588.5Q357 597 342 612Q327 627 318.5 647Q310 667 310 690ZM60 690Q60 713 68.5 733Q77 753 92 768Q107 783 127 791.5Q147 800 170 800Q193 800 213 791.5Q233 783 248 768Q263 753 271.5 733Q280 713 280 690Q280 667 271.5 647Q263 627 248 612Q233 597 213 588.5Q193 580 170 580Q147 580 127 588.5Q107 597 92 612Q77 627 68.5 647Q60 667 60 690Z" glyph-name="dieresis" horiz-adv-x="590" unicode="&#168;" /><glyph d="M530 919Q530 873 501.5 845.5Q473 818 420 818Q367 818 338.5 845.5Q310 873 310 919Q310 965 338.5 992.5Q367 1020 420 1020Q473 1020 501.5 992.5Q530 965 530 919ZM280 919Q280 873 251.5 845.5Q223 818 170 818Q117 818 88.5 845.5Q60 873 60 919Q60 965 88.5 992.5Q117 1020 170 1020Q223 1020 251.5 992.5Q280 965 280 919Z" glyph-name="dieresis.cap" horiz-adv-x="590" unicode="&#58409;" /><glyph d="M471 481H271V668H471ZM471 112H271V299H471ZM82 302V478H661V302Z" glyph-name="divide" horiz-adv-x="742" unicode="&#247;" /><glyph d="M471 481H271V668H471ZM471 112H271V299H471ZM82 302V478H661V302Z" glyph-name="divide.cap" horiz-adv-x="742" unicode="&#58772;" /><glyph d="M256 534Q258 508 275.5 494.5Q293 481 342 475L384 617Q382 617 380.5 616.5Q379 616 377 616Q359 616 338 612Q317 608 298.5 598.5Q280 589 268 573Q256 557 256 534ZM530 235Q530 265 506.5 282Q483 299 426 307L379 148V147Q381 148 381 148Q410 148 437 153Q464 158 484.5 168.5Q505 179 517.5 195.5Q530 212 530 235ZM175 -100 206 10Q143 32 104 74Q65 116 45 176L209 256Q217 231 229.5 212.5Q242 194 255 180L297 320Q250 327 208 341Q166 355 134.5 380Q103 405 84 442.5Q65 480 65 535Q65 598 90.5 644.5Q116 691 159.5 721Q203 751 260 765.5Q317 780 379 780Q393 780 405.5 780Q418 780 430 779L455 864H588L556 752Q614 727 651.5 686Q689 645 712 587L545 506Q535 529 525 547.5Q515 566 506 580L472 463Q531 456 577 442Q623 428 654.5 402Q686 376 702.5 335.5Q719 295 719 235Q719 168 690.5 120.5Q662 73 615 42.5Q568 12 507.5 -2Q447 -16 383 -16Q369 -16 356 -16Q343 -16 331 -15L308 -100Z" glyph-name="dollar" horiz-adv-x="765" unicode="$" /><glyph d="M185 690Q185 713 193.5 733Q202 753 217 768Q232 783 252 791.5Q272 800 295 800Q318 800 338 791.5Q358 783 373 768Q388 753 396.5 733Q405 713 405 690Q405 667 396.5 647Q388 627 373 612Q358 597 338 588.5Q318 580 295 580Q272 580 252 588.5Q232 597 217 612Q202 627 193.5 647Q185 667 185 690Z" glyph-name="dotaccent" horiz-adv-x="590" unicode="&#729;" /><glyph d="M405 919Q405 873 376.5 845.5Q348 818 295 818Q242 818 213.5 845.5Q185 873 185 919Q185 965 213.5 992.5Q242 1020 295 1020Q348 1020 376.5 992.5Q405 965 405 919Z" glyph-name="dotaccent.cap" horiz-adv-x="590" unicode="&#58408;" /><glyph d="M405 -120Q405 -165 380 -187.5Q355 -210 295 -210Q235 -210 210 -187.5Q185 -165 185 -120Q185 -75 210 -52.5Q235 -30 295 -30Q355 -30 380 -52.5Q405 -75 405 -120Z" glyph-name="dotbelow" horiz-adv-x="590" unicode="&#58389;" /><glyph d="M58 530H248V0H58Z" glyph-name="dotlessi" horiz-adv-x="306" unicode="&#305;" /><glyph d="M248 -2Q248 -42 239 -80.5Q230 -119 205.5 -149Q181 -179 136.5 -197.5Q92 -216 21 -216Q-24 -216 -57 -207.5Q-90 -199 -109 -188L-92 -29Q-75 -38 -54 -45Q-33 -52 -6 -52Q28 -52 43 -37Q58 -22 58 9V530H248Z" glyph-name="dotlessj" horiz-adv-x="307" unicode="&#567;" /><glyph d="M536 -130H341V830H536ZM266 -130H72V830H266Z" glyph-name="doublebar" horiz-adv-x="608" unicode="&#8214;" /><glyph d="M266 -20H72V800H266ZM536 -20H341V800H536Z" glyph-name="doublebar.cap" horiz-adv-x="608" unicode="&#58468;" /><glyph d="M181 800 275 592H96L-15 800ZM397 800 491 592H312L201 800Z" glyph-name="doublegrave" horiz-adv-x="590" unicode="&#58386;" /><glyph d="M181 1030 275 822H96L-15 1030ZM397 1030 491 822H312L201 1030Z" glyph-name="doublegrave.cap" horiz-adv-x="590" unicode="&#58412;" /><glyph d="M329 393Q290 393 266 376Q242 359 236 328H411Q409 361 387 376.5Q365 392 329 393ZM327 546Q464 546 539.5 474.5Q615 403 615 264V203H234Q236 172 265 154.5Q294 137 345 137Q381 137 407.5 152Q434 167 444 188L603 111Q593 89 573 66.5Q553 44 521 25.5Q489 7 443.5 -4.5Q398 -16 338 -16Q192 -16 113 57Q34 130 34 265Q34 400 111.5 473Q189 546 327 546Z" glyph-name="e" horiz-adv-x="649" unicode="e" /><glyph d="M520 800 409 592H230L324 800ZM329 393Q290 393 266 376Q242 359 236 328H411Q409 361 387 376.5Q365 392 329 393ZM327 546Q464 546 539.5 474.5Q615 403 615 264V203H234Q236 172 265 154.5Q294 137 345 137Q381 137 407.5 152Q434 167 444 188L603 111Q593 89 573 66.5Q553 44 521 25.5Q489 7 443.5 -4.5Q398 -16 338 -16Q192 -16 113 57Q34 130 34 265Q34 400 111.5 473Q189 546 327 546Z" glyph-name="eacute" horiz-adv-x="649" unicode="&#233;" /><glyph d="M324 576Q265 576 224 591Q183 606 157.5 634.5Q132 663 121 704.5Q110 746 111 800H251Q250 766 267.5 752Q285 738 324 738Q363 738 380.5 752Q398 766 397 800H537Q538 746 527 704.5Q516 663 490.5 634.5Q465 606 424 591Q383 576 324 576ZM329 393Q290 393 266 376Q242 359 236 328H411Q409 361 387 376.5Q365 392 329 393ZM327 546Q464 546 539.5 474.5Q615 403 615 264V203H234Q236 172 265 154.5Q294 137 345 137Q381 137 407.5 152Q434 167 444 188L603 111Q593 89 573 66.5Q553 44 521 25.5Q489 7 443.5 -4.5Q398 -16 338 -16Q192 -16 113 57Q34 130 34 265Q34 400 111.5 473Q189 546 327 546Z" glyph-name="ebreve" horiz-adv-x="649" unicode="&#277;" /><glyph d="M560 800 402 592H246L88 800H271L324 741L377 800ZM329 393Q290 393 266 376Q242 359 236 328H411Q409 361 387 376.5Q365 392 329 393ZM327 546Q464 546 539.5 474.5Q615 403 615 264V203H234Q236 172 265 154.5Q294 137 345 137Q381 137 407.5 152Q434 167 444 188L603 111Q593 89 573 66.5Q553 44 521 25.5Q489 7 443.5 -4.5Q398 -16 338 -16Q192 -16 113 57Q34 130 34 265Q34 400 111.5 473Q189 546 327 546Z" glyph-name="ecaron" horiz-adv-x="649" unicode="&#283;" /><glyph d="M88 592 246 800H402L560 592H377L324 651L271 592ZM329 393Q290 393 266 376Q242 359 236 328H411Q409 361 387 376.5Q365 392 329 393ZM327 546Q464 546 539.5 474.5Q615 403 615 264V203H234Q236 172 265 154.5Q294 137 345 137Q381 137 407.5 152Q434 167 444 188L603 111Q593 89 573 66.5Q553 44 521 25.5Q489 7 443.5 -4.5Q398 -16 338 -16Q192 -16 113 57Q34 130 34 265Q34 400 111.5 473Q189 546 327 546Z" glyph-name="ecircumflex" horiz-adv-x="649" unicode="&#234;" /><glyph d="M339 690Q339 713 347.5 733Q356 753 371 768Q386 783 406 791.5Q426 800 449 800Q472 800 492 791.5Q512 783 527 768Q542 753 550.5 733Q559 713 559 690Q559 667 550.5 647Q542 627 527 612Q512 597 492 588.5Q472 580 449 580Q426 580 406 588.5Q386 597 371 612Q356 627 347.5 647Q339 667 339 690ZM89 690Q89 713 97.5 733Q106 753 121 768Q136 783 156 791.5Q176 800 199 800Q222 800 242 791.5Q262 783 277 768Q292 753 300.5 733Q309 713 309 690Q309 667 300.5 647Q292 627 277 612Q262 597 242 588.5Q222 580 199 580Q176 580 156 588.5Q136 597 121 612Q106 627 97.5 647Q89 667 89 690ZM329 393Q290 393 266 376Q242 359 236 328H411Q409 361 387 376.5Q365 392 329 393ZM327 546Q464 546 539.5 474.5Q615 403 615 264V203H234Q236 172 265 154.5Q294 137 345 137Q381 137 407.5 152Q434 167 444 188L603 111Q593 89 573 66.5Q553 44 521 25.5Q489 7 443.5 -4.5Q398 -16 338 -16Q192 -16 113 57Q34 130 34 265Q34 400 111.5 473Q189 546 327 546Z" glyph-name="edieresis" horiz-adv-x="649" unicode="&#235;" /><glyph d="M214 690Q214 713 222.5 733Q231 753 246 768Q261 783 281 791.5Q301 800 324 800Q347 800 367 791.5Q387 783 402 768Q417 753 425.5 733Q434 713 434 690Q434 667 425.5 647Q417 627 402 612Q387 597 367 588.5Q347 580 324 580Q301 580 281 588.5Q261 597 246 612Q231 627 222.5 647Q214 667 214 690ZM329 393Q290 393 266 376Q242 359 236 328H411Q409 361 387 376.5Q365 392 329 393ZM327 546Q464 546 539.5 474.5Q615 403 615 264V203H234Q236 172 265 154.5Q294 137 345 137Q381 137 407.5 152Q434 167 444 188L603 111Q593 89 573 66.5Q553 44 521 25.5Q489 7 443.5 -4.5Q398 -16 338 -16Q192 -16 113 57Q34 130 34 265Q34 400 111.5 473Q189 546 327 546Z" glyph-name="edotaccent" horiz-adv-x="649" unicode="&#279;" /><glyph d="M324 800 418 592H239L128 800ZM329 393Q290 393 266 376Q242 359 236 328H411Q409 361 387 376.5Q365 392 329 393ZM327 546Q464 546 539.5 474.5Q615 403 615 264V203H234Q236 172 265 154.5Q294 137 345 137Q381 137 407.5 152Q434 167 444 188L603 111Q593 89 573 66.5Q553 44 521 25.5Q489 7 443.5 -4.5Q398 -16 338 -16Q192 -16 113 57Q34 130 34 265Q34 400 111.5 473Q189 546 327 546Z" glyph-name="egrave" horiz-adv-x="649" unicode="&#232;" /><glyph d="M372 -16Q200 -16 119.5 44Q39 104 39 218Q39 284 64 329.5Q89 375 137 398Q99 424 79 463.5Q59 503 59 554Q59 618 84 661.5Q109 705 152 731Q195 757 252 768.5Q309 780 372 780Q435 780 492 768.5Q549 757 592 731Q635 705 660 661.5Q685 618 685 554Q685 503 665 463.5Q645 424 607 398Q655 375 680 329.5Q705 284 705 218Q705 104 624.5 44Q544 -16 372 -16ZM372 154Q439 154 477 172.5Q515 191 515 231Q515 258 502.5 275Q490 292 469.5 301.5Q449 311 423.5 314Q398 317 372 317Q346 317 320.5 314Q295 311 274.5 301.5Q254 292 241.5 275Q229 258 229 231Q229 191 267 172.5Q305 154 372 154ZM372 467Q396 467 417.5 469.5Q439 472 455.5 480Q472 488 482 502.5Q492 517 492 541Q492 580 459 594.5Q426 609 372 609Q318 609 285 594.5Q252 580 252 541Q252 517 262 502.5Q272 488 288.5 480Q305 472 326.5 469.5Q348 467 372 467Z" glyph-name="eight" horiz-adv-x="742" unicode="8" /><glyph d="M373 -16Q201 -16 120.5 44Q40 104 40 218Q40 284 65 329.5Q90 375 138 398Q100 424 80 463.5Q60 503 60 554Q60 618 85 661.5Q110 705 153 731Q196 757 253 768.5Q310 780 373 780Q436 780 493 768.5Q550 757 593 731Q636 705 661 661.5Q686 618 686 554Q686 503 666 463.5Q646 424 608 398Q656 375 681 329.5Q706 284 706 218Q706 104 625.5 44Q545 -16 373 -16ZM373 154Q440 154 478 172.5Q516 191 516 231Q516 258 503.5 275Q491 292 470.5 301.5Q450 311 424.5 314Q399 317 373 317Q347 317 321.5 314Q296 311 275.5 301.5Q255 292 242.5 275Q230 258 230 231Q230 191 268 172.5Q306 154 373 154ZM373 467Q397 467 418.5 469.5Q440 472 456.5 480Q473 488 483 502.5Q493 517 493 541Q493 580 460 594.5Q427 609 373 609Q319 609 286 594.5Q253 580 253 541Q253 517 263 502.5Q273 488 289.5 480Q306 472 327.5 469.5Q349 467 373 467Z" glyph-name="eight.LP" horiz-adv-x="746" unicode="&#58685;" /><glyph d="M240 -216Q38 -216 38 -82Q38 -47 49 -25.5Q60 -4 80 10Q51 39 51 89Q51 128 67 154Q83 180 109 195Q135 210 169.5 216.5Q204 223 240 223Q276 223 310 216.5Q344 210 370.5 195Q397 180 412.5 154Q428 128 428 89Q428 39 399 10Q418 -4 429 -25.5Q440 -47 440 -82Q440 -216 240 -216ZM240 -89Q262 -89 275 -84.5Q288 -80 288 -67Q288 -54 273.5 -49.5Q259 -45 240 -45Q220 -45 205.5 -49.5Q191 -54 191 -67Q191 -80 204 -84.5Q217 -89 240 -89ZM240 58Q260 58 273 62.5Q286 67 286 77Q286 88 272.5 92Q259 96 240 96Q220 96 207 92Q194 88 194 77Q194 67 206.5 62.5Q219 58 240 58Z" glyph-name="eight.inf" horiz-adv-x="479" unicode="&#58745;" /><glyph d="M791 101Q791 124 800 144.5Q809 165 824 180.5Q839 196 859.5 205Q880 214 904 214Q928 214 948.5 205Q969 196 984.5 180.5Q1000 165 1009 144.5Q1018 124 1018 101Q1018 77 1009 56.5Q1000 36 984.5 20.5Q969 5 948.5 -4Q928 -13 904 -13Q880 -13 859.5 -4Q839 5 824 20.5Q809 36 800 56.5Q791 77 791 101ZM437 101Q437 124 446 144.5Q455 165 470.5 180.5Q486 196 506.5 205Q527 214 551 214Q575 214 595.5 205Q616 196 631 180.5Q646 165 655 144.5Q664 124 664 101Q664 77 655 56.5Q646 36 631 20.5Q616 5 595.5 -4Q575 -13 551 -13Q527 -13 506.5 -4Q486 5 470.5 20.5Q455 36 446 56.5Q437 77 437 101ZM80 101Q80 124 89 144.5Q98 165 113.5 180.5Q129 196 149.5 205Q170 214 193 214Q217 214 237.5 205Q258 196 273.5 180.5Q289 165 298 144.5Q307 124 307 101Q307 77 298 56.5Q289 36 273.5 20.5Q258 5 237.5 -4Q217 -13 193 -13Q170 -13 149.5 -4Q129 5 113.5 20.5Q98 36 89 56.5Q80 77 80 101Z" glyph-name="ellipsis" horiz-adv-x="1099" unicode="&#8230;" /><glyph d="M158 780H490V616H158ZM329 393Q290 393 266 376Q242 359 236 328H411Q409 361 387 376.5Q365 392 329 393ZM327 546Q464 546 539.5 474.5Q615 403 615 264V203H234Q236 172 265 154.5Q294 137 345 137Q381 137 407.5 152Q434 167 444 188L603 111Q593 89 573 66.5Q553 44 521 25.5Q489 7 443.5 -4.5Q398 -16 338 -16Q192 -16 113 57Q34 130 34 265Q34 400 111.5 473Q189 546 327 546Z" glyph-name="emacron" horiz-adv-x="649" unicode="&#275;" /><glyph d="M1025 254H40V419H1025Z" glyph-name="emdash" horiz-adv-x="1065" unicode="&#8212;" /><glyph d="M1025 308H40V473H1025Z" glyph-name="emdash.cap" horiz-adv-x="1065" unicode="&#58502;" /><glyph glyph-name="emspace" horiz-adv-x="1075" unicode="&#8195;" /><glyph d="M40 254V419H487V254Z" glyph-name="endash" horiz-adv-x="528" unicode="&#8211;" /><glyph d="M40 308V473H487V308Z" glyph-name="endash.cap" horiz-adv-x="528" unicode="&#58500;" /><glyph d="M421 546Q464 546 501 535Q538 524 565 500Q592 476 607 438.5Q622 401 622 349V-2Q622 -42 613 -80.5Q604 -119 579.5 -149Q555 -179 510.5 -197.5Q466 -216 395 -216Q350 -216 317 -207.5Q284 -199 265 -188L282 -29Q299 -38 320 -45Q341 -52 368 -52Q402 -52 417 -37Q432 -22 432 9V326Q432 352 413.5 366Q395 380 362 380Q320 380 288.5 364.5Q257 349 242 329V0H52V530H217L228 469Q259 507 306.5 526.5Q354 546 421 546Z" glyph-name="eng" horiz-adv-x="670" unicode="&#331;" /><glyph glyph-name="enspace" horiz-adv-x="538" unicode="&#8194;" /><glyph d="M329 393Q290 393 266 376Q242 359 236 328H411Q409 361 387 376.5Q365 392 329 393ZM327 546Q464 546 539.5 474.5Q615 403 615 264V203H234Q236 172 265 154.5Q294 137 345 137Q381 137 407.5 152Q434 167 444 188L603 111Q585 73 556.5 50Q528 27 485 8Q447 -9 429 -32Q411 -55 414 -73Q416 -82 424.5 -90Q433 -98 457 -93Q471 -90 482 -84Q487 -81 493 -77L527 -191Q511 -201 483.5 -208.5Q456 -216 422 -216Q368 -216 334.5 -195Q301 -174 289 -125Q281 -96 288 -68Q295 -40 311 -15Q177 -8 105.5 64Q34 136 34 265Q34 400 111.5 473Q189 546 327 546Z" glyph-name="eogonek" horiz-adv-x="649" unicode="&#281;" /><glyph d="M82 438V613H661V438ZM82 167V342H661V167Z" glyph-name="equal" horiz-adv-x="742" unicode="=" /><glyph d="M82 438V613H661V438ZM82 167V342H661V167Z" glyph-name="equal.cap" horiz-adv-x="742" unicode="&#58773;" /><glyph d="M33 39V198H389V39ZM33 -153V7H389V-153Z" glyph-name="equal.inf" horiz-adv-x="422" unicode="&#58749;" /><glyph d="M428 689Q360 689 314 669.5Q268 650 239.5 615.5Q211 581 197.5 534.5Q184 488 180 433H673Q670 488 656.5 534.5Q643 581 614.5 615.5Q586 650 540.5 669.5Q495 689 428 689ZM829 260Q818 188 784.5 136.5Q751 85 699 51.5Q647 18 578 2Q509 -14 427 -14Q334 -14 257.5 14Q181 42 125.5 94Q70 146 39.5 219.5Q9 293 9 385Q9 476 39.5 550Q70 624 125.5 676Q181 728 257.5 756Q334 784 427 784Q519 784 596 756Q673 728 728.5 676Q784 624 814.5 550Q845 476 845 385V337H179Q183 282 197 235.5Q211 189 239.5 154.5Q268 120 314 100.5Q360 81 428 81Q666 81 704 260Z" glyph-name="estimated" horiz-adv-x="854" unicode="&#8494;" /><glyph d="M326 149Q372 149 398 174.5Q424 200 424 265Q424 330 398 355.5Q372 381 326 381Q280 381 254 355.5Q228 330 228 265Q228 200 254 174.5Q280 149 326 149ZM496 665Q547 604 582 504Q617 404 617 265Q617 127 539 56Q461 -15 326 -15Q191 -15 112.5 56Q34 127 34 265Q34 336 56 389Q78 442 114.5 477Q151 512 199.5 529Q248 546 301 546Q325 546 345 543.5Q365 541 376 533Q367 553 354.5 572Q342 591 327 608L110 533V649L240 692Q186 732 130 757Q74 782 32 800H322Q363 780 408 749L553 797V685Z" glyph-name="eth" horiz-adv-x="652" unicode="&#240;" /><glyph d="M35 101Q35 124 44 144.5Q53 165 68.5 180.5Q84 196 104.5 205Q125 214 149 214Q173 214 193.5 205Q214 196 229 180.5Q244 165 253 144.5Q262 124 262 101Q262 77 253 56.5Q244 36 229 20.5Q214 5 193.5 -4Q173 -13 149 -13Q125 -13 104.5 -4Q84 5 68.5 20.5Q53 36 44 56.5Q35 77 35 101ZM255 780 225 252H73L42 780Z" glyph-name="exclam" horiz-adv-x="298" unicode="!" /><glyph d="M262 429Q262 406 253 385.5Q244 365 229 349.5Q214 334 193.5 325Q173 316 149 316Q125 316 104.5 325Q84 334 68.5 349.5Q53 365 44 385.5Q35 406 35 429Q35 453 44 473.5Q53 494 68.5 509.5Q84 525 104.5 534Q125 543 149 543Q173 543 193.5 534Q214 525 229 509.5Q244 494 253 473.5Q262 453 262 429ZM46 -200 73 278H225L253 -200Z" glyph-name="exclamdown" horiz-adv-x="299" unicode="&#161;" /><glyph d="M35 679Q35 703 44 723.5Q53 744 68.5 759.5Q84 775 104.5 784Q125 793 149 793Q173 793 193.5 784Q214 775 229 759.5Q244 744 253 723.5Q262 703 262 679Q262 656 253 635.5Q244 615 229 599.5Q214 584 193.5 575Q173 566 149 566Q125 566 104.5 575Q84 584 68.5 599.5Q53 615 44 635.5Q35 656 35 679ZM42 0 73 528H225L255 0Z" glyph-name="exclamdown.cap" horiz-adv-x="298" unicode="&#58433;" /><glyph d="M21 530H131V602Q131 642 140 680.5Q149 719 173.5 749Q198 779 242.5 797.5Q287 816 358 816Q403 816 436 807.5Q469 799 488 788L471 629Q454 638 433 645Q412 652 385 652Q351 652 336 637Q321 622 321 591V530H466V371H321V0H131V371L21 383Z" glyph-name="f" horiz-adv-x="492" unicode="f" /><glyph d="M550 530H740V0H550ZM21 530H131V602Q131 642 140 680.5Q149 719 173.5 749Q198 779 242.5 797.5Q287 816 358 816Q403 816 436 807.5Q469 799 488 788L471 629Q454 638 433 645Q412 652 385 652Q351 652 336 637Q321 622 321 591V530H466V371H321V0H131V371L21 383Z" glyph-name="f_dotlessi" horiz-adv-x="798" unicode="&#59248;" /><glyph d="M535 690Q535 713 543.5 733Q552 753 567 768Q582 783 602 791.5Q622 800 645 800Q668 800 688 791.5Q708 783 723 768Q738 753 746.5 733Q755 713 755 690Q755 667 746.5 647Q738 627 723 612Q708 597 688 588.5Q668 580 645 580Q622 580 602 588.5Q582 597 567 612Q552 627 543.5 647Q535 667 535 690ZM550 530H740V0H550ZM21 530H131V602Q131 642 140 680.5Q149 719 173.5 749Q198 779 242.5 797.5Q287 816 358 816Q403 816 436 807.5Q469 799 488 788L471 629Q454 638 433 645Q412 652 385 652Q351 652 336 637Q321 622 321 591V530H466V371H321V0H131V371L21 383Z" glyph-name="fi" horiz-adv-x="798" unicode="&#64257;" /><glyph d="M703 254H40V419H703Z" glyph-name="figuredash" horiz-adv-x="742" unicode="&#8210;" /><glyph d="M703 308H40V473H703Z" glyph-name="figuredash.cap" horiz-adv-x="742" unicode="&#58503;" /><glyph glyph-name="figurespace" horiz-adv-x="752" unicode="&#8199;" /><glyph d="M217 257Q240 208 278.5 180.5Q317 153 380 153Q405 153 427.5 159Q450 165 466.5 178.5Q483 192 493 212.5Q503 233 503 262Q503 316 471 345.5Q439 375 380 375Q332 375 293.5 358.5Q255 342 233 307L70 340L115 764H654V596H290L278 496Q298 512 334.5 523Q371 534 420 534Q482 534 533 516.5Q584 499 620 465Q656 431 676 380Q696 329 696 262Q696 187 670.5 134Q645 81 602 47.5Q559 14 502.5 -1Q446 -16 383 -16Q311 -16 257.5 -2.5Q204 11 164 36.5Q124 62 97 97Q70 132 51 176Z" glyph-name="five" horiz-adv-x="742" unicode="5" /><glyph d="M212 257Q235 208 273.5 180.5Q312 153 375 153Q400 153 422.5 159Q445 165 461.5 178.5Q478 192 488 212.5Q498 233 498 262Q498 316 466 345.5Q434 375 375 375Q327 375 288.5 358.5Q250 342 228 307L65 340L110 764H649V596H285L273 496Q293 512 329.5 523Q366 534 415 534Q477 534 528 516.5Q579 499 615 465Q651 431 671 380Q691 329 691 262Q691 187 665.5 134Q640 81 597 47.5Q554 14 497.5 -1Q441 -16 378 -16Q306 -16 252.5 -2.5Q199 11 159 36.5Q119 62 92 97Q65 132 46 176Z" glyph-name="five.LP" horiz-adv-x="729" unicode="&#58682;" /><glyph d="M55 -21 81 207H409V76H204L199 45Q216 59 239.5 64Q263 69 291 69Q320 69 345.5 63.5Q371 58 389.5 43Q408 28 419 2Q430 -24 430 -66Q430 -107 414.5 -135.5Q399 -164 372.5 -182Q346 -200 310 -208Q274 -216 233 -216Q139 -216 91 -179.5Q43 -143 38 -65L190 -54Q191 -76 204.5 -83Q218 -90 235 -89Q253 -89 265.5 -81Q278 -73 279 -56Q279 -42 270 -32Q261 -22 237 -22Q220 -21 205 -27.5Q190 -34 183 -47Z" glyph-name="five.inf" horiz-adv-x="469" unicode="&#58742;" /><glyph d="M557 772 747 800V175Q747 138 779 138Q787 138 792.5 139Q798 140 800 141V0Q790 -6 770 -11Q750 -16 714 -16Q689 -16 661.5 -10.5Q634 -5 610.5 12Q587 29 572 60Q557 91 557 141ZM21 530H131V602Q131 642 140 680.5Q149 719 173.5 749Q198 779 242.5 797.5Q287 816 358 816Q403 816 436 807.5Q469 799 488 788L471 629Q454 638 433 645Q412 652 385 652Q351 652 336 637Q321 622 321 591V530H466V371H321V0H131V371L21 383Z" glyph-name="fl" horiz-adv-x="823" unicode="&#64258;" /><glyph d="M30 310V469H137V566Q137 606 146.5 644.5Q156 683 182.5 713Q209 743 255 761.5Q301 780 374 780Q417 780 447.5 773.5Q478 767 496 760L479 593Q466 600 438 609Q410 618 378 616Q353 614 340.5 602Q328 590 328 555V469H476V310H328V-2Q328 -42 318.5 -80.5Q309 -119 283 -149Q257 -179 210.5 -197.5Q164 -216 90 -216Q48 -216 17.5 -209.5Q-13 -203 -30 -196L-13 -29Q0 -36 28 -45Q56 -54 87 -52Q113 -50 125 -38Q137 -26 137 9V310Z" glyph-name="florin" horiz-adv-x="503" unicode="&#402;" /><glyph d="M597 495V325H706V158H597V0H407V158H31V296L373 780H589L336 419L266 326L335 325H407V467Z" glyph-name="four" horiz-adv-x="742" unicode="4" /><glyph d="M618 495V325H727V158H618V0H428V158H52V296L394 780H610L357 419L287 326L356 325H428V467Z" glyph-name="four.LP" horiz-adv-x="779" unicode="&#58681;" /><glyph d="M276 55H390V-22H426V-155H390V-200H242V-155H25V-66L184 207H346L243 34L208 -23L237 -22H242V2Z" glyph-name="four.inf" horiz-adv-x="453" unicode="&#58741;" /><glyph glyph-name="fourperemspace" horiz-adv-x="269" unicode="&#8197;" /><glyph d="M351 247V0H140V247H31V367H140V394H31V513H140V764H671V589H351V513H609V394H351V367H609V247Z" glyph-name="franc" horiz-adv-x="669" unicode="&#8355;" /><glyph d="M442 328Q431 351 402.5 365.5Q374 380 336 380Q316 380 297 374.5Q278 369 263.5 357.5Q249 346 240.5 327Q232 308 232 281Q232 254 240.5 235Q249 216 263.5 204.5Q278 193 297 187.5Q316 182 336 182Q374 182 402.5 196.5Q431 211 442 234ZM194 -2Q210 -28 242 -42Q274 -56 323 -56Q356 -56 378.5 -47.5Q401 -39 415 -25Q429 -11 435 6.5Q441 24 441 42V75Q435 66 421 55.5Q407 45 387 36.5Q367 28 341 22Q315 16 284 16Q230 16 184.5 31.5Q139 47 105.5 79.5Q72 112 53 162Q34 212 34 281Q34 350 53 400Q72 450 105.5 482.5Q139 515 184.5 530.5Q230 546 284 546Q346 546 389 525Q432 504 456 473L468 530H633V38Q633 -16 612 -62Q591 -108 552.5 -142.5Q514 -177 459 -196.5Q404 -216 336 -216Q211 -216 138.5 -181Q66 -146 34 -82Z" glyph-name="g" horiz-adv-x="691" unicode="g" /><glyph d="M343 576Q284 576 243 591Q202 606 176.5 634.5Q151 663 140 704.5Q129 746 130 800H270Q269 766 286.5 752Q304 738 343 738Q382 738 399.5 752Q417 766 416 800H556Q557 746 546 704.5Q535 663 509.5 634.5Q484 606 443 591Q402 576 343 576ZM442 328Q431 351 402.5 365.5Q374 380 336 380Q316 380 297 374.5Q278 369 263.5 357.5Q249 346 240.5 327Q232 308 232 281Q232 254 240.5 235Q249 216 263.5 204.5Q278 193 297 187.5Q316 182 336 182Q374 182 402.5 196.5Q431 211 442 234ZM194 -2Q210 -28 242 -42Q274 -56 323 -56Q356 -56 378.5 -47.5Q401 -39 415 -25Q429 -11 435 6.5Q441 24 441 42V75Q435 66 421 55.5Q407 45 387 36.5Q367 28 341 22Q315 16 284 16Q230 16 184.5 31.5Q139 47 105.5 79.5Q72 112 53 162Q34 212 34 281Q34 350 53 400Q72 450 105.5 482.5Q139 515 184.5 530.5Q230 546 284 546Q346 546 389 525Q432 504 456 473L468 530H633V38Q633 -16 612 -62Q591 -108 552.5 -142.5Q514 -177 459 -196.5Q404 -216 336 -216Q211 -216 138.5 -181Q66 -146 34 -82Z" glyph-name="gbreve" horiz-adv-x="691" unicode="&#287;" /><glyph d="M107 592 265 800H421L579 592H396L343 651L290 592ZM442 328Q431 351 402.5 365.5Q374 380 336 380Q316 380 297 374.5Q278 369 263.5 357.5Q249 346 240.5 327Q232 308 232 281Q232 254 240.5 235Q249 216 263.5 204.5Q278 193 297 187.5Q316 182 336 182Q374 182 402.5 196.5Q431 211 442 234ZM194 -2Q210 -28 242 -42Q274 -56 323 -56Q356 -56 378.5 -47.5Q401 -39 415 -25Q429 -11 435 6.5Q441 24 441 42V75Q435 66 421 55.5Q407 45 387 36.5Q367 28 341 22Q315 16 284 16Q230 16 184.5 31.5Q139 47 105.5 79.5Q72 112 53 162Q34 212 34 281Q34 350 53 400Q72 450 105.5 482.5Q139 515 184.5 530.5Q230 546 284 546Q346 546 389 525Q432 504 456 473L468 530H633V38Q633 -16 612 -62Q591 -108 552.5 -142.5Q514 -177 459 -196.5Q404 -216 336 -216Q211 -216 138.5 -181Q66 -146 34 -82Z" glyph-name="gcircumflex" horiz-adv-x="691" unicode="&#285;" /><glyph d="M225 592 336 800H515L421 592ZM442 328Q431 351 402.5 365.5Q374 380 336 380Q316 380 297 374.5Q278 369 263.5 357.5Q249 346 240.5 327Q232 308 232 281Q232 254 240.5 235Q249 216 263.5 204.5Q278 193 297 187.5Q316 182 336 182Q374 182 402.5 196.5Q431 211 442 234ZM194 -2Q210 -28 242 -42Q274 -56 323 -56Q356 -56 378.5 -47.5Q401 -39 415 -25Q429 -11 435 6.5Q441 24 441 42V75Q435 66 421 55.5Q407 45 387 36.5Q367 28 341 22Q315 16 284 16Q230 16 184.5 31.5Q139 47 105.5 79.5Q72 112 53 162Q34 212 34 281Q34 350 53 400Q72 450 105.5 482.5Q139 515 184.5 530.5Q230 546 284 546Q346 546 389 525Q432 504 456 473L468 530H633V38Q633 -16 612 -62Q591 -108 552.5 -142.5Q514 -177 459 -196.5Q404 -216 336 -216Q211 -216 138.5 -181Q66 -146 34 -82Z" glyph-name="gcommaaccent" horiz-adv-x="691" unicode="&#291;" /><glyph d="M233 690Q233 713 241.5 733Q250 753 265 768Q280 783 300 791.5Q320 800 343 800Q366 800 386 791.5Q406 783 421 768Q436 753 444.5 733Q453 713 453 690Q453 667 444.5 647Q436 627 421 612Q406 597 386 588.5Q366 580 343 580Q320 580 300 588.5Q280 597 265 612Q250 627 241.5 647Q233 667 233 690ZM442 328Q431 351 402.5 365.5Q374 380 336 380Q316 380 297 374.5Q278 369 263.5 357.5Q249 346 240.5 327Q232 308 232 281Q232 254 240.5 235Q249 216 263.5 204.5Q278 193 297 187.5Q316 182 336 182Q374 182 402.5 196.5Q431 211 442 234ZM194 -2Q210 -28 242 -42Q274 -56 323 -56Q356 -56 378.5 -47.5Q401 -39 415 -25Q429 -11 435 6.5Q441 24 441 42V75Q435 66 421 55.5Q407 45 387 36.5Q367 28 341 22Q315 16 284 16Q230 16 184.5 31.5Q139 47 105.5 79.5Q72 112 53 162Q34 212 34 281Q34 350 53 400Q72 450 105.5 482.5Q139 515 184.5 530.5Q230 546 284 546Q346 546 389 525Q432 504 456 473L468 530H633V38Q633 -16 612 -62Q591 -108 552.5 -142.5Q514 -177 459 -196.5Q404 -216 336 -216Q211 -216 138.5 -181Q66 -146 34 -82Z" glyph-name="gdotaccent" horiz-adv-x="691" unicode="&#289;" /><glyph d="M392 808Q451 808 506.5 795.5Q562 783 604.5 757.5Q647 732 672.5 693Q698 654 698 600Q698 556 685 527.5Q672 499 652.5 480Q633 461 609 449.5Q585 438 564 429Q551 424 538 419Q525 414 514.5 409Q504 404 497.5 397Q491 390 491 380Q491 361 521 352.5Q551 344 605 333Q637 327 664 315.5Q691 304 711 284.5Q731 265 742.5 235Q754 205 754 162Q754 117 736 84Q718 51 686 28.5Q654 6 608.5 -5Q563 -16 509 -16Q409 -16 353.5 19Q298 54 275 117L435 194Q443 173 459 158Q475 143 510 143Q534 143 548.5 151Q563 159 563 175Q563 193 543 202Q523 211 475 219Q448 223 417.5 232Q387 241 361.5 258Q336 275 319.5 301.5Q303 328 303 367Q303 414 319.5 443Q336 472 358.5 490Q381 508 405.5 517Q430 526 447 533Q479 546 493 557.5Q507 569 507 588Q507 613 480.5 631Q454 649 392 649Q349 649 320.5 638Q292 627 275 608Q258 589 251 563.5Q244 538 244 509V0H55V515Q55 666 137 737Q219 808 392 808Z" glyph-name="germandbls" horiz-adv-x="776" unicode="&#223;" /><glyph d="M295 800 389 592H210L99 800Z" glyph-name="grave" horiz-adv-x="590" unicode="`" /><glyph d="M295 1030 389 822H210L99 1030Z" glyph-name="grave.cap" horiz-adv-x="590" unicode="&#58401;" /><glyph d="M302 431 82 512V703L661 459V321L82 77V268L302 349L426 390Z" glyph-name="greater" horiz-adv-x="742" unicode="&gt;" /><glyph d="M302 431 82 512V703L661 459V321L82 77V268L302 349L426 390Z" glyph-name="greater.cap" horiz-adv-x="742" unicode="&#58775;" /><glyph d="M82 73V190L661 354V244ZM390 461 267 479 82 504V696L661 531V385L82 249V441L267 453Z" glyph-name="greaterequal" horiz-adv-x="742" unicode="&#8805;" /><glyph d="M501 119 277 262V368L501 511V367L439 315L501 263ZM264 119 40 262V368L264 511V367L202 315L264 263Z" glyph-name="guillemotleft" horiz-adv-x="549" unicode="&#171;" /><glyph d="M501 194 277 337V443L501 586V442L439 390L501 338ZM264 194 40 337V443L264 586V442L202 390L264 338Z" glyph-name="guillemotleft.cap" horiz-adv-x="549" unicode="&#58451;" /><glyph d="M285 263 347 315 285 367V511L509 368V262L285 119ZM50 263 109 315 50 367V511L272 368V262L50 119Z" glyph-name="guillemotright" horiz-adv-x="549" unicode="&#187;" /><glyph d="M285 338 347 390 285 442V586L509 443V337L285 194ZM50 338 109 390 50 442V586L272 443V337L50 194Z" glyph-name="guillemotright.cap" horiz-adv-x="549" unicode="&#58452;" /><glyph d="M264 119 40 262V368L264 511V367L202 315L264 263Z" glyph-name="guilsinglleft" horiz-adv-x="312" unicode="&#8249;" /><glyph d="M264 194 40 337V443L264 586V442L202 390L264 338Z" glyph-name="guilsinglleft.cap" horiz-adv-x="312" unicode="&#58449;" /><glyph d="M50 263 109 315 50 367V511L272 368V262L50 119Z" glyph-name="guilsinglright" horiz-adv-x="312" unicode="&#8250;" /><glyph d="M50 338 109 390 50 442V586L272 443V337L50 194Z" glyph-name="guilsinglright.cap" horiz-adv-x="312" unicode="&#58450;" /><glyph d="M52 772 242 800V488Q262 502 281.5 513Q301 524 322 531.5Q343 539 367 542.5Q391 546 421 546Q464 546 501 535Q538 524 565 500Q592 476 607 438.5Q622 401 622 349V0H432V326Q432 352 413.5 366Q395 380 362 380Q320 380 288.5 364.5Q257 349 242 329V0H52Z" glyph-name="h" horiz-adv-x="670" unicode="h" /><glyph glyph-name="hairspace" horiz-adv-x="107" unicode="&#8202;" /><glyph d="M-28 703H52V772L242 800V703H375V579H242V488Q262 502 281.5 513Q301 524 322 531.5Q343 539 367 542.5Q391 546 421 546Q464 546 501 535Q538 524 565 500Q592 476 607 438.5Q622 401 622 349V0H432V326Q432 352 413.5 366Q395 380 362 380Q320 380 288.5 364.5Q257 349 242 329V0H52V579H-28Z" glyph-name="hbar" horiz-adv-x="670" unicode="&#295;" /><glyph d="M52 772 242 800V488Q262 502 281.5 513Q301 524 322 531.5Q343 539 367 542.5Q391 546 421 546Q464 546 501 535Q538 524 565 500Q592 476 607 438.5Q622 401 622 349V0H432V326Q432 352 413.5 366Q395 380 362 380Q320 380 288.5 364.5Q257 349 242 329V0H52ZM-89 822 69 1030H225L383 822H200L147 881L94 822Z" glyph-name="hcircumflex" horiz-adv-x="670" unicode="&#293;" /><glyph d="M478 -10Q465 9 440 40Q415 71 382 110Q349 149 309.5 193.5Q270 238 227 283Q199 312 168 348Q137 384 111 423.5Q85 463 68 504Q51 545 51 584Q51 628 65.5 666Q80 704 106.5 731.5Q133 759 171 774.5Q209 790 256 790Q306 790 342.5 777Q379 764 405 742.5Q431 721 448 692.5Q465 664 477 633H480Q492 664 509.5 692.5Q527 721 553 742.5Q579 764 615 777Q651 790 701 790Q748 790 786.5 774.5Q825 759 852 731.5Q879 704 893.5 666Q908 628 908 584Q908 545 890.5 504Q873 463 847 423.5Q821 384 790 348Q759 312 731 283Q688 238 648.5 193.5Q609 149 576 110Q543 71 518 40Q493 9 479 -10Z" glyph-name="heart" horiz-adv-x="957" unicode="&#9829;" /><glyph d="M71 0V450L452 790L834 450V0Z" glyph-name="house" horiz-adv-x="905" unicode="&#8962;" /><glyph d="M605 800 494 592H315L409 800ZM389 800 278 592H99L193 800Z" glyph-name="hungarumlaut" horiz-adv-x="590" unicode="&#733;" /><glyph d="M605 1030 494 822H315L409 1030ZM389 1030 278 822H99L193 1030Z" glyph-name="hungarumlaut.cap" horiz-adv-x="590" unicode="&#58411;" /><glyph d="M40 254V419H354V254Z" glyph-name="hyphen" horiz-adv-x="394" unicode="-" /><glyph d="M40 308V473H354V308Z" glyph-name="hyphen.cap" horiz-adv-x="394" unicode="&#58498;" /><glyph d="M43 690Q43 713 51.5 733Q60 753 75 768Q90 783 110 791.5Q130 800 153 800Q176 800 196 791.5Q216 783 231 768Q246 753 254.5 733Q263 713 263 690Q263 667 254.5 647Q246 627 231 612Q216 597 196 588.5Q176 580 153 580Q130 580 110 588.5Q90 597 75 612Q60 627 51.5 647Q43 667 43 690ZM58 530H248V0H58Z" glyph-name="i" horiz-adv-x="306" unicode="i" /><glyph d="M354 800 243 592H64L158 800ZM58 530H248V0H58Z" glyph-name="iacute" horiz-adv-x="306" unicode="&#237;" /><glyph d="M153 576Q94 576 53 591Q12 606 -13.5 634.5Q-39 663 -50 704.5Q-61 746 -60 800H80Q79 766 96.5 752Q114 738 153 738Q192 738 209.5 752Q227 766 226 800H366Q367 746 356 704.5Q345 663 319.5 634.5Q294 606 253 591Q212 576 153 576ZM58 530H248V0H58Z" glyph-name="ibreve" horiz-adv-x="306" unicode="&#301;" /><glyph d="M-83 592 75 800H231L389 592H206L153 651L100 592ZM58 530H248V0H58Z" glyph-name="icircumflex" horiz-adv-x="306" unicode="&#238;" /><glyph d="M168 690Q168 713 176.5 733Q185 753 200 768Q215 783 235 791.5Q255 800 278 800Q301 800 321 791.5Q341 783 356 768Q371 753 379.5 733Q388 713 388 690Q388 667 379.5 647Q371 627 356 612Q341 597 321 588.5Q301 580 278 580Q255 580 235 588.5Q215 597 200 612Q185 627 176.5 647Q168 667 168 690ZM-82 690Q-82 713 -73.5 733Q-65 753 -50 768Q-35 783 -15 791.5Q5 800 28 800Q51 800 71 791.5Q91 783 106 768Q121 753 129.5 733Q138 713 138 690Q138 667 129.5 647Q121 627 106 612Q91 597 71 588.5Q51 580 28 580Q5 580 -15 588.5Q-35 597 -50 612Q-65 627 -73.5 647Q-82 667 -82 690ZM58 530H248V0H58Z" glyph-name="idieresis" horiz-adv-x="306" unicode="&#239;" /><glyph d="M43 690Q43 713 51.5 733Q60 753 75 768Q90 783 110 791.5Q130 800 153 800Q176 800 196 791.5Q216 783 231 768Q246 753 254.5 733Q263 713 263 690Q263 667 254.5 647Q246 627 231 612Q216 597 196 588.5Q176 580 153 580Q130 580 110 588.5Q90 597 75 612Q60 627 51.5 647Q43 667 43 690ZM58 530H248V0H58Z" glyph-name="idotaccent" horiz-adv-x="306" unicode="&#59269;" /><glyph d="M148 800 242 592H63L-48 800ZM58 530H248V0H58Z" glyph-name="igrave" horiz-adv-x="306" unicode="&#236;" /><glyph d="M498 -2Q498 -42 489 -80.5Q480 -119 455.5 -149Q431 -179 386.5 -197.5Q342 -216 271 -216Q226 -216 193 -207.5Q160 -199 141 -188L158 -29Q175 -38 196 -45Q217 -52 244 -52Q278 -52 293 -37Q308 -22 308 9V530H498ZM293 690Q293 713 301.5 733Q310 753 325 768Q340 783 360 791.5Q380 800 403 800Q426 800 446 791.5Q466 783 481 768Q496 753 504.5 733Q513 713 513 690Q513 667 504.5 647Q496 627 481 612Q466 597 446 588.5Q426 580 403 580Q380 580 360 588.5Q340 597 325 612Q310 627 301.5 647Q293 667 293 690ZM43 690Q43 713 51.5 733Q60 753 75 768Q90 783 110 791.5Q130 800 153 800Q176 800 196 791.5Q216 783 231 768Q246 753 254.5 733Q263 713 263 690Q263 667 254.5 647Q246 627 231 612Q216 597 196 588.5Q176 580 153 580Q130 580 110 588.5Q90 597 75 612Q60 627 51.5 647Q43 667 43 690ZM58 530H248V0H58Z" glyph-name="ij" horiz-adv-x="557" unicode="&#307;" /><glyph d="M-13 780H319V616H-13ZM58 530H248V0H58Z" glyph-name="imacron" horiz-adv-x="306" unicode="&#299;" /><glyph d="M254 336Q269 337 281.5 342.5Q294 348 304 356Q314 364 322.5 373Q331 382 339 390Q331 398 322.5 407Q314 416 304 424Q294 432 281.5 437.5Q269 443 254 444Q228 444 210.5 430Q193 416 193 390Q193 364 210.5 350.5Q228 337 254 336ZM657 390Q657 416 639.5 429.5Q622 443 596 444Q581 443 568.5 437.5Q556 432 546 424Q536 416 527.5 407Q519 398 510 390Q519 382 527.5 373Q536 364 546 356Q556 348 568.5 342.5Q581 337 596 336Q622 336 639.5 350Q657 364 657 390ZM803 390Q803 297 746 249.5Q689 202 596 202Q536 202 497 224.5Q458 247 426 281Q394 247 354 224.5Q314 202 254 202Q161 202 104.5 249.5Q48 297 48 390Q48 483 104.5 530.5Q161 578 254 578Q314 578 354 555.5Q394 533 426 499Q458 533 497 555.5Q536 578 596 578Q689 578 746 530.5Q803 483 803 390Z" glyph-name="infinity" horiz-adv-x="850" unicode="&#8734;" /><glyph d="M722 622Q757 572 777 513.5Q797 455 797 389Q797 306 765.5 233Q734 160 679.5 105.5Q625 51 552 19.5Q479 -12 396 -12Q313 -12 240 19.5Q167 51 112.5 105.5Q58 160 26.5 233Q-5 306 -5 389Q-5 472 26.5 545Q58 618 112.5 672.5Q167 727 240 758.5Q313 790 396 790Q483 790 558 756.5Q633 723 688 664Q653 664 611 658Q569 652 525.5 639Q482 626 441.5 605Q401 584 369 554.5Q337 525 318 486Q299 447 299 398Q299 355 315 318.5Q331 282 358.5 255.5Q386 229 422 214Q458 199 498 199Q539 199 575.5 215Q612 231 639 258Q666 285 681.5 321Q697 357 697 398Q697 446 677 485.5Q657 525 623 553Q615 559 615 569Q615 578 624 586Q630 591 642 596.5Q654 602 668 607.5Q682 613 696.5 617Q711 621 722 622Z" glyph-name="integral" horiz-adv-x="792" unicode="&#8747;" /><glyph d="M407 566Q407 589 395 601Q383 613 366 619L360 513Q383 523 395 534.5Q407 546 407 566ZM176 101Q176 124 185 144.5Q194 165 209.5 180.5Q225 196 245.5 205Q266 214 290 214Q314 214 334.5 205Q355 196 370 180.5Q385 165 394 144.5Q403 124 403 101Q403 77 394 56.5Q385 36 370 20.5Q355 5 334.5 -4Q314 -13 290 -13Q266 -13 245.5 -4Q225 5 209.5 20.5Q194 36 185 56.5Q176 77 176 101ZM254 252 234 596Q209 573 199 536L24 621Q38 661 61.5 693Q85 725 120.5 748Q156 771 203.5 783.5Q251 796 313 796Q456 796 530.5 741Q605 686 605 579Q605 523 588 486.5Q571 450 543.5 425.5Q516 401 481.5 386Q447 371 413 360Q370 345 350 325L346 252Z" glyph-name="interrobang" horiz-adv-x="645" unicode="&#8253;" /><glyph d="M217 4Q217 -16 229.5 -26Q242 -36 261 -41L266 55Q236 44 226.5 33.5Q217 23 217 4ZM448 429Q448 406 439 385.5Q430 365 414.5 349.5Q399 334 378.5 325Q358 316 334 316Q310 316 289.5 325Q269 334 254 349.5Q239 365 230 385.5Q221 406 221 429Q221 453 230 473.5Q239 494 254 509.5Q269 525 289.5 534Q310 543 334 543Q358 543 378.5 534Q399 525 414.5 509.5Q430 494 439 473.5Q448 453 448 429ZM381 278 397 -7Q414 12 425 44L600 -41Q586 -81 562.5 -113Q539 -145 503.5 -168Q468 -191 420.5 -203.5Q373 -216 311 -216Q168 -216 93.5 -161Q19 -106 19 -9Q19 43 33.5 77.5Q48 112 73.5 135Q99 158 134.5 172.5Q170 187 211 200Q232 207 249 214Q266 221 276 229L279 278Z" glyph-name="interrobangdown" horiz-adv-x="633" unicode="&#59701;" /><glyph d="M238 214Q238 191 249.5 178.5Q261 166 278 161L284 267Q261 256 249.5 245Q238 234 238 214ZM469 679Q469 656 460 635.5Q451 615 435.5 599.5Q420 584 399.5 575Q379 566 355 566Q331 566 310.5 575Q290 584 275 599.5Q260 615 251 635.5Q242 656 242 679Q242 703 251 723.5Q260 744 275 759.5Q290 775 310.5 784Q331 793 355 793Q379 793 399.5 784Q420 775 435.5 759.5Q451 744 460 723.5Q469 703 469 679ZM232 420Q275 434 295 455L299 528H391L411 184Q434 206 446 244L621 159Q607 119 583.5 87Q560 55 524.5 32Q489 9 441.5 -3.5Q394 -16 332 -16Q189 -16 114.5 39Q40 94 40 201Q40 256 57 293Q74 330 101.5 354.5Q129 379 163.5 394Q198 409 232 420Z" glyph-name="interrobangdown.cap" horiz-adv-x="645" unicode="&#59803;" /><glyph d="M295 816Q354 816 395 801Q436 786 461.5 757.5Q487 729 498 687.5Q509 646 508 592H368Q369 626 351.5 640Q334 654 295 654Q256 654 238.5 640Q221 626 222 592H82Q81 646 92 687.5Q103 729 128.5 757.5Q154 786 195 801Q236 816 295 816Z" glyph-name="invertedbreve" horiz-adv-x="590" unicode="&#58385;" /><glyph d="M295 1046Q354 1046 395 1031Q436 1016 461.5 987.5Q487 959 498 917.5Q509 876 508 822H368Q369 856 351.5 870Q334 884 295 884Q256 884 238.5 870Q221 856 222 822H82Q81 876 92 917.5Q103 959 128.5 987.5Q154 1016 195 1031Q236 1046 295 1046Z" glyph-name="invertedbreve.cap" horiz-adv-x="590" unicode="&#58407;" /><glyph d="M43 690Q43 713 51.5 733Q60 753 75 768Q90 783 110 791.5Q130 800 153 800Q176 800 196 791.5Q216 783 231 768Q246 753 254.5 733Q263 713 263 690Q263 667 254.5 647Q246 627 231 612Q216 597 196 588.5Q176 580 153 580Q130 580 110 588.5Q90 597 75 612Q60 627 51.5 647Q43 667 43 690ZM248 0Q224 -2 204 -9.5Q184 -17 170.5 -27.5Q157 -38 150.5 -50Q144 -62 146 -73Q148 -82 156.5 -90Q165 -98 189 -93Q203 -90 214 -84Q219 -81 225 -77L259 -191Q243 -201 215.5 -208.5Q188 -216 154 -216Q100 -216 66.5 -195Q33 -174 21 -125Q11 -88 22.5 -57Q34 -26 58 -1V530H248Z" glyph-name="iogonek" horiz-adv-x="306" unicode="&#303;" /><glyph d="M234 576Q194 576 168 588Q142 600 123 614Q104 628 89.5 640Q75 652 58 652Q44 652 37 644.5Q30 637 26 628Q22 617 21 605L-103 620Q-99 656 -88 691Q-77 726 -56 754Q-35 782 -3.5 799Q28 816 72 816Q112 816 138 804Q164 792 183 778Q202 764 216.5 752Q231 740 248 740Q261 740 268.5 747Q276 754 280 763Q284 774 285 787L409 772Q405 736 394 701Q383 666 362 638Q341 610 309.5 593Q278 576 234 576ZM58 530H248V0H58Z" glyph-name="itilde" horiz-adv-x="306" unicode="&#297;" /><glyph d="M248 -2Q248 -42 239 -80.5Q230 -119 205.5 -149Q181 -179 136.5 -197.5Q92 -216 21 -216Q-24 -216 -57 -207.5Q-90 -199 -109 -188L-92 -29Q-75 -38 -54 -45Q-33 -52 -6 -52Q28 -52 43 -37Q58 -22 58 9V530H248ZM43 690Q43 713 51.5 733Q60 753 75 768Q90 783 110 791.5Q130 800 153 800Q176 800 196 791.5Q216 783 231 768Q246 753 254.5 733Q263 713 263 690Q263 667 254.5 647Q246 627 231 612Q216 597 196 588.5Q176 580 153 580Q130 580 110 588.5Q90 597 75 612Q60 627 51.5 647Q43 667 43 690Z" glyph-name="j" horiz-adv-x="307" unicode="j" /><glyph d="M-83 592 75 800H231L389 592H206L153 651L100 592ZM248 -2Q248 -42 239 -80.5Q230 -119 205.5 -149Q181 -179 136.5 -197.5Q92 -216 21 -216Q-24 -216 -57 -207.5Q-90 -199 -109 -188L-92 -29Q-75 -38 -54 -45Q-33 -52 -6 -52Q28 -52 43 -37Q58 -22 58 9V530H248Z" glyph-name="jcircumflex" horiz-adv-x="307" unicode="&#309;" /><glyph d="M52 0V772L242 800V361H296L416 530H656L455 281L683 0H443L298 202H242V0Z" glyph-name="k" horiz-adv-x="671" unicode="k" /><glyph d="M430 -62 395 -200H228L239 -62ZM52 0V772L242 800V361H296L416 530H656L455 281L683 0H443L298 202H242V0Z" glyph-name="kcommaaccent" horiz-adv-x="671" unicode="&#311;" /><glyph d="M52 0V530H242V361H296L416 530H656L455 281L683 0H443L298 202H242V0Z" glyph-name="kgreenlandic" horiz-adv-x="671" unicode="&#312;" /><glyph d="M65 772 255 800V175Q255 138 287 138Q295 138 300.5 139Q306 140 308 141V0Q298 -6 278 -11Q258 -16 222 -16Q197 -16 169.5 -10.5Q142 -5 118.5 12Q95 29 80 60Q65 91 65 141Z" glyph-name="l" horiz-adv-x="331" unicode="l" /><glyph d="M65 772 255 800V175Q255 138 287 138Q295 138 300.5 139Q306 140 308 141V0Q298 -6 278 -11Q258 -16 222 -16Q197 -16 169.5 -10.5Q142 -5 118.5 12Q95 29 80 60Q65 91 65 141ZM362 1030 251 822H72L166 1030Z" glyph-name="lacute" horiz-adv-x="331" unicode="&#314;" /><glyph d="M522 800 441 570H300L329 800ZM65 772 255 800V175Q255 138 287 138Q295 138 300.5 139Q306 140 308 141V0Q298 -6 278 -11Q258 -16 222 -16Q197 -16 169.5 -10.5Q142 -5 118.5 12Q95 29 80 60Q65 91 65 141Z" glyph-name="lcaron" horiz-adv-x="331" unicode="&#318;" /><glyph d="M282 -62 247 -200H80L91 -62ZM65 772 255 800V175Q255 138 287 138Q295 138 300.5 139Q306 140 308 141V0Q298 -6 278 -11Q258 -16 222 -16Q197 -16 169.5 -10.5Q142 -5 118.5 12Q95 29 80 60Q65 91 65 141Z" glyph-name="lcommaaccent" horiz-adv-x="331" unicode="&#316;" /><glyph d="M291 390Q291 413 300 433.5Q309 454 324 469.5Q339 485 359.5 494Q380 503 404 503Q428 503 448.5 494Q469 485 484.5 469.5Q500 454 509 433.5Q518 413 518 390Q518 366 509 345.5Q500 325 484.5 309.5Q469 294 448.5 285Q428 276 404 276Q380 276 359.5 285Q339 294 324 309.5Q309 325 300 345.5Q291 366 291 390ZM65 772 255 800V175Q255 138 287 138Q295 138 300.5 139Q306 140 308 141V0Q298 -6 278 -11Q258 -16 222 -16Q197 -16 169.5 -10.5Q142 -5 118.5 12Q95 29 80 60Q65 91 65 141Z" glyph-name="ldot" horiz-adv-x="481" unicode="&#320;" /><glyph d="M441 349 661 268V77L82 321V459L661 703V512L441 431L317 390Z" glyph-name="less" horiz-adv-x="742" unicode="&lt;" /><glyph d="M441 349 661 268V77L82 321V459L661 703V512L441 431L317 390Z" glyph-name="less.cap" horiz-adv-x="742" unicode="&#58774;" /><glyph d="M82 244V354L661 190V73ZM474 453 661 441V249L82 385V531L661 696V504L474 479L353 461Z" glyph-name="lessequal" horiz-adv-x="742" unicode="&#8804;" /><glyph d="M353 231V175H818V0H31V175H148V231H31V350H148V378H31V497H148V502Q148 578 169.5 631Q191 684 235 717Q279 750 344.5 765Q410 780 499 780Q666 780 747 723.5Q828 667 828 548L619 524Q618 542 611 558.5Q604 575 590 587.5Q576 600 553.5 607Q531 614 499 614Q457 614 429 607Q401 600 384 586Q367 572 360 549.5Q353 527 353 497H609V378H353V350H609V231Z" glyph-name="lira" horiz-adv-x="846" unicode="&#8356;" /><glyph d="M476 397H82V572H661V208H476Z" glyph-name="logicalnot" horiz-adv-x="742" unicode="&#172;" /><glyph d="M21 0V167H336V0Z" glyph-name="lowline" horiz-adv-x="354" unicode="&#58641;" /><glyph d="M84 390 479 796 874 390 479 -16ZM609 390 479 533 348 390 479 247Z" glyph-name="lozenge" horiz-adv-x="957" unicode="&#9674;" /><glyph d="M255 367V175Q255 138 287 138Q295 138 300.5 139Q306 140 308 141V0Q298 -6 278 -11Q258 -16 222 -16Q197 -16 169.5 -10.5Q142 -5 118.5 12Q95 29 80 60Q65 91 65 141V244L6 206V339L65 377V772L255 800V500L331 550V417Z" glyph-name="lslash" horiz-adv-x="361" unicode="&#322;" /><glyph d="M235 469Q263 504 304.5 525Q346 546 399 546Q451 546 484 529.5Q517 513 534 490Q563 516 606.5 531Q650 546 716 546Q819 546 871.5 493Q924 440 924 340V0H734V331Q734 355 716.5 367.5Q699 380 676 380Q641 380 622 366.5Q603 353 586 329V0H396V331Q396 355 378.5 367.5Q361 380 338 380Q303 380 284 366.5Q265 353 248 329V0H58V530H224Z" glyph-name="m" horiz-adv-x="971" unicode="m" /><glyph d="M129 780H461V616H129Z" glyph-name="macron" horiz-adv-x="590" unicode="&#175;" /><glyph d="M129 846V1010H461V846Z" glyph-name="macron.cap" horiz-adv-x="590" unicode="&#58405;" /><glyph d="M91 265Q91 323 115 374Q139 425 180 463.5Q221 502 276 524Q331 546 394 546Q456 546 511 524Q566 502 607 463.5Q648 425 672 374Q696 323 696 265Q696 207 672 156Q648 105 607 66.5Q566 28 511 6Q456 -16 394 -16Q331 -16 276 6Q221 28 180 66.5Q139 105 115 156Q91 207 91 265Z" glyph-name="mediumblackcircle" horiz-adv-x="787" unicode="&#9899;" /><glyph d="M491 265Q491 284 483 301.5Q475 319 462 331.5Q449 344 431 351.5Q413 359 394 359Q374 359 356.5 351.5Q339 344 325.5 331.5Q312 319 304.5 301.5Q297 284 297 265Q297 245 304.5 228Q312 211 325.5 198.5Q339 186 356.5 178.5Q374 171 394 171Q413 171 431 178.5Q449 186 462 198.5Q475 211 483 228Q491 245 491 265ZM91 265Q91 323 115 374Q139 425 180 463.5Q221 502 276 524Q331 546 394 546Q456 546 511 524Q566 502 607 463.5Q648 425 672 374Q696 323 696 265Q696 207 672 156Q648 105 607 66.5Q566 28 511 6Q456 -16 394 -16Q331 -16 276 6Q221 28 180 66.5Q139 105 115 156Q91 207 91 265Z" glyph-name="mediumwhitecircle" horiz-adv-x="787" unicode="&#9898;" /><glyph d="M82 302V478H661V302Z" glyph-name="minus" horiz-adv-x="742" unicode="&#8722;" /><glyph d="M82 302V478H661V302Z" glyph-name="minus.cap" horiz-adv-x="742" unicode="&#58770;" /><glyph d="M33 -67V113H389V-67Z" glyph-name="minus.inf" horiz-adv-x="422" unicode="&#58748;" /><glyph d="M237 390 80 537 213 661 372 514 529 661 663 537 505 390 663 243 529 119 372 266 213 119 80 243Z" glyph-name="multiply" horiz-adv-x="742" unicode="&#215;" /><glyph d="M237 390 80 537 213 661 372 514 529 661 663 537 505 390 663 243 529 119 372 266 213 119 80 243Z" glyph-name="multiply.cap" horiz-adv-x="742" unicode="&#58771;" /><glyph d="M143 78Q176 92 217.5 114Q259 136 295 167Q331 198 356 238.5Q381 279 381 330Q381 381 358.5 413Q336 445 280 445Q254 445 230.5 435Q207 425 189 409.5Q171 394 159 374Q147 354 143 334ZM50 821H143V478Q153 492 169.5 504Q186 516 205.5 524.5Q225 533 246.5 538Q268 543 289 543Q396 543 442 490.5Q488 438 488 332Q488 263 450.5 202Q413 141 351.5 90.5Q290 40 211 1Q132 -38 50 -62Z" glyph-name="musicflatsign" horiz-adv-x="512" unicode="&#9837;" /><glyph d="M244 493 143 418V287L244 362ZM50 830H143V555L337 701V-50H244V225L50 79Z" glyph-name="musicnaturalsign" horiz-adv-x="386" unicode="&#59753;" /><glyph d="M293 493 192 418V287L293 362ZM293 0V225L192 149V-100H99V79L14 16V153L99 217V348L14 285V422L99 486V780H192V555L293 631V880H386V701L471 764V627L386 563V432L471 495V358L386 294V0Z" glyph-name="musicsharpsign" horiz-adv-x="485" unicode="&#9839;" /><glyph d="M421 546Q464 546 501 535Q538 524 565 500Q592 476 607 438.5Q622 401 622 349V0H432V326Q432 352 413.5 366Q395 380 362 380Q320 380 288.5 364.5Q257 349 242 329V0H52V530H217L228 469Q259 507 306.5 526.5Q354 546 421 546Z" glyph-name="n" horiz-adv-x="670" unicode="n" /><glyph d="M533 800 422 592H243L337 800ZM421 546Q464 546 501 535Q538 524 565 500Q592 476 607 438.5Q622 401 622 349V0H432V326Q432 352 413.5 366Q395 380 362 380Q320 380 288.5 364.5Q257 349 242 329V0H52V530H217L228 469Q259 507 306.5 526.5Q354 546 421 546Z" glyph-name="nacute" horiz-adv-x="670" unicode="&#324;" /><glyph d="M573 800 415 592H259L101 800H284L337 741L390 800ZM421 546Q464 546 501 535Q538 524 565 500Q592 476 607 438.5Q622 401 622 349V0H432V326Q432 352 413.5 366Q395 380 362 380Q320 380 288.5 364.5Q257 349 242 329V0H52V530H217L228 469Q259 507 306.5 526.5Q354 546 421 546Z" glyph-name="ncaron" horiz-adv-x="670" unicode="&#328;" /><glyph d="M433 -62 398 -200H231L242 -62ZM421 546Q464 546 501 535Q538 524 565 500Q592 476 607 438.5Q622 401 622 349V0H432V326Q432 352 413.5 366Q395 380 362 380Q320 380 288.5 364.5Q257 349 242 329V0H52V530H217L228 469Q259 507 306.5 526.5Q354 546 421 546Z" glyph-name="ncommaaccent" horiz-adv-x="670" unicode="&#326;" /><glyph d="M356 399Q409 399 449.5 426.5Q490 454 507 505Q505 526 493 546Q481 566 461.5 582Q442 598 417 607.5Q392 617 364 617Q338 617 314.5 611Q291 605 274 592Q257 579 247 558.5Q237 538 237 509Q237 451 269.5 425Q302 399 356 399ZM196 222Q206 202 222.5 188.5Q239 175 258.5 166Q278 157 299 153Q320 149 340 149Q394 149 427.5 167.5Q461 186 479.5 212.5Q498 239 505 269Q512 299 514 323Q500 302 477 287Q454 272 427 261.5Q400 251 371 246Q342 241 315 241Q252 241 201.5 257Q151 273 115.5 306Q80 339 61 389.5Q42 440 42 509Q42 578 65.5 628.5Q89 679 131 712.5Q173 746 231 762.5Q289 779 358 779Q529 779 614.5 681Q700 583 700 383Q700 188 609.5 86Q519 -16 339 -16Q230 -16 153 26.5Q76 69 41 146Z" glyph-name="nine" horiz-adv-x="742" unicode="9" /><glyph d="M361 399Q414 399 454.5 426.5Q495 454 512 505Q510 526 498 546Q486 566 466.5 582Q447 598 422 607.5Q397 617 369 617Q343 617 319.5 611Q296 605 279 592Q262 579 252 558.5Q242 538 242 509Q242 451 274.5 425Q307 399 361 399ZM201 222Q211 202 227.5 188.5Q244 175 263.5 166Q283 157 304 153Q325 149 345 149Q399 149 432.5 167.5Q466 186 484.5 212.5Q503 239 510 269Q517 299 519 323Q505 302 482 287Q459 272 432 261.5Q405 251 376 246Q347 241 320 241Q257 241 206.5 257Q156 273 120.5 306Q85 339 66 389.5Q47 440 47 509Q47 578 70.5 628.5Q94 679 136 712.5Q178 746 236 762.5Q294 779 363 779Q534 779 619.5 681Q705 583 705 383Q705 188 614.5 86Q524 -16 344 -16Q235 -16 158 26.5Q81 69 46 146Z" glyph-name="nine.LP" horiz-adv-x="751" unicode="&#58686;" /><glyph d="M235 31Q256 31 276 40.5Q296 50 304 68Q300 83 280 94Q260 105 240 105Q220 105 202 97Q184 89 184 69Q184 49 200 40Q216 31 235 31ZM164 -76Q169 -87 181 -92Q193 -97 217 -97Q231 -97 246.5 -94Q262 -91 275.5 -83Q289 -75 298.5 -61Q308 -47 310 -24Q291 -44 256 -54.5Q221 -65 179 -65Q150 -65 124.5 -59Q99 -53 79.5 -38.5Q60 -24 49 1.5Q38 27 38 66Q38 106 53.5 136Q69 166 96 185Q123 204 159.5 213.5Q196 223 237 223Q340 223 394.5 169Q449 115 449 4Q449 -102 393 -159Q337 -216 228 -216Q199 -216 170.5 -212.5Q142 -209 117.5 -197.5Q93 -186 74 -165.5Q55 -145 44 -110Z" glyph-name="nine.inf" horiz-adv-x="484" unicode="&#58746;" /><glyph glyph-name="nonbreakingspace" horiz-adv-x="224" unicode="&#160;" /><glyph d="M476 438 414 342H661V167H298L271 124H123L151 167H82V342H267L329 438H82V613H445L471 656H619L592 613H661V438Z" glyph-name="notequal" horiz-adv-x="742" unicode="&#8800;" /><glyph d="M418 576Q378 576 352 588Q326 600 307 614Q288 628 273.5 640Q259 652 242 652Q228 652 221 644.5Q214 637 210 628Q206 617 205 605L81 620Q85 656 96 691Q107 726 128 754Q149 782 180.5 799Q212 816 256 816Q296 816 322 804Q348 792 367 778Q386 764 400.5 752Q415 740 432 740Q445 740 452.5 747Q460 754 464 763Q468 774 469 787L593 772Q589 736 578 701Q567 666 546 638Q525 610 493.5 593Q462 576 418 576ZM421 546Q464 546 501 535Q538 524 565 500Q592 476 607 438.5Q622 401 622 349V0H432V326Q432 352 413.5 366Q395 380 362 380Q320 380 288.5 364.5Q257 349 242 329V0H52V530H217L228 469Q259 507 306.5 526.5Q354 546 421 546Z" glyph-name="ntilde" horiz-adv-x="670" unicode="&#241;" /><glyph d="M314 321H423L458 443H348ZM652 443 617 321H672V155H572L528 0H334L377 155H267L224 0H30L74 155H22V321H120L154 443H99V609H200L245 764H439L395 609H505L549 764H743L697 609H748V443Z" glyph-name="numbersign" horiz-adv-x="771" unicode="#" /><glyph d="M1015 80Q1015 118 1041 144Q1067 170 1105 170Q1143 170 1169 144Q1195 118 1195 80Q1195 42 1169 16Q1143 -10 1105 -10Q1067 -10 1041 16Q1015 42 1015 80ZM1105 651Q1046 651 1011 616Q976 581 976 499Q976 416 1011 381.5Q1046 347 1105 347Q1164 347 1199 381.5Q1234 416 1234 499Q1234 581 1199 616Q1164 651 1105 651ZM1105 220Q1041 220 989.5 237.5Q938 255 901.5 290.5Q865 326 845.5 378Q826 430 826 499Q826 568 845.5 620Q865 672 901.5 707.5Q938 743 989.5 760.5Q1041 778 1105 778Q1169 778 1220.5 760.5Q1272 743 1308.5 707.5Q1345 672 1364.5 620Q1384 568 1384 499Q1384 430 1364.5 378Q1345 326 1308.5 290.5Q1272 255 1220.5 237.5Q1169 220 1105 220ZM307 386 224 506 226 319V0H76V764H215L491 378L574 258L571 445V764H721V0H583Z" glyph-name="numero" horiz-adv-x="1422" unicode="&#8470;" /><glyph d="M326 149Q372 149 398 174.5Q424 200 424 265Q424 330 398 355.5Q372 381 326 381Q280 381 254 355.5Q228 330 228 265Q228 200 254 174.5Q280 149 326 149ZM326 546Q461 546 539.5 474.5Q618 403 618 265Q618 127 539.5 55.5Q461 -16 326 -16Q191 -16 112.5 55.5Q34 127 34 265Q34 403 112.5 474.5Q191 546 326 546Z" glyph-name="o" horiz-adv-x="652" unicode="o" /><glyph d="M522 800 411 592H232L326 800ZM326 149Q372 149 398 174.5Q424 200 424 265Q424 330 398 355.5Q372 381 326 381Q280 381 254 355.5Q228 330 228 265Q228 200 254 174.5Q280 149 326 149ZM326 546Q461 546 539.5 474.5Q618 403 618 265Q618 127 539.5 55.5Q461 -16 326 -16Q191 -16 112.5 55.5Q34 127 34 265Q34 403 112.5 474.5Q191 546 326 546Z" glyph-name="oacute" horiz-adv-x="652" unicode="&#243;" /><glyph d="M326 576Q267 576 226 591Q185 606 159.5 634.5Q134 663 123 704.5Q112 746 113 800H253Q252 766 269.5 752Q287 738 326 738Q365 738 382.5 752Q400 766 399 800H539Q540 746 529 704.5Q518 663 492.5 634.5Q467 606 426 591Q385 576 326 576ZM326 149Q372 149 398 174.5Q424 200 424 265Q424 330 398 355.5Q372 381 326 381Q280 381 254 355.5Q228 330 228 265Q228 200 254 174.5Q280 149 326 149ZM326 546Q461 546 539.5 474.5Q618 403 618 265Q618 127 539.5 55.5Q461 -16 326 -16Q191 -16 112.5 55.5Q34 127 34 265Q34 403 112.5 474.5Q191 546 326 546Z" glyph-name="obreve" horiz-adv-x="652" unicode="&#335;" /><glyph d="M90 592 248 800H404L562 592H379L326 651L273 592ZM326 149Q372 149 398 174.5Q424 200 424 265Q424 330 398 355.5Q372 381 326 381Q280 381 254 355.5Q228 330 228 265Q228 200 254 174.5Q280 149 326 149ZM326 546Q461 546 539.5 474.5Q618 403 618 265Q618 127 539.5 55.5Q461 -16 326 -16Q191 -16 112.5 55.5Q34 127 34 265Q34 403 112.5 474.5Q191 546 326 546Z" glyph-name="ocircumflex" horiz-adv-x="652" unicode="&#244;" /><glyph d="M341 690Q341 713 349.5 733Q358 753 373 768Q388 783 408 791.5Q428 800 451 800Q474 800 494 791.5Q514 783 529 768Q544 753 552.5 733Q561 713 561 690Q561 667 552.5 647Q544 627 529 612Q514 597 494 588.5Q474 580 451 580Q428 580 408 588.5Q388 597 373 612Q358 627 349.5 647Q341 667 341 690ZM91 690Q91 713 99.5 733Q108 753 123 768Q138 783 158 791.5Q178 800 201 800Q224 800 244 791.5Q264 783 279 768Q294 753 302.5 733Q311 713 311 690Q311 667 302.5 647Q294 627 279 612Q264 597 244 588.5Q224 580 201 580Q178 580 158 588.5Q138 597 123 612Q108 627 99.5 647Q91 667 91 690ZM326 149Q372 149 398 174.5Q424 200 424 265Q424 330 398 355.5Q372 381 326 381Q280 381 254 355.5Q228 330 228 265Q228 200 254 174.5Q280 149 326 149ZM326 546Q461 546 539.5 474.5Q618 403 618 265Q618 127 539.5 55.5Q461 -16 326 -16Q191 -16 112.5 55.5Q34 127 34 265Q34 403 112.5 474.5Q191 546 326 546Z" glyph-name="odieresis" horiz-adv-x="652" unicode="&#246;" /><glyph d="M719 393Q680 393 656 376Q632 359 626 328H801Q799 361 777 376.5Q755 392 719 393ZM326 149Q372 149 398 174.5Q424 200 424 265Q424 330 398 355.5Q372 381 326 381Q280 381 254 355.5Q228 330 228 265Q228 200 254 174.5Q280 149 326 149ZM717 546Q854 546 929.5 474.5Q1005 403 1005 264V203H624Q626 172 655 154.5Q684 137 735 137Q771 137 797.5 152Q824 167 834 188L993 111Q983 89 963 66.5Q943 44 911 25.5Q879 7 833.5 -4.5Q788 -16 728 -16Q656 -16 605 2.5Q554 21 522 56Q460 -16 326 -16Q191 -16 112.5 55.5Q34 127 34 265Q34 403 112.5 474.5Q191 546 326 546Q458 546 521 475Q553 510 601 528Q649 546 717 546Z" glyph-name="oe" horiz-adv-x="1039" unicode="&#339;" /><glyph d="M501 0Q477 -2 457 -9.5Q437 -17 423.5 -27.5Q410 -38 403.5 -50Q397 -62 399 -73Q401 -82 409.5 -90Q418 -98 442 -93Q456 -90 467 -84Q472 -81 478 -77L512 -191Q496 -201 468.5 -208.5Q441 -216 407 -216Q353 -216 319.5 -195Q286 -174 274 -125Q264 -85 278 -51.5Q292 -18 319.5 8Q347 34 382.5 51.5Q418 69 451 77Z" glyph-name="ogonek" horiz-adv-x="590" unicode="&#731;" /><glyph d="M326 800 420 592H241L130 800ZM326 149Q372 149 398 174.5Q424 200 424 265Q424 330 398 355.5Q372 381 326 381Q280 381 254 355.5Q228 330 228 265Q228 200 254 174.5Q280 149 326 149ZM326 546Q461 546 539.5 474.5Q618 403 618 265Q618 127 539.5 55.5Q461 -16 326 -16Q191 -16 112.5 55.5Q34 127 34 265Q34 403 112.5 474.5Q191 546 326 546Z" glyph-name="ograve" horiz-adv-x="652" unicode="&#242;" /><glyph d="M372 606Q333 606 304.5 594Q276 582 257.5 561Q239 540 230.5 510.5Q222 481 222 446Q222 390 232.5 347.5Q243 305 261 271.5Q279 238 302.5 210.5Q326 183 353 158V0H14V169H87L161 168Q134 198 110 231Q86 264 68 301.5Q50 339 39 381.5Q28 424 28 471Q28 538 50 594.5Q72 651 115.5 692.5Q159 734 223.5 757Q288 780 372 780Q456 780 520 757Q584 734 627.5 692.5Q671 651 693.5 594.5Q716 538 716 471Q716 424 705 381.5Q694 339 675 301.5Q656 264 632 231Q608 198 581 168L655 169H729V0H389V158Q416 183 440 210.5Q464 238 481.5 271.5Q499 305 509.5 347.5Q520 390 520 446Q520 481 511.5 510.5Q503 540 485 561Q467 582 439 594Q411 606 372 606Z" glyph-name="ohm" horiz-adv-x="742" unicode="&#59425;" /><glyph d="M636 800 525 592H346L440 800ZM420 800 309 592H130L224 800ZM326 149Q372 149 398 174.5Q424 200 424 265Q424 330 398 355.5Q372 381 326 381Q280 381 254 355.5Q228 330 228 265Q228 200 254 174.5Q280 149 326 149ZM326 546Q461 546 539.5 474.5Q618 403 618 265Q618 127 539.5 55.5Q461 -16 326 -16Q191 -16 112.5 55.5Q34 127 34 265Q34 403 112.5 474.5Q191 546 326 546Z" glyph-name="ohungarumlaut" horiz-adv-x="652" unicode="&#337;" /><glyph d="M160 780H492V616H160ZM326 149Q372 149 398 174.5Q424 200 424 265Q424 330 398 355.5Q372 381 326 381Q280 381 254 355.5Q228 330 228 265Q228 200 254 174.5Q280 149 326 149ZM326 546Q461 546 539.5 474.5Q618 403 618 265Q618 127 539.5 55.5Q461 -16 326 -16Q191 -16 112.5 55.5Q34 127 34 265Q34 403 112.5 474.5Q191 546 326 546Z" glyph-name="omacron" horiz-adv-x="652" unicode="&#333;" /><glyph d="M112 0V166H309V527Q267 502 213 483Q159 464 99 453V628Q146 644 182.5 660Q219 676 248.5 694Q278 712 302 733Q326 754 349 780H500V166H680V0Z" glyph-name="one" horiz-adv-x="742" unicode="1" /><glyph d="M56 0V166H253V527Q211 502 157 483Q103 464 43 453V628Q90 644 126.5 660Q163 676 192.5 694Q222 712 246 733Q270 754 293 780H444V166H624V0Z" glyph-name="one.LP" horiz-adv-x="640" unicode="&#58678;" /><glyph d="M13 143Q72 155 118.5 176.5Q165 198 186 223H300V-67H427V-200H22V-67H152V32Q144 30 130 26.5Q116 23 97.5 19.5Q79 16 57 13Q35 10 13 9Z" glyph-name="one.inf" horiz-adv-x="472" unicode="&#58738;" /><glyph d="M13 700Q72 712 118.5 733.5Q165 755 186 780H300V490H427V357H22V490H152V589Q144 587 130 583.5Q116 580 97.5 576.5Q79 573 57 570Q35 567 13 566Z" glyph-name="onesuperior" horiz-adv-x="472" unicode="&#185;" /><glyph d="M309 254H40V419H309Z" glyph-name="onethirdemdash" horiz-adv-x="348" unicode="&#58481;" /><glyph d="M309 308H40V473H309Z" glyph-name="onethirdemdash.cap" horiz-adv-x="348" unicode="&#58499;" /><glyph d="M189 508Q189 496 197.5 490.5Q206 485 219 485Q242 485 263 495.5Q284 506 303 535V547L216 534Q203 532 196 526Q189 520 189 508ZM241 672Q201 672 187 660.5Q173 649 166 632L39 692Q48 716 63.5 735Q79 754 104.5 767.5Q130 781 167 788Q204 795 254 795Q299 795 336 785.5Q373 776 399.5 756.5Q426 737 440.5 707Q455 677 455 635V509Q455 489 476 489Q485 489 491 491V382Q483 378 466 375Q449 372 429 372Q414 372 398 373.5Q382 375 367.5 380.5Q353 386 342 395.5Q331 405 325 422Q285 389 248.5 380.5Q212 372 171 372Q133 372 105.5 382Q78 392 60.5 409.5Q43 427 34.5 449.5Q26 472 26 497Q26 532 38 555Q50 578 72 592Q94 606 124 613.5Q154 621 189 626L303 641V646Q303 650 300.5 654.5Q298 659 291 663Q284 667 272 669.5Q260 672 241 672Z" glyph-name="ordfeminine" horiz-adv-x="521" unicode="&#170;" /><glyph d="M256 661Q222 661 201 645Q180 629 180 585Q180 541 201 525Q222 509 256 509Q289 509 310.5 525Q332 541 332 585Q332 629 310.5 645Q289 661 256 661ZM256 374Q150 374 91 428.5Q32 483 32 585Q32 687 91 741.5Q150 796 256 796Q362 796 421 741.5Q480 687 480 585Q480 483 421 428.5Q362 374 256 374Z" glyph-name="ordmasculine" horiz-adv-x="512" unicode="&#186;" /><glyph d="M424 265Q424 274 424 281.5Q424 289 423 296L311 150Q316 149 326 149Q372 149 398 174.5Q424 200 424 265ZM228 265Q228 256 228 248.5Q228 241 229 234L341 380Q336 381 326 381Q280 381 254 355.5Q228 330 228 265ZM326 546Q461 546 539.5 474.5Q618 403 618 265Q618 127 539.5 55.5Q461 -16 326 -16Q191 -16 112.5 55.5Q34 127 34 265Q34 403 112.5 474.5Q191 546 326 546Z" glyph-name="oslash" horiz-adv-x="652" unicode="&#248;" /><glyph d="M407 576Q367 576 341 588Q315 600 296 614Q277 628 262.5 640Q248 652 231 652Q217 652 210 644.5Q203 637 199 628Q195 617 194 605L70 620Q74 656 85 691Q96 726 117 754Q138 782 169.5 799Q201 816 245 816Q285 816 311 804Q337 792 356 778Q375 764 389.5 752Q404 740 421 740Q434 740 441.5 747Q449 754 453 763Q457 774 458 787L582 772Q578 736 567 701Q556 666 535 638Q514 610 482.5 593Q451 576 407 576ZM326 149Q372 149 398 174.5Q424 200 424 265Q424 330 398 355.5Q372 381 326 381Q280 381 254 355.5Q228 330 228 265Q228 200 254 174.5Q280 149 326 149ZM326 546Q461 546 539.5 474.5Q618 403 618 265Q618 127 539.5 55.5Q461 -16 326 -16Q191 -16 112.5 55.5Q34 127 34 265Q34 403 112.5 474.5Q191 546 326 546Z" glyph-name="otilde" horiz-adv-x="652" unicode="&#245;" /><glyph d="M461 265Q461 295 452 317Q443 339 428.5 353Q414 367 395 373.5Q376 380 356 380Q318 380 290 365.5Q262 351 250 328V202Q262 179 290 164.5Q318 150 356 150Q376 150 395 156.5Q414 163 428.5 177Q443 191 452 212.5Q461 234 461 265ZM250 -200H59V530H224L236 473Q263 509 307 527.5Q351 546 402 546Q525 546 591.5 475Q658 404 658 265Q658 126 591.5 55Q525 -16 402 -16Q344 -16 304.5 3.5Q265 23 250 44Z" glyph-name="p" horiz-adv-x="691" unicode="p" /><glyph d="M383 0H308V268Q254 269 203 281Q152 293 111.5 322Q71 351 46.5 400.5Q22 450 22 525Q22 602 48.5 651.5Q75 701 117.5 729.5Q160 758 214 769Q268 780 322 780H652V0H459V612H383Z" glyph-name="paragraph" horiz-adv-x="722" unicode="&#182;" /><glyph d="M222 350Q222 216 249.5 100Q277 -16 334 -130H144Q120 -91 98.5 -39Q77 13 61.5 75Q46 137 36.5 206.5Q27 276 27 350Q27 423 36.5 493Q46 563 61.5 625Q77 687 98.5 739Q120 791 144 830H334Q277 716 249.5 599.5Q222 483 222 350Z" glyph-name="parenleft" horiz-adv-x="336" unicode="(" /><glyph d="M219 390Q219 256 246.5 140Q274 24 331 -90H141Q117 -51 95.5 1Q74 53 58.5 115Q43 177 33.5 246.5Q24 316 24 390Q24 463 33.5 533Q43 603 58.5 665Q74 727 95.5 779Q117 831 141 870H331Q274 756 246.5 639.5Q219 523 219 390Z" glyph-name="parenleft.cap" horiz-adv-x="336" unicode="&#58513;" /><glyph d="M237 10Q237 -56 252 -124Q267 -192 290 -243H115Q91 -194 72.5 -131.5Q54 -69 54 10Q54 89 72.5 151.5Q91 214 115 263H290Q267 212 252 144Q237 76 237 10Z" glyph-name="parenleft.inf" horiz-adv-x="335" unicode="&#58750;" /><glyph d="M114 350Q114 483 87 599.5Q60 716 3 830H191Q216 791 237.5 739Q259 687 275 625Q291 563 300.5 493Q310 423 310 350Q310 276 300.5 206.5Q291 137 275 75Q259 13 237.5 -39Q216 -91 191 -130H3Q60 -16 87 100Q114 216 114 350Z" glyph-name="parenright" horiz-adv-x="336" unicode=")" /><glyph d="M117 390Q117 523 90 639.5Q63 756 7 870H194Q219 831 240.5 779Q262 727 278 665Q294 603 303.5 533Q313 463 313 390Q313 316 303.5 246.5Q294 177 278 115Q262 53 240.5 1Q219 -51 194 -90H7Q63 24 90 140Q117 256 117 390Z" glyph-name="parenright.cap" horiz-adv-x="336" unicode="&#58514;" /><glyph d="M97 10Q97 76 82 144Q67 212 44 263H218Q244 214 262 151.5Q280 89 280 10Q280 -69 262 -131.5Q244 -194 218 -243H44Q67 -192 82 -124Q97 -56 97 10Z" glyph-name="parenright.inf" horiz-adv-x="335" unicode="&#58751;" /><glyph d="M452 0H258L826 764H1024ZM992 423Q1104 423 1167 370Q1230 317 1230 203Q1230 90 1167 37Q1104 -16 992 -16Q879 -16 817 37Q755 90 755 203Q755 317 817 370Q879 423 992 423ZM992 111Q1010 111 1026.5 115Q1043 119 1055.5 129.5Q1068 140 1075.5 157.5Q1083 175 1083 203Q1083 231 1075.5 249Q1068 267 1055.5 277.5Q1043 288 1026.5 292Q1010 296 992 296Q974 296 957.5 292Q941 288 928.5 277.5Q916 267 908.5 249Q901 231 901 203Q901 175 908.5 157.5Q916 140 928.5 129.5Q941 119 957.5 115Q974 111 992 111ZM289 780Q401 780 463.5 727Q526 674 526 561Q526 447 463.5 394Q401 341 289 341Q176 341 113.5 394Q51 447 51 561Q51 674 113.5 727Q176 780 289 780ZM289 468Q307 468 323.5 472Q340 476 352.5 486.5Q365 497 372.5 515Q380 533 380 561Q380 589 372.5 606.5Q365 624 352.5 634.5Q340 645 323.5 649Q307 653 289 653Q270 653 253.5 649Q237 645 224.5 634.5Q212 624 204.5 606.5Q197 589 197 561Q197 533 204.5 515Q212 497 224.5 486.5Q237 476 253.5 472Q270 468 289 468Z" glyph-name="percent" horiz-adv-x="1281" unicode="%" /><glyph d="M10 101Q10 124 19 144.5Q28 165 43 180.5Q58 196 78.5 205Q99 214 123 214Q147 214 167.5 205Q188 196 203.5 180.5Q219 165 228 144.5Q237 124 237 101Q237 77 228 56.5Q219 36 203.5 20.5Q188 5 167.5 -4Q147 -13 123 -13Q99 -13 78.5 -4Q58 5 43 20.5Q28 36 19 56.5Q10 77 10 101Z" glyph-name="period" horiz-adv-x="247" unicode="." /><glyph d="M10 337Q10 360 19 380.5Q28 401 43 416.5Q58 432 78.5 441Q99 450 123 450Q147 450 167.5 441Q188 432 203.5 416.5Q219 401 228 380.5Q237 360 237 337Q237 313 228 292.5Q219 272 203.5 256.5Q188 241 167.5 232Q147 223 123 223Q99 223 78.5 232Q58 241 43 256.5Q28 272 19 292.5Q10 313 10 337Z" glyph-name="periodcentered" horiz-adv-x="247" unicode="&#183;" /><glyph d="M10 391Q10 414 19 434.5Q28 455 43 470.5Q58 486 78.5 495Q99 504 123 504Q147 504 167.5 495Q188 486 203.5 470.5Q219 455 228 434.5Q237 414 237 391Q237 367 228 346.5Q219 326 203.5 310.5Q188 295 167.5 286Q147 277 123 277Q99 277 78.5 286Q58 295 43 310.5Q28 326 19 346.5Q10 367 10 391Z" glyph-name="periodcentered.cap" horiz-adv-x="247" unicode="&#58497;" /><glyph d="M1509 423Q1622 423 1684.5 370Q1747 317 1747 203Q1747 90 1684.5 37Q1622 -16 1509 -16Q1395 -16 1333.5 37Q1272 90 1272 203Q1272 317 1333.5 370Q1395 423 1509 423ZM1509 111Q1527 111 1544 115Q1561 119 1573.5 129.5Q1586 140 1593.5 157.5Q1601 175 1601 203Q1601 231 1593.5 249Q1586 267 1573.5 277.5Q1561 288 1544 292Q1527 296 1509 296Q1491 296 1474 292Q1457 288 1444 277.5Q1431 267 1423.5 249Q1416 231 1416 203Q1416 175 1423.5 157.5Q1431 140 1444 129.5Q1457 119 1474 115Q1491 111 1509 111ZM452 0H258L826 764H1024ZM992 423Q1104 423 1167 370Q1230 317 1230 203Q1230 90 1167 37Q1104 -16 992 -16Q879 -16 817 37Q755 90 755 203Q755 317 817 370Q879 423 992 423ZM992 111Q1010 111 1026.5 115Q1043 119 1055.5 129.5Q1068 140 1075.5 157.5Q1083 175 1083 203Q1083 231 1075.5 249Q1068 267 1055.5 277.5Q1043 288 1026.5 292Q1010 296 992 296Q974 296 957.5 292Q941 288 928.5 277.5Q916 267 908.5 249Q901 231 901 203Q901 175 908.5 157.5Q916 140 928.5 129.5Q941 119 957.5 115Q974 111 992 111ZM289 780Q401 780 463.5 727Q526 674 526 561Q526 447 463.5 394Q401 341 289 341Q176 341 113.5 394Q51 447 51 561Q51 674 113.5 727Q176 780 289 780ZM289 468Q307 468 323.5 472Q340 476 352.5 486.5Q365 497 372.5 515Q380 533 380 561Q380 589 372.5 606.5Q365 624 352.5 634.5Q340 645 323.5 649Q307 653 289 653Q270 653 253.5 649Q237 645 224.5 634.5Q212 624 204.5 606.5Q197 589 197 561Q197 533 204.5 515Q212 497 224.5 486.5Q237 476 253.5 472Q270 468 289 468Z" glyph-name="perthousand" horiz-adv-x="1797" unicode="&#8240;" /><glyph d="M410 437Q425 437 441 440Q457 443 470 452.5Q483 462 491.5 479.5Q500 497 500 525Q500 553 491.5 570Q483 587 470 596.5Q457 606 441 609Q425 612 410 612H262V437ZM758 371 665 382Q645 349 616 327Q587 305 552 292Q517 279 478.5 273.5Q440 268 401 268H262V0H68V780H399Q453 780 506.5 769Q560 758 602.5 730Q645 702 671.5 653.5Q698 605 699 530H758V671L948 700V530H1075V371H948V209Q948 178 963 163Q978 148 1012 148Q1039 148 1060 155Q1081 162 1098 171Q1117 158 1144.5 150.5Q1172 143 1203.5 139.5Q1235 136 1269 135Q1303 134 1336 134Q1397 134 1424.5 141Q1452 148 1452 165Q1452 183 1428.5 190.5Q1405 198 1356 200Q1308 202 1262 207.5Q1216 213 1181 230.5Q1146 248 1124.5 280.5Q1103 313 1103 370Q1103 421 1126.5 454.5Q1150 488 1188.5 508.5Q1227 529 1275 537.5Q1323 546 1372 546Q1479 546 1541 516.5Q1603 487 1628 426L1467 350Q1458 373 1438 384.5Q1418 396 1378 396Q1349 396 1328.5 389Q1308 382 1308 367Q1308 349 1332.5 344Q1357 339 1399 336Q1445 333 1490 328.5Q1535 324 1570.5 308Q1606 292 1627.5 260Q1649 228 1649 168Q1649 114 1624 78.5Q1599 43 1559 22Q1519 1 1469 -7.5Q1419 -16 1369 -16Q1277 -16 1214.5 -9.5Q1152 -3 1108 8Q1088 -1 1057.5 -8.5Q1027 -16 985 -16Q914 -16 869.5 2.5Q825 21 800.5 51Q776 81 767 119.5Q758 158 758 198Z" glyph-name="peseta" horiz-adv-x="1673" unicode="&#8359;" /><glyph d="M277 302H82V478H277V660H465V478H661V302H465V120H277Z" glyph-name="plus" horiz-adv-x="742" unicode="+" /><glyph d="M277 302H82V478H277V660H465V478H661V302H465V120H277Z" glyph-name="plus.cap" horiz-adv-x="742" unicode="&#58769;" /><glyph d="M114 -67H32V113H114V189H307V113H389V-67H307V-144H114Z" glyph-name="plus.inf" horiz-adv-x="422" unicode="&#58747;" /><glyph d="M82 97V273H661V97ZM277 417H82V592H277V660H465V592H661V417H465V349H277Z" glyph-name="plusminus" horiz-adv-x="742" unicode="&#177;" /><glyph d="M723 0H529V596H324V0H130V596H27V764H827V596H723Z" glyph-name="product" horiz-adv-x="856" unicode="&#8719;" /><glyph d="M153 390Q153 325 179 268.5Q205 212 249.5 170Q294 128 354 103.5Q414 79 482 79Q550 79 610 103.5Q670 128 714.5 170Q759 212 785 268.5Q811 325 811 390Q811 454 785 511Q759 568 714.5 610Q670 652 610 676.5Q550 701 482 701Q414 701 354 676.5Q294 652 249.5 610Q205 568 179 511Q153 454 153 390ZM49 390Q49 474 83 547.5Q117 621 176 675.5Q235 730 313.5 762Q392 794 482 794Q572 794 650.5 762Q729 730 788 675.5Q847 621 881 547.5Q915 474 915 390Q915 306 881 232.5Q847 159 788 104.5Q729 50 650.5 18Q572 -14 482 -14Q392 -14 313.5 18Q235 50 176 104.5Q117 159 83 232.5Q49 306 49 390ZM533 408Q556 408 573.5 420Q591 432 591 464Q591 496 573.5 508.5Q556 521 533 521H432V408ZM432 298V149H311V631H536Q572 631 604 622Q636 613 660.5 592.5Q685 572 699.5 540.5Q714 509 714 464Q714 420 699.5 388.5Q685 357 660.5 337Q636 317 604 307.5Q572 298 536 298Z" glyph-name="published" horiz-adv-x="964" unicode="&#8471;" /><glyph glyph-name="punctuationspace" horiz-adv-x="301" unicode="&#8200;" /><glyph d="M231 265Q231 234 240 212.5Q249 191 263.5 177Q278 163 297 156.5Q316 150 336 150Q374 150 402 164.5Q430 179 442 202V328Q430 351 402 365.5Q374 380 336 380Q316 380 297 373.5Q278 367 263.5 353Q249 339 240 317Q231 295 231 265ZM442 44Q427 23 387.5 3.5Q348 -16 290 -16Q167 -16 100.5 55Q34 126 34 265Q34 404 100.5 475Q167 546 290 546Q341 546 385 527.5Q429 509 456 473L468 530H633V-200H442Z" glyph-name="q" horiz-adv-x="691" unicode="q" /><glyph d="M176 101Q176 124 185 144.5Q194 165 209.5 180.5Q225 196 245.5 205Q266 214 290 214Q314 214 334.5 205Q355 196 370 180.5Q385 165 394 144.5Q403 124 403 101Q403 77 394 56.5Q385 36 370 20.5Q355 5 334.5 -4Q314 -13 290 -13Q266 -13 245.5 -4Q225 5 209.5 20.5Q194 36 185 56.5Q176 77 176 101ZM208 252Q206 254 200.5 261Q195 268 189.5 280Q184 292 179.5 309Q175 326 175 347Q175 377 183.5 399Q192 421 208 437Q224 453 247 465.5Q270 478 300 489Q326 499 346 506.5Q366 514 379.5 522.5Q393 531 400 541Q407 551 407 566Q407 584 399 595.5Q391 607 378.5 613.5Q366 620 350.5 622.5Q335 625 320 625Q274 625 243.5 603.5Q213 582 199 536L24 621Q38 661 61.5 693Q85 725 120.5 748Q156 771 203.5 783.5Q251 796 313 796Q456 796 530.5 741Q605 686 605 579Q605 523 588 486.5Q571 450 543.5 425.5Q516 401 481.5 386Q447 371 413 360Q376 348 364 332.5Q352 317 352 299Q352 288 355 275.5Q358 263 362 252Z" glyph-name="question" horiz-adv-x="645" unicode="?" /><glyph d="M448 429Q448 406 439 385.5Q430 365 414.5 349.5Q399 334 378.5 325Q358 316 334 316Q310 316 289.5 325Q269 334 254 349.5Q239 365 230 385.5Q221 406 221 429Q221 453 230 473.5Q239 494 254 509.5Q269 525 289.5 534Q310 543 334 543Q358 543 378.5 534Q399 525 414.5 509.5Q430 494 439 473.5Q448 453 448 429ZM416 278Q418 276 423.5 270.5Q429 265 434.5 255Q440 245 444.5 229.5Q449 214 449 193Q449 141 417.5 113.5Q386 86 324 71Q290 63 269 56Q248 49 236.5 42Q225 35 221 26Q217 17 217 4Q217 -12 225 -21.5Q233 -31 245.5 -36.5Q258 -42 273.5 -43.5Q289 -45 304 -45Q350 -45 380.5 -23.5Q411 -2 425 44L600 -41Q586 -81 562.5 -113Q539 -145 503.5 -168Q468 -191 420.5 -203.5Q373 -216 311 -216Q168 -216 93.5 -161Q19 -106 19 -9Q19 43 33.5 77.5Q48 112 73.5 135Q99 158 134.5 172.5Q170 187 211 200Q243 211 257.5 220Q272 229 272 245Q272 253 269 260Q266 267 262 278Z" glyph-name="questiondown" horiz-adv-x="633" unicode="&#191;" /><glyph d="M469 679Q469 656 460 635.5Q451 615 435.5 599.5Q420 584 399.5 575Q379 566 355 566Q331 566 310.5 575Q290 584 275 599.5Q260 615 251 635.5Q242 656 242 679Q242 703 251 723.5Q260 744 275 759.5Q290 775 310.5 784Q331 793 355 793Q379 793 399.5 784Q420 775 435.5 759.5Q451 744 460 723.5Q469 703 469 679ZM437 528Q439 526 444.5 519Q450 512 455.5 500Q461 488 465.5 471Q470 454 470 433Q470 403 461.5 381Q453 359 437 343Q421 327 398 314.5Q375 302 345 291Q319 281 299 273.5Q279 266 265.5 257.5Q252 249 245 239Q238 229 238 214Q238 196 246 184.5Q254 173 266.5 166.5Q279 160 294.5 157.5Q310 155 325 155Q371 155 401.5 176.5Q432 198 446 244L621 159Q607 119 583.5 87Q560 55 524.5 32Q489 9 441.5 -3.5Q394 -16 332 -16Q189 -16 114.5 39Q40 94 40 201Q40 256 57 293Q74 330 101.5 354.5Q129 379 163.5 394Q198 409 232 420Q269 432 281 447.5Q293 463 293 481Q293 492 290 504.5Q287 517 283 528Z" glyph-name="questiondown.cap" horiz-adv-x="645" unicode="&#58436;" /><glyph d="M480 780 453 530H292L267 780ZM242 780 215 530H55L29 780Z" glyph-name="quotedbl" horiz-adv-x="508" unicode="&quot;" /><glyph d="M481 86 398 -164H239L268 86ZM249 86 166 -164H7L36 86Z" glyph-name="quotedblbase" horiz-adv-x="467" unicode="&#8222;" /><glyph d="M-22 530 62 780H220L191 530ZM210 530 293 780H452L422 530Z" glyph-name="quotedblleft" horiz-adv-x="466" unicode="&#8220;" /><glyph d="M488 780 404 530H246L274 780ZM256 780 175 530H14L43 780Z" glyph-name="quotedblright" horiz-adv-x="466" unicode="&#8221;" /><glyph d="M-22 530 62 780H220L191 530Z" glyph-name="quoteleft" horiz-adv-x="235" unicode="&#8216;" /><glyph d="M256 780 175 530H14L43 780Z" glyph-name="quoteright" horiz-adv-x="235" unicode="&#8217;" /><glyph d="M249 86 166 -164H7L36 86Z" glyph-name="quotesinglbase" horiz-adv-x="235" unicode="&#8218;" /><glyph d="M242 780 215 530H55L29 780Z" glyph-name="quotesingle" horiz-adv-x="269" unicode="&apos;" /><glyph d="M462 356Q454 361 435 368Q416 375 392 375Q345 375 305 358Q265 341 248 317V0H58V530H224L234 476Q263 511 302.5 528.5Q342 546 402 546Q425 546 445.5 541.5Q466 537 480 529Z" glyph-name="r" horiz-adv-x="495" unicode="r" /><glyph d="M455 800 344 592H165L259 800ZM462 356Q454 361 435 368Q416 375 392 375Q345 375 305 358Q265 341 248 317V0H58V530H224L234 476Q263 511 302.5 528.5Q342 546 402 546Q425 546 445.5 541.5Q466 537 480 529Z" glyph-name="racute" horiz-adv-x="495" unicode="&#341;" /><glyph d="M15 486 293 546 351 297 370 220 423 307 699 764H932L441 -16H231L141 325L15 301Z" glyph-name="radical" horiz-adv-x="937" unicode="&#8730;" /><glyph d="M495 800 337 592H181L23 800H206L259 741L312 800ZM462 356Q454 361 435 368Q416 375 392 375Q345 375 305 358Q265 341 248 317V0H58V530H224L234 476Q263 511 302.5 528.5Q342 546 402 546Q425 546 445.5 541.5Q466 537 480 529Z" glyph-name="rcaron" horiz-adv-x="495" unicode="&#345;" /><glyph d="M249 -62 214 -200H47L58 -62ZM462 356Q454 361 435 368Q416 375 392 375Q345 375 305 358Q265 341 248 317V0H58V530H224L234 476Q263 511 302.5 528.5Q342 546 402 546Q425 546 445.5 541.5Q466 537 480 529Z" glyph-name="rcommaaccent" horiz-adv-x="495" unicode="&#343;" /><glyph d="M60 639Q60 615 70 593.5Q80 572 97 556Q114 540 137 531Q160 522 186 522Q212 522 234.5 531Q257 540 274 556Q291 572 300.5 593.5Q310 615 310 639Q310 664 300.5 685.5Q291 707 274 723Q257 739 234.5 748.5Q212 758 186 758Q160 758 137 748.5Q114 739 97 723Q80 707 70 685.5Q60 664 60 639ZM198 650Q206 650 212 654Q218 658 218 670Q218 682 212 686.5Q206 691 198 691H156V650ZM156 551H112V730H196Q224 730 244 718Q264 706 264 670Q264 647 255 634Q246 621 232 616L263 551H216L190 611H156ZM22 640Q22 672 35 700Q48 728 70.5 749Q93 770 123 782Q153 794 187 794Q221 794 251.5 782Q282 770 304 749Q326 728 339 700Q352 672 352 640Q352 608 339 580Q326 552 304 531Q282 510 251.5 498Q221 486 187 486Q153 486 123 498Q93 510 70.5 531Q48 552 35 580Q22 608 22 640Z" glyph-name="registered" horiz-adv-x="375" unicode="&#174;" /><glyph d="M153 390Q153 325 179 268.5Q205 212 249.5 170Q294 128 354 103.5Q414 79 482 79Q550 79 610 103.5Q670 128 714.5 170Q759 212 785 268.5Q811 325 811 390Q811 454 785 511Q759 568 714.5 610Q670 652 610 676.5Q550 701 482 701Q414 701 354 676.5Q294 652 249.5 610Q205 568 179 511Q153 454 153 390ZM49 390Q49 474 83 547.5Q117 621 176 675.5Q235 730 313.5 762Q392 794 482 794Q572 794 650.5 762Q729 730 788 675.5Q847 621 881 547.5Q915 474 915 390Q915 306 881 232.5Q847 159 788 104.5Q729 50 650.5 18Q572 -14 482 -14Q392 -14 313.5 18Q235 50 176 104.5Q117 159 83 232.5Q49 306 49 390ZM510 437Q518 437 527 438Q536 439 543.5 443.5Q551 448 556 456.5Q561 465 561 479Q561 493 556 501.5Q551 510 543.5 514.5Q536 519 527 520Q518 521 510 521H412V437ZM412 149H293V631H506Q542 631 574.5 624Q607 617 631 599.5Q655 582 669.5 553Q684 524 684 479Q684 419 661 385.5Q638 352 600 338L681 149H556L486 327H412Z" glyph-name="registered.cap" horiz-adv-x="964" unicode="&#59804;" /><glyph d="M191 780 220 530H62L-22 780ZM422 780 452 530H293L210 780Z" glyph-name="reversequotedblleft" horiz-adv-x="466" unicode="&#8223;" /><glyph d="M191 780 220 530H62L-22 780Z" glyph-name="reversequoteleft" horiz-adv-x="235" unicode="&#8219;" /><glyph d="M256 696Q256 679 267 669Q278 659 295 659Q313 659 324 669Q335 679 335 696Q335 713 324 723Q313 733 295 733Q278 733 267 723Q256 713 256 696ZM167 696Q167 747 201 781.5Q235 816 295 816Q355 816 389.5 781.5Q424 747 424 696Q424 645 389.5 610.5Q355 576 295 576Q235 576 201 610.5Q167 645 167 696Z" glyph-name="ring" horiz-adv-x="590" unicode="&#730;" /><glyph d="M256 926Q256 909 267 899Q278 889 295 889Q313 889 324 899Q335 909 335 926Q335 943 324 953Q313 963 295 963Q278 963 267 953Q256 943 256 926ZM167 926Q167 977 201 1011.5Q235 1046 295 1046Q355 1046 389.5 1011.5Q424 977 424 926Q424 875 389.5 840.5Q355 806 295 806Q235 806 201 840.5Q167 875 167 926Z" glyph-name="ring.cap" horiz-adv-x="590" unicode="&#58410;" /><glyph d="M180 191Q199 159 233 146.5Q267 134 310 134Q338 134 360 141Q382 148 382 165Q382 183 358.5 190.5Q335 198 286 200Q238 202 192 207.5Q146 213 111 230.5Q76 248 54.5 280.5Q33 313 33 370Q33 421 56.5 454.5Q80 488 118.5 508.5Q157 529 205 537.5Q253 546 302 546Q409 546 471 516.5Q533 487 558 426L397 350Q388 373 368 384.5Q348 396 308 396Q279 396 258.5 389Q238 382 238 367Q238 349 262.5 344Q287 339 329 336Q375 333 420 328.5Q465 324 500.5 308Q536 292 557.5 260Q579 228 579 168Q579 114 554 78.5Q529 43 489 22Q449 1 399 -7.5Q349 -16 299 -16Q236 -16 189.5 -7Q143 2 110 19Q77 36 56.5 60Q36 84 25 114Z" glyph-name="s" horiz-adv-x="601" unicode="s" /><glyph d="M502 800 391 592H212L306 800ZM180 191Q199 159 233 146.5Q267 134 310 134Q338 134 360 141Q382 148 382 165Q382 183 358.5 190.5Q335 198 286 200Q238 202 192 207.5Q146 213 111 230.5Q76 248 54.5 280.5Q33 313 33 370Q33 421 56.5 454.5Q80 488 118.5 508.5Q157 529 205 537.5Q253 546 302 546Q409 546 471 516.5Q533 487 558 426L397 350Q388 373 368 384.5Q348 396 308 396Q279 396 258.5 389Q238 382 238 367Q238 349 262.5 344Q287 339 329 336Q375 333 420 328.5Q465 324 500.5 308Q536 292 557.5 260Q579 228 579 168Q579 114 554 78.5Q529 43 489 22Q449 1 399 -7.5Q349 -16 299 -16Q236 -16 189.5 -7Q143 2 110 19Q77 36 56.5 60Q36 84 25 114Z" glyph-name="sacute" horiz-adv-x="601" unicode="&#347;" /><glyph d="M542 800 384 592H228L70 800H253L306 741L359 800ZM180 191Q199 159 233 146.5Q267 134 310 134Q338 134 360 141Q382 148 382 165Q382 183 358.5 190.5Q335 198 286 200Q238 202 192 207.5Q146 213 111 230.5Q76 248 54.5 280.5Q33 313 33 370Q33 421 56.5 454.5Q80 488 118.5 508.5Q157 529 205 537.5Q253 546 302 546Q409 546 471 516.5Q533 487 558 426L397 350Q388 373 368 384.5Q348 396 308 396Q279 396 258.5 389Q238 382 238 367Q238 349 262.5 344Q287 339 329 336Q375 333 420 328.5Q465 324 500.5 308Q536 292 557.5 260Q579 228 579 168Q579 114 554 78.5Q529 43 489 22Q449 1 399 -7.5Q349 -16 299 -16Q236 -16 189.5 -7Q143 2 110 19Q77 36 56.5 60Q36 84 25 114Z" glyph-name="scaron" horiz-adv-x="601" unicode="&#353;" /><glyph d="M180 191Q199 159 233 146.5Q267 134 310 134Q338 134 360 141Q382 148 382 165Q382 183 358.5 190.5Q335 198 286 200Q238 202 192 207.5Q146 213 111 230.5Q76 248 54.5 280.5Q33 313 33 370Q33 421 56.5 454.5Q80 488 118.5 508.5Q157 529 205 537.5Q253 546 302 546Q409 546 471 516.5Q533 487 558 426L397 350Q388 373 368 384.5Q348 396 308 396Q279 396 258.5 389Q238 382 238 367Q238 349 262.5 344Q287 339 329 336Q375 333 420 328.5Q465 324 500.5 308Q536 292 557.5 260Q579 228 579 168Q579 120 559 87Q539 54 506 32.5Q473 11 431 0Q389 -11 345 -14L340 -33Q391 -44 420.5 -67Q450 -90 445 -132Q442 -154 430.5 -170Q419 -186 401 -196Q383 -206 360 -211Q337 -216 312 -216Q259 -216 227 -207Q195 -198 183 -193L208 -117Q215 -120 223 -124Q239 -131 258 -134Q278 -137 292 -133Q306 -129 306 -113Q306 -99 285 -89Q264 -79 228 -75L249 -14Q149 -7 97 26.5Q45 60 25 114Z" glyph-name="scedilla" horiz-adv-x="601" unicode="&#351;" /><glyph d="M65 592 223 800H379L537 592H354L301 651L248 592ZM180 191Q199 159 233 146.5Q267 134 310 134Q338 134 360 141Q382 148 382 165Q382 183 358.5 190.5Q335 198 286 200Q238 202 192 207.5Q146 213 111 230.5Q76 248 54.5 280.5Q33 313 33 370Q33 421 56.5 454.5Q80 488 118.5 508.5Q157 529 205 537.5Q253 546 302 546Q409 546 471 516.5Q533 487 558 426L397 350Q388 373 368 384.5Q348 396 308 396Q279 396 258.5 389Q238 382 238 367Q238 349 262.5 344Q287 339 329 336Q375 333 420 328.5Q465 324 500.5 308Q536 292 557.5 260Q579 228 579 168Q579 114 554 78.5Q529 43 489 22Q449 1 399 -7.5Q349 -16 299 -16Q236 -16 189.5 -7Q143 2 110 19Q77 36 56.5 60Q36 84 25 114Z" glyph-name="scircumflex" horiz-adv-x="601" unicode="&#349;" /><glyph d="M402 -62 367 -200H200L211 -62ZM180 191Q199 159 233 146.5Q267 134 310 134Q338 134 360 141Q382 148 382 165Q382 183 358.5 190.5Q335 198 286 200Q238 202 192 207.5Q146 213 111 230.5Q76 248 54.5 280.5Q33 313 33 370Q33 421 56.5 454.5Q80 488 118.5 508.5Q157 529 205 537.5Q253 546 302 546Q409 546 471 516.5Q533 487 558 426L397 350Q388 373 368 384.5Q348 396 308 396Q279 396 258.5 389Q238 382 238 367Q238 349 262.5 344Q287 339 329 336Q375 333 420 328.5Q465 324 500.5 308Q536 292 557.5 260Q579 228 579 168Q579 114 554 78.5Q529 43 489 22Q449 1 399 -7.5Q349 -16 299 -16Q236 -16 189.5 -7Q143 2 110 19Q77 36 56.5 60Q36 84 25 114Z" glyph-name="scommaaccent" horiz-adv-x="601" unicode="&#537;" /><glyph d="M221 288Q221 267 230.5 253Q240 239 258.5 230.5Q277 222 304 218Q331 214 365 211Q390 209 418.5 211.5Q447 214 471.5 223Q496 232 512 249Q528 266 528 292Q528 313 518.5 327Q509 341 491 349.5Q473 358 446.5 362Q420 366 386 369Q361 371 332 368Q303 365 278.5 355.5Q254 346 237.5 329.5Q221 313 221 288ZM94 577Q94 636 118.5 677.5Q143 719 185 745.5Q227 772 283 784Q339 796 402 796Q525 796 609.5 755Q694 714 722 620L556 539Q542 567 528 585Q514 603 496.5 613.5Q479 624 457.5 628Q436 632 407 632Q350 632 320.5 620.5Q291 609 291 590Q291 558 315 539.5Q339 521 399 516Q465 510 522 500.5Q579 491 622 468.5Q665 446 689.5 405.5Q714 365 714 297Q714 237 685.5 192.5Q657 148 615 123Q635 106 645.5 73Q656 40 656 3Q656 -56 631.5 -97.5Q607 -139 565 -165.5Q523 -192 467 -204Q411 -216 348 -216Q225 -216 140.5 -175Q56 -134 28 -40L194 41Q208 12 222 -5.5Q236 -23 253.5 -33.5Q271 -44 292.5 -48Q314 -52 343 -52Q400 -52 429.5 -40.5Q459 -29 459 -10Q459 22 435 40.5Q411 59 351 64Q285 70 227.5 79.5Q170 89 127.5 111.5Q85 134 60 174.5Q35 215 35 283Q35 343 64 387.5Q93 432 135 458Q115 475 104.5 507.5Q94 540 94 577Z" glyph-name="section" horiz-adv-x="750" unicode="&#167;" /><glyph d="M10 397Q10 421 19 441.5Q28 462 43 477.5Q58 493 78.5 502Q99 511 123 511Q147 511 167.5 502Q188 493 203.5 477.5Q219 462 228 441.5Q237 421 237 397Q237 373 228 352.5Q219 332 203.5 317Q188 302 167.5 293Q147 284 123 284Q99 284 78.5 293Q58 302 43 317Q28 332 19 352.5Q10 373 10 397ZM230 186 134 -105H-18L17 186Z" glyph-name="semicolon" horiz-adv-x="247" unicode=";" /><glyph d="M427 510 382 635 371 668 372 631V510H292V780H402L451 642L464 603L477 642L526 780H635V510H556V631L557 668L545 635L500 510ZM183 594Q183 606 173.5 611Q164 616 136 618Q113 620 92 623Q71 626 55 634.5Q39 643 29 657.5Q19 672 19 696Q19 743 52.5 764Q86 785 136 785Q190 785 217.5 769Q245 753 256 723L186 690Q174 721 139 721Q124 721 111.5 716.5Q99 712 99 700Q99 690 105 685Q111 680 138 678Q165 676 187.5 673Q210 670 226.5 662Q243 654 252 638.5Q261 623 261 596Q261 572 250.5 555Q240 538 223 527Q206 516 183 510.5Q160 505 136 505Q88 505 55 521Q22 537 10 573L76 606Q83 586 98 578Q113 570 133 570Q155 570 169 575Q183 580 183 594Z" glyph-name="servicemark" horiz-adv-x="641" unicode="&#8480;" /><glyph d="M185 0Q196 81 214.5 150Q233 219 255 276Q277 333 301 379Q325 425 349 461Q404 545 468 597L359 596H43V764H698V646Q623 577 561 482Q534 441 507.5 390.5Q481 340 458.5 280Q436 220 419 149.5Q402 79 395 0Z" glyph-name="seven" horiz-adv-x="742" unicode="7" /><glyph d="M163 0Q174 81 192.5 150Q211 219 233 276Q255 333 279 379Q303 425 327 461Q382 545 446 597L337 596H21V764H676V646Q601 577 539 482Q512 441 485.5 390.5Q459 340 436.5 280Q414 220 397 149.5Q380 79 373 0Z" glyph-name="seven.LP" horiz-adv-x="697" unicode="&#58684;" /><glyph d="M69 -200 198 18 233 75 204 74H35V207H416V118L231 -200Z" glyph-name="seven.inf" horiz-adv-x="453" unicode="&#58744;" /><glyph d="M383 364Q330 364 289.5 336.5Q249 309 232 258Q234 237 246 217Q258 197 277.5 181Q297 165 322 155.5Q347 146 375 146Q401 146 424 152Q447 158 464.5 171Q482 184 492 204.5Q502 225 502 254Q502 312 469.5 338Q437 364 383 364ZM535 539Q514 578 476 596Q438 614 399 614Q345 614 311.5 595.5Q278 577 259.5 550.5Q241 524 233.5 494Q226 464 225 440Q239 461 262 476Q285 491 312 501.5Q339 512 368 517Q397 522 424 522Q487 522 537.5 506Q588 490 623.5 457Q659 424 678 373.5Q697 323 697 254Q697 185 673.5 134.5Q650 84 608 50.5Q566 17 508 0.5Q450 -16 381 -16Q210 -16 124.5 82Q39 180 39 380Q39 575 129.5 677Q220 779 400 779Q509 779 582 735.5Q655 692 690 615Z" glyph-name="six" horiz-adv-x="742" unicode="6" /><glyph d="M390 364Q337 364 296.5 336.5Q256 309 239 258Q241 237 253 217Q265 197 284.5 181Q304 165 329 155.5Q354 146 382 146Q408 146 431 152Q454 158 471.5 171Q489 184 499 204.5Q509 225 509 254Q509 312 476.5 338Q444 364 390 364ZM542 539Q521 578 483 596Q445 614 406 614Q352 614 318.5 595.5Q285 577 266.5 550.5Q248 524 240.5 494Q233 464 232 440Q246 461 269 476Q292 491 319 501.5Q346 512 375 517Q404 522 431 522Q494 522 544.5 506Q595 490 630.5 457Q666 424 685 373.5Q704 323 704 254Q704 185 680.5 134.5Q657 84 615 50.5Q573 17 515 0.5Q457 -16 388 -16Q217 -16 131.5 82Q46 180 46 380Q46 575 136.5 677Q227 779 407 779Q516 779 589 735.5Q662 692 697 615Z" glyph-name="six.LP" horiz-adv-x="750" unicode="&#58683;" /><glyph d="M252 -24Q231 -24 211 -33.5Q191 -43 183 -61Q187 -76 207 -87Q227 -98 247 -98Q267 -98 285 -90Q303 -82 303 -62Q303 -42 287 -33Q271 -24 252 -24ZM323 83Q318 94 306 99Q294 104 270 104Q256 104 240.5 101Q225 98 211.5 90Q198 82 188.5 68Q179 54 177 31Q196 51 231 61.5Q266 72 308 72Q337 72 362.5 66Q388 60 407.5 45.5Q427 31 438 5.5Q449 -20 449 -59Q449 -100 433.5 -129.5Q418 -159 391 -178Q364 -197 327.5 -206.5Q291 -216 250 -216Q147 -216 92.5 -162Q38 -108 38 3Q38 109 94 166Q150 223 259 223Q288 223 316.5 219.5Q345 216 369.5 204.5Q394 193 413 172Q432 151 443 117Z" glyph-name="six.inf" horiz-adv-x="484" unicode="&#58743;" /><glyph glyph-name="sixperemspace" horiz-adv-x="180" unicode="&#8198;" /><glyph d="M202 -67H8L253 893H447Z" glyph-name="slash" horiz-adv-x="455" unicode="/" /><glyph d="M219 -20H25L235 800H429Z" glyph-name="slash.cap" horiz-adv-x="453" unicode="&#58465;" /><glyph glyph-name="space" horiz-adv-x="224" unicode=" " /><glyph d="M479 790Q493 771 518 742.5Q543 714 576 682Q609 650 648.5 618Q688 586 731 560Q765 539 797 515.5Q829 492 854 464.5Q879 437 893.5 405Q908 373 908 334Q908 297 893 265.5Q878 234 852 210.5Q826 187 791.5 173.5Q757 160 717 160Q677 160 644 173.5Q611 187 584 209.5Q557 232 536.5 261Q516 290 503 321L499 320Q503 269 510 227Q517 185 527.5 147Q538 109 552.5 73Q567 37 587 0H371Q390 37 404.5 73Q419 109 429.5 147Q440 185 447 227Q454 269 458 320L456 321Q442 290 421 261Q400 232 373 209.5Q346 187 313 173.5Q280 160 240 160Q201 160 166.5 173.5Q132 187 106.5 210.5Q81 234 66 265.5Q51 297 51 334Q51 373 65.5 405Q80 437 104 464.5Q128 492 160 515.5Q192 539 227 560Q270 586 309.5 618Q349 650 382 682Q415 714 440 742.5Q465 771 478 790Z" glyph-name="spade" horiz-adv-x="957" unicode="&#9824;" /><glyph d="M397 390 310 472 436 590 525 508 613 590 740 472 651 390 740 308 613 190 525 272 436 190 310 308ZM292 611V169H758V611ZM106 780H945V0H106Z" glyph-name="squaremultiply" horiz-adv-x="1049" unicode="&#8864;" /><glyph d="M610 530Q604 549 596.5 565.5Q589 582 575 594.5Q561 607 537.5 614Q514 621 477 621Q405 621 370.5 591Q336 561 336 497V469H581V310H336V167H776V0H34V167H147V310H34V469H147V498Q147 643 230.5 711.5Q314 780 497 780Q552 780 599 767Q646 754 683 731.5Q720 709 746.5 679Q773 649 787 615Z" glyph-name="sterling" horiz-adv-x="804" unicode="&#163;" /><glyph d="M667 764V596H510L373 597L579 454V327L373 167L510 168H683V0H25V153L350 390L34 603V764Z" glyph-name="summation" horiz-adv-x="707" unicode="&#8721;" /><glyph d="M118 371 19 383V530H118V671L308 700V530H465V371H308V209Q308 178 323 163Q338 148 372 148Q399 148 420 155Q441 162 458 171L475 12Q456 1 423 -7.5Q390 -16 345 -16Q274 -16 229.5 2.5Q185 21 160.5 51Q136 81 127 119.5Q118 158 118 198Z" glyph-name="t" horiz-adv-x="508" unicode="t" /><glyph d="M23 333H118V371L19 383V530H118V671L308 700V530H465V371H308V333H440V209H308Q308 178 323 163Q338 148 372 148Q399 148 420 155Q441 162 458 171L475 12Q456 1 423 -7.5Q390 -16 345 -16Q274 -16 229.5 2.5Q185 21 160.5 51Q136 81 127 119.5Q118 158 118 198V209H23Z" glyph-name="tbar" horiz-adv-x="508" unicode="&#359;" /><glyph d="M575 800 494 570H353L382 800ZM118 371 19 383V530H118V671L308 700V530H465V371H308V209Q308 178 323 163Q338 148 372 148Q399 148 420 155Q441 162 458 171L475 12Q456 1 423 -7.5Q390 -16 345 -16Q274 -16 229.5 2.5Q185 21 160.5 51Q136 81 127 119.5Q118 158 118 198Z" glyph-name="tcaron" horiz-adv-x="508" unicode="&#357;" /><glyph d="M383 -62 348 -200H181L192 -62ZM118 371 19 383V530H118V671L308 700V530H465V371H308V209Q308 178 323 163Q338 148 372 148Q399 148 420 155Q441 162 458 171L475 12Q456 1 423 -7.5Q390 -16 345 -16Q274 -16 229.5 2.5Q185 21 160.5 51Q136 81 127 119.5Q118 158 118 198Z" glyph-name="tcommaaccent" horiz-adv-x="508" unicode="&#355;" /><glyph glyph-name="thinspace" horiz-adv-x="215" unicode="&#8201;" /><glyph d="M461 265Q461 295 452 317Q443 339 428.5 353Q414 367 395 373.5Q376 380 356 380Q318 380 290 365.5Q262 351 250 328V202Q262 179 290 164.5Q318 150 356 150Q376 150 395 156.5Q414 163 428.5 177Q443 191 452 212.5Q461 234 461 265ZM250 800V486Q265 507 304.5 526.5Q344 546 402 546Q525 546 591.5 475Q658 404 658 265Q658 126 591.5 55Q525 -16 402 -16Q344 -16 304.5 3.5Q265 23 250 44V-200H59V772Z" glyph-name="thorn" horiz-adv-x="680" unicode="&#254;" /><glyph d="M205 261Q224 210 264.5 181.5Q305 153 377 153Q449 153 482 176Q515 199 515 234Q515 257 507.5 271.5Q500 286 485 294Q470 302 448.5 305Q427 308 399 308H271V473H399Q443 473 464 487.5Q485 502 485 538Q485 578 451.5 594.5Q418 611 368 611Q312 611 273 589Q234 567 211 510L51 584Q64 627 91 663Q118 699 158 725Q198 751 251.5 765.5Q305 780 370 780Q433 780 489 767Q545 754 587 726Q629 698 653.5 654Q678 610 678 548Q678 492 658 455Q638 418 601 397Q645 381 676.5 334Q708 287 708 215Q708 166 688 123.5Q668 81 627 50Q586 19 523 1.5Q460 -16 374 -16Q300 -16 243 -2Q186 12 145.5 37.5Q105 63 79 99Q53 135 40 180Z" glyph-name="three" horiz-adv-x="742" unicode="3" /><glyph d="M201 261Q220 210 260.5 181.5Q301 153 373 153Q445 153 478 176Q511 199 511 234Q511 257 503.5 271.5Q496 286 481 294Q466 302 444.5 305Q423 308 395 308H267V473H395Q439 473 460 487.5Q481 502 481 538Q481 578 447.5 594.5Q414 611 364 611Q308 611 269 589Q230 567 207 510L47 584Q60 627 87 663Q114 699 154 725Q194 751 247.5 765.5Q301 780 366 780Q429 780 485 767Q541 754 583 726Q625 698 649.5 654Q674 610 674 548Q674 492 654 455Q634 418 597 397Q641 381 672.5 334Q704 287 704 215Q704 166 684 123.5Q664 81 623 50Q582 19 519 1.5Q456 -16 370 -16Q296 -16 239 -2Q182 12 141.5 37.5Q101 63 75 99Q49 135 36 180Z" glyph-name="three.LP" horiz-adv-x="744" unicode="&#58680;" /><glyph d="M444 -77Q444 -140 393 -178Q342 -216 234 -216Q138 -216 87.5 -178.5Q37 -141 33 -60L184 -50Q186 -71 202.5 -77.5Q219 -84 242 -84Q298 -84 298 -56Q298 -35 250 -35H169V52H252Q266 52 275 58Q284 64 284 71Q284 80 275 88Q266 96 247 96Q224 95 209.5 89Q195 83 193 62L41 72Q46 155 96.5 189Q147 223 242 223Q279 223 314 216Q349 209 376 193Q403 177 419.5 151Q436 125 436 87Q436 57 427 40Q418 23 408 10Q425 -1 434.5 -21.5Q444 -42 444 -77Z" glyph-name="three.inf" horiz-adv-x="484" unicode="&#58740;" /><glyph glyph-name="threeperemspace" horiz-adv-x="358" unicode="&#8196;" /><glyph d="M755 254H40V419H755Z" glyph-name="threequarteremdash" horiz-adv-x="798" unicode="&#58482;" /><glyph d="M755 308H40V473H755Z" glyph-name="threequarteremdash.cap" horiz-adv-x="798" unicode="&#58501;" /><glyph d="M444 480Q444 417 393 379Q342 341 234 341Q138 341 87.5 378.5Q37 416 33 497L184 507Q186 486 202.5 479.5Q219 473 242 473Q298 473 298 501Q298 522 250 522H169V609H252Q266 609 275 615Q284 621 284 628Q284 637 275 645Q266 653 247 653Q224 652 209.5 646Q195 640 193 619L41 629Q46 712 96.5 746Q147 780 242 780Q279 780 314 773Q349 766 376 750Q403 734 419.5 708Q436 682 436 644Q436 614 427 597Q418 580 408 567Q425 556 434.5 535.5Q444 515 444 480Z" glyph-name="threesuperior" horiz-adv-x="484" unicode="&#179;" /><glyph d="M376 576Q336 576 310 588Q284 600 265 614Q246 628 231.5 640Q217 652 200 652Q186 652 179 644.5Q172 637 168 628Q164 617 163 605L39 620Q43 656 54 691Q65 726 86 754Q107 782 138.5 799Q170 816 214 816Q254 816 280 804Q306 792 325 778Q344 764 358.5 752Q373 740 390 740Q403 740 410.5 747Q418 754 422 763Q426 774 427 787L551 772Q547 736 536 701Q525 666 504 638Q483 610 451.5 593Q420 576 376 576Z" glyph-name="tilde" horiz-adv-x="590" unicode="&#732;" /><glyph d="M376 806Q336 806 310 818Q284 830 265 844Q246 858 231.5 870Q217 882 200 882Q186 882 179 874.5Q172 867 168 858Q164 847 163 835L39 850Q43 886 54 921Q65 956 86 984Q107 1012 138.5 1029Q170 1046 214 1046Q254 1046 280 1034Q306 1022 325 1008Q344 994 358.5 982Q373 970 390 970Q403 970 410.5 977Q418 984 422 993Q426 1004 427 1017L551 1002Q547 966 536 931Q525 896 504 868Q483 840 451.5 823Q420 806 376 806Z" glyph-name="tilde.cap" horiz-adv-x="590" unicode="&#58404;" /><glyph d="M167 510H90V711H5V780H252V711H167ZM420 510 375 635 363 668 364 631V510H285V780H394L444 642L456 603L469 642L519 780H628V510H549V631L550 668L538 635L493 510Z" glyph-name="trademark" horiz-adv-x="633" unicode="&#8482;" /><glyph d="M828 780 411 171 -10 780Z" glyph-name="triagdn" horiz-adv-x="819" unicode="&#9660;" /><glyph d="M697 0 40 390 697 780Z" glyph-name="triaglf" horiz-adv-x="819" unicode="&#9668;" /><glyph d="M27 780 684 390 27 0Z" glyph-name="triagrt" horiz-adv-x="819" unicode="&#9658;" /><glyph d="M-10 0 411 609 828 0Z" glyph-name="triagup" horiz-adv-x="819" unicode="&#9650;" /><glyph d="M717 780 691 530H530L504 780ZM480 780 453 530H292L267 780ZM242 780 215 530H55L29 780Z" glyph-name="tripleprime" horiz-adv-x="745" unicode="&#8244;" /><glyph d="M40 0V16Q40 85 50 137Q60 189 78 227.5Q96 266 123 294.5Q150 323 184 345.5Q218 368 259.5 386Q301 404 348 423Q387 439 417 451Q447 463 466.5 475Q486 487 496 501.5Q506 516 506 537Q506 612 386 612Q326 612 281.5 588Q237 564 217 507L52 587Q70 631 96.5 667Q123 703 162.5 728Q202 753 257 766.5Q312 780 386 780Q533 780 615 719.5Q697 659 697 537Q697 479 677.5 439.5Q658 400 625 371.5Q592 343 547 322.5Q502 302 451 284Q363 252 310.5 225Q258 198 247 162L363 165H711V0Z" glyph-name="two" horiz-adv-x="742" unicode="2" /><glyph d="M44 0V16Q44 85 54 137Q64 189 82 227.5Q100 266 127 294.5Q154 323 188 345.5Q222 368 263.5 386Q305 404 352 423Q391 439 421 451Q451 463 470.5 475Q490 487 500 501.5Q510 516 510 537Q510 612 390 612Q330 612 285.5 588Q241 564 221 507L56 587Q74 631 100.5 667Q127 703 166.5 728Q206 753 261 766.5Q316 780 390 780Q537 780 619 719.5Q701 659 701 537Q701 479 681.5 439.5Q662 400 629 371.5Q596 343 551 322.5Q506 302 455 284Q367 252 314.5 225Q262 198 251 162L367 165H715V0Z" glyph-name="two.LP" horiz-adv-x="752" unicode="&#58679;" /><glyph d="M41 -200Q39 -130 51.5 -86Q64 -42 89.5 -16Q115 10 151 24Q187 38 232 48Q261 55 273.5 59.5Q286 64 286 74Q286 83 275.5 89Q265 95 245 95Q219 95 207 85.5Q195 76 192 53L40 63Q43 107 59 137.5Q75 168 102 187Q129 206 165.5 214.5Q202 223 245 223Q333 223 384.5 187Q436 151 436 79Q436 43 422.5 21Q409 -1 387 -13.5Q365 -26 335.5 -32.5Q306 -39 275 -45Q252 -50 234 -55Q216 -60 211 -70L264 -68H444V-200Z" glyph-name="two.inf" horiz-adv-x="482" unicode="&#58739;" /><glyph d="M41 357Q39 427 51.5 471Q64 515 89.5 541Q115 567 151 581Q187 595 232 605Q261 612 273.5 616.5Q286 621 286 631Q286 640 275.5 646Q265 652 245 652Q219 652 207 642.5Q195 633 192 610L40 620Q43 664 59 694.5Q75 725 102 744Q129 763 165.5 771.5Q202 780 245 780Q333 780 384.5 744Q436 708 436 636Q436 600 422.5 578Q409 556 387 543.5Q365 531 335.5 524.5Q306 518 275 512Q252 507 234 502Q216 497 211 487L264 489H444V357Z" glyph-name="twosuperior" horiz-adv-x="482" unicode="&#178;" /><glyph d="M435 53Q405 21 361.5 2.5Q318 -16 247 -16Q203 -16 166.5 -5Q130 6 103 30Q76 54 61 91.5Q46 129 46 181V530H236V204Q236 178 254.5 164Q273 150 307 150Q348 150 379.5 165.5Q411 181 426 201V530H616V175Q616 138 647 138Q655 138 660.5 139Q666 140 668 141V0Q658 -6 638 -11Q618 -16 582 -16Q540 -16 498.5 -1Q457 14 435 53Z" glyph-name="u" horiz-adv-x="686" unicode="u" /><glyph d="M526 800 415 592H236L330 800ZM435 53Q405 21 361.5 2.5Q318 -16 247 -16Q203 -16 166.5 -5Q130 6 103 30Q76 54 61 91.5Q46 129 46 181V530H236V204Q236 178 254.5 164Q273 150 307 150Q348 150 379.5 165.5Q411 181 426 201V530H616V175Q616 138 647 138Q655 138 660.5 139Q666 140 668 141V0Q658 -6 638 -11Q618 -16 582 -16Q540 -16 498.5 -1Q457 14 435 53Z" glyph-name="uacute" horiz-adv-x="686" unicode="&#250;" /><glyph d="M330 576Q271 576 230 591Q189 606 163.5 634.5Q138 663 127 704.5Q116 746 117 800H257Q256 766 273.5 752Q291 738 330 738Q369 738 386.5 752Q404 766 403 800H543Q544 746 533 704.5Q522 663 496.5 634.5Q471 606 430 591Q389 576 330 576ZM435 53Q405 21 361.5 2.5Q318 -16 247 -16Q203 -16 166.5 -5Q130 6 103 30Q76 54 61 91.5Q46 129 46 181V530H236V204Q236 178 254.5 164Q273 150 307 150Q348 150 379.5 165.5Q411 181 426 201V530H616V175Q616 138 647 138Q655 138 660.5 139Q666 140 668 141V0Q658 -6 638 -11Q618 -16 582 -16Q540 -16 498.5 -1Q457 14 435 53Z" glyph-name="ubreve" horiz-adv-x="686" unicode="&#365;" /><glyph d="M94 592 252 800H408L566 592H383L330 651L277 592ZM435 53Q405 21 361.5 2.5Q318 -16 247 -16Q203 -16 166.5 -5Q130 6 103 30Q76 54 61 91.5Q46 129 46 181V530H236V204Q236 178 254.5 164Q273 150 307 150Q348 150 379.5 165.5Q411 181 426 201V530H616V175Q616 138 647 138Q655 138 660.5 139Q666 140 668 141V0Q658 -6 638 -11Q618 -16 582 -16Q540 -16 498.5 -1Q457 14 435 53Z" glyph-name="ucircumflex" horiz-adv-x="686" unicode="&#251;" /><glyph d="M345 690Q345 713 353.5 733Q362 753 377 768Q392 783 412 791.5Q432 800 455 800Q478 800 498 791.5Q518 783 533 768Q548 753 556.5 733Q565 713 565 690Q565 667 556.5 647Q548 627 533 612Q518 597 498 588.5Q478 580 455 580Q432 580 412 588.5Q392 597 377 612Q362 627 353.5 647Q345 667 345 690ZM95 690Q95 713 103.5 733Q112 753 127 768Q142 783 162 791.5Q182 800 205 800Q228 800 248 791.5Q268 783 283 768Q298 753 306.5 733Q315 713 315 690Q315 667 306.5 647Q298 627 283 612Q268 597 248 588.5Q228 580 205 580Q182 580 162 588.5Q142 597 127 612Q112 627 103.5 647Q95 667 95 690ZM435 53Q405 21 361.5 2.5Q318 -16 247 -16Q203 -16 166.5 -5Q130 6 103 30Q76 54 61 91.5Q46 129 46 181V530H236V204Q236 178 254.5 164Q273 150 307 150Q348 150 379.5 165.5Q411 181 426 201V530H616V175Q616 138 647 138Q655 138 660.5 139Q666 140 668 141V0Q658 -6 638 -11Q618 -16 582 -16Q540 -16 498.5 -1Q457 14 435 53Z" glyph-name="udieresis" horiz-adv-x="686" unicode="&#252;" /><glyph d="M330 800 424 592H245L134 800ZM435 53Q405 21 361.5 2.5Q318 -16 247 -16Q203 -16 166.5 -5Q130 6 103 30Q76 54 61 91.5Q46 129 46 181V530H236V204Q236 178 254.5 164Q273 150 307 150Q348 150 379.5 165.5Q411 181 426 201V530H616V175Q616 138 647 138Q655 138 660.5 139Q666 140 668 141V0Q658 -6 638 -11Q618 -16 582 -16Q540 -16 498.5 -1Q457 14 435 53Z" glyph-name="ugrave" horiz-adv-x="686" unicode="&#249;" /><glyph d="M640 800 529 592H350L444 800ZM424 800 313 592H134L228 800ZM435 53Q405 21 361.5 2.5Q318 -16 247 -16Q203 -16 166.5 -5Q130 6 103 30Q76 54 61 91.5Q46 129 46 181V530H236V204Q236 178 254.5 164Q273 150 307 150Q348 150 379.5 165.5Q411 181 426 201V530H616V175Q616 138 647 138Q655 138 660.5 139Q666 140 668 141V0Q658 -6 638 -11Q618 -16 582 -16Q540 -16 498.5 -1Q457 14 435 53Z" glyph-name="uhungarumlaut" horiz-adv-x="686" unicode="&#369;" /><glyph d="M164 780H496V616H164ZM435 53Q405 21 361.5 2.5Q318 -16 247 -16Q203 -16 166.5 -5Q130 6 103 30Q76 54 61 91.5Q46 129 46 181V530H236V204Q236 178 254.5 164Q273 150 307 150Q348 150 379.5 165.5Q411 181 426 201V530H616V175Q616 138 647 138Q655 138 660.5 139Q666 140 668 141V0Q658 -6 638 -11Q618 -16 582 -16Q540 -16 498.5 -1Q457 14 435 53Z" glyph-name="umacron" horiz-adv-x="686" unicode="&#363;" /><glyph d="M21 -200V-33H336V-200Z" glyph-name="underscore" horiz-adv-x="354" unicode="_" /><glyph d="M18 -200V-33H750V-200Z" glyph-name="underscoremonospace" horiz-adv-x="771" unicode="&#65343;" /><glyph d="M40 254V419H354V254Z" glyph-name="uni00AD" horiz-adv-x="394" unicode="&#173;" /><glyph d="M205 592 316 800H495L401 592Z" glyph-name="uni0312" horiz-adv-x="635" unicode="&#786;" /><glyph d="M405 -120Q405 -165 380 -187.5Q355 -210 295 -210Q235 -210 210 -187.5Q185 -165 185 -120Q185 -75 210 -52.5Q235 -30 295 -30Q355 -30 380 -52.5Q405 -75 405 -120Z" glyph-name="uni0323" horiz-adv-x="590" unicode="&#803;" /><glyph d="M263 -200V-40H371V-200Z" glyph-name="uni0329" horiz-adv-x="635" unicode="&#809;" /><glyph d="M210 545V448H365Q392 448 408.5 457.5Q425 467 425 498Q425 527 409 536Q393 545 365 545ZM371 219Q382 219 394.5 220Q407 221 418 226.5Q429 232 436.5 242.5Q444 253 444 272Q444 291 437.5 302Q431 313 421 319Q411 325 398.5 326.5Q386 328 374 328H210V219ZM285 100 259 0H130L156 100H68V664H299L325 764H455L428 660Q455 656 480.5 647Q506 638 526 620.5Q546 603 558 575.5Q570 548 570 508Q570 470 556 441Q542 412 518 397Q555 386 572.5 350Q590 314 590 269Q590 216 572.5 183Q555 150 525 131.5Q495 113 456.5 106.5Q418 100 376 100Z" glyph-name="uni0E3F" horiz-adv-x="621" unicode="&#3647;" /><glyph d="M1455 254H40V419H1455Z" glyph-name="uni2015" horiz-adv-x="1495" unicode="&#8213;" /><glyph d="M1455 308H40V473H1455Z" glyph-name="uni2015.cap" horiz-adv-x="1495" unicode="&#58504;" /><glyph d="M289 780Q400 780 463.5 726.5Q527 673 527 561Q527 448 463.5 394.5Q400 341 289 341Q177 341 113.5 394.5Q50 448 50 561Q50 674 113.5 727Q177 780 289 780ZM289 473Q307 473 323 477Q339 481 350.5 490.5Q362 500 369 517Q376 534 376 561Q376 587 369 604Q362 621 350.5 630.5Q339 640 323 644Q307 648 289 648Q252 648 227 630.5Q202 613 202 561Q202 508 227 490.5Q252 473 289 473Z" glyph-name="uni2070" horiz-adv-x="577" unicode="&#8304;" /><glyph d="M276 612H390V535H426V402H390V357H242V402H25V491L184 764H346L243 591L208 534L237 535H242V559Z" glyph-name="uni2074" horiz-adv-x="453" unicode="&#8308;" /><glyph d="M55 536 81 764H409V633H204L199 602Q216 616 239.5 621Q263 626 291 626Q320 626 345.5 620.5Q371 615 389.5 600Q408 585 419 559Q430 533 430 491Q430 450 414.5 421.5Q399 393 372.5 375Q346 357 310 349Q274 341 233 341Q139 341 91 377.5Q43 414 38 492L190 503Q191 481 204.5 474Q218 467 235 468Q253 468 265.5 476Q278 484 279 501Q279 515 270 525Q261 535 237 535Q220 536 205 529.5Q190 523 183 510Z" glyph-name="uni2075" horiz-adv-x="469" unicode="&#8309;" /><glyph d="M252 533Q231 533 211 523.5Q191 514 183 496Q187 481 207 470Q227 459 247 459Q267 459 285 467Q303 475 303 495Q303 515 287 524Q271 533 252 533ZM323 640Q318 651 306 656Q294 661 270 661Q256 661 240.5 658Q225 655 211.5 647Q198 639 188.5 625Q179 611 177 588Q196 608 231 618.5Q266 629 308 629Q337 629 362.5 623Q388 617 407.5 602.5Q427 588 438 562.5Q449 537 449 498Q449 457 433.5 427.5Q418 398 391 379Q364 360 327.5 350.5Q291 341 250 341Q147 341 92.5 395Q38 449 38 560Q38 666 94 723Q150 780 259 780Q288 780 316.5 776.5Q345 773 369.5 761.5Q394 750 413 729Q432 708 443 674Z" glyph-name="uni2076" horiz-adv-x="484" unicode="&#8310;" /><glyph d="M69 357 198 575 233 632 204 631H35V764H416V675L231 357Z" glyph-name="uni2077" horiz-adv-x="453" unicode="&#8311;" /><glyph d="M240 341Q38 341 38 475Q38 510 49 531.5Q60 553 80 567Q51 596 51 646Q51 685 67 711Q83 737 109 752Q135 767 169.5 773.5Q204 780 240 780Q276 780 310 773.5Q344 767 370.5 752Q397 737 412.5 711Q428 685 428 646Q428 596 399 567Q418 553 429 531.5Q440 510 440 475Q440 341 240 341ZM240 468Q262 468 275 472.5Q288 477 288 490Q288 503 273.5 507.5Q259 512 240 512Q220 512 205.5 507.5Q191 503 191 490Q191 477 204 472.5Q217 468 240 468ZM240 615Q260 615 273 619.5Q286 624 286 634Q286 645 272.5 649Q259 653 240 653Q220 653 207 649Q194 645 194 634Q194 624 206.5 619.5Q219 615 240 615Z" glyph-name="uni2078" horiz-adv-x="479" unicode="&#8312;" /><glyph d="M235 588Q256 588 276 597.5Q296 607 304 625Q300 640 280 651Q260 662 240 662Q220 662 202 654Q184 646 184 626Q184 606 200 597Q216 588 235 588ZM164 481Q169 470 181 465Q193 460 217 460Q231 460 246.5 463Q262 466 275.5 474Q289 482 298.5 496Q308 510 310 533Q291 513 256 502.5Q221 492 179 492Q150 492 124.5 498Q99 504 79.5 518.5Q60 533 49 558.5Q38 584 38 623Q38 663 53.5 693Q69 723 96 742Q123 761 159.5 770.5Q196 780 237 780Q340 780 394.5 726Q449 672 449 561Q449 455 393 398Q337 341 228 341Q199 341 170.5 344.5Q142 348 117.5 359.5Q93 371 74 391.5Q55 412 44 447Z" glyph-name="uni2079" horiz-adv-x="484" unicode="&#8313;" /><glyph d="M114 490H32V670H114V746H307V670H389V490H307V413H114Z" glyph-name="uni207A" horiz-adv-x="422" unicode="&#8314;" /><glyph d="M33 490V670H389V490Z" glyph-name="uni207B" horiz-adv-x="422" unicode="&#8315;" /><glyph d="M33 596V755H389V596ZM33 404V564H389V404Z" glyph-name="uni207C" horiz-adv-x="422" unicode="&#8316;" /><glyph d="M237 567Q237 501 252 433Q267 365 290 314H115Q91 363 72.5 425.5Q54 488 54 567Q54 646 72.5 708.5Q91 771 115 820H290Q267 769 252 701Q237 633 237 567Z" glyph-name="uni207D" horiz-adv-x="335" unicode="&#8317;" /><glyph d="M97 567Q97 633 82 701Q67 769 44 820H218Q244 771 262 708.5Q280 646 280 567Q280 488 262 425.5Q244 363 218 314H44Q67 365 82 433Q97 501 97 567Z" glyph-name="uni207E" horiz-adv-x="335" unicode="&#8318;" /><glyph d="M289 423Q400 423 463.5 369.5Q527 316 527 204Q527 91 463.5 37.5Q400 -16 289 -16Q177 -16 113.5 37.5Q50 91 50 204Q50 317 113.5 370Q177 423 289 423ZM289 116Q307 116 323 120Q339 124 350.5 133.5Q362 143 369 160Q376 177 376 204Q376 230 369 247Q362 264 350.5 273.5Q339 283 323 287Q307 291 289 291Q252 291 227 273.5Q202 256 202 204Q202 151 227 133.5Q252 116 289 116Z" glyph-name="uni2080" horiz-adv-x="577" unicode="&#8320;" /><glyph d="M13 343Q72 355 118.5 376.5Q165 398 186 423H300V133H427V0H22V133H152V232Q144 230 130 226.5Q116 223 97.5 219.5Q79 216 57 213Q35 210 13 209Z" glyph-name="uni2081" horiz-adv-x="472" unicode="&#8321;" /><glyph d="M41 0Q39 70 51.5 114Q64 158 89.5 184Q115 210 151 224Q187 238 232 248Q261 255 273.5 259.5Q286 264 286 274Q286 283 275.5 289Q265 295 245 295Q219 295 207 285.5Q195 276 192 253L40 263Q43 307 59 337.5Q75 368 102 387Q129 406 165.5 414.5Q202 423 245 423Q333 423 384.5 387Q436 351 436 279Q436 243 422.5 221Q409 199 387 186.5Q365 174 335.5 167.5Q306 161 275 155Q252 150 234 145Q216 140 211 130L264 132H444V0Z" glyph-name="uni2082" horiz-adv-x="482" unicode="&#8322;" /><glyph d="M444 123Q444 60 393 22Q342 -16 234 -16Q138 -16 87.5 21.5Q37 59 33 140L184 150Q186 129 202.5 122.5Q219 116 242 116Q298 116 298 144Q298 165 250 165H169V252H252Q266 252 275 258Q284 264 284 271Q284 280 275 288Q266 296 247 296Q224 295 209.5 289Q195 283 193 262L41 272Q46 355 96.5 389Q147 423 242 423Q279 423 314 416Q349 409 376 393Q403 377 419.5 351Q436 325 436 287Q436 257 427 240Q418 223 408 210Q425 199 434.5 178.5Q444 158 444 123Z" glyph-name="uni2083" horiz-adv-x="484" unicode="&#8323;" /><glyph d="M276 255H390V178H426V45H390V0H242V45H25V134L184 407H346L243 234L208 177L237 178H242V202Z" glyph-name="uni2084" horiz-adv-x="453" unicode="&#8324;" /><glyph d="M55 179 81 407H409V276H204L199 245Q216 259 239.5 264Q263 269 291 269Q320 269 345.5 263.5Q371 258 389.5 243Q408 228 419 202Q430 176 430 134Q430 93 414.5 64.5Q399 36 372.5 18Q346 0 310 -8Q274 -16 233 -16Q139 -16 91 20.5Q43 57 38 135L190 146Q191 124 204.5 117Q218 110 235 111Q253 111 265.5 119Q278 127 279 144Q279 158 270 168Q261 178 237 178Q220 179 205 172.5Q190 166 183 153Z" glyph-name="uni2085" horiz-adv-x="469" unicode="&#8325;" /><glyph d="M252 176Q231 176 211 166.5Q191 157 183 139Q187 124 207 113Q227 102 247 102Q267 102 285 110Q303 118 303 138Q303 158 287 167Q271 176 252 176ZM323 283Q318 294 306 299Q294 304 270 304Q256 304 240.5 301Q225 298 211.5 290Q198 282 188.5 268Q179 254 177 231Q196 251 231 261.5Q266 272 308 272Q337 272 362.5 266Q388 260 407.5 245.5Q427 231 438 205.5Q449 180 449 141Q449 100 433.5 70.5Q418 41 391 22Q364 3 327.5 -6.5Q291 -16 250 -16Q147 -16 92.5 38Q38 92 38 203Q38 309 94 366Q150 423 259 423Q288 423 316.5 419.5Q345 416 369.5 404.5Q394 393 413 372Q432 351 443 317Z" glyph-name="uni2086" horiz-adv-x="484" unicode="&#8326;" /><glyph d="M69 0 198 218 233 275 204 274H35V407H416V318L231 0Z" glyph-name="uni2087" horiz-adv-x="453" unicode="&#8327;" /><glyph d="M240 -16Q38 -16 38 118Q38 153 49 174.5Q60 196 80 210Q51 239 51 289Q51 328 67 354Q83 380 109 395Q135 410 169.5 416.5Q204 423 240 423Q276 423 310 416.5Q344 410 370.5 395Q397 380 412.5 354Q428 328 428 289Q428 239 399 210Q418 196 429 174.5Q440 153 440 118Q440 -16 240 -16ZM240 111Q262 111 275 115.5Q288 120 288 133Q288 146 273.5 150.5Q259 155 240 155Q220 155 205.5 150.5Q191 146 191 133Q191 120 204 115.5Q217 111 240 111ZM240 258Q260 258 273 262.5Q286 267 286 277Q286 288 272.5 292Q259 296 240 296Q220 296 207 292Q194 288 194 277Q194 267 206.5 262.5Q219 258 240 258Z" glyph-name="uni2088" horiz-adv-x="479" unicode="&#8328;" /><glyph d="M235 231Q256 231 276 240.5Q296 250 304 268Q300 283 280 294Q260 305 240 305Q220 305 202 297Q184 289 184 269Q184 249 200 240Q216 231 235 231ZM164 124Q169 113 181 108Q193 103 217 103Q231 103 246.5 106Q262 109 275.5 117Q289 125 298.5 139Q308 153 310 176Q291 156 256 145.5Q221 135 179 135Q150 135 124.5 141Q99 147 79.5 161.5Q60 176 49 201.5Q38 227 38 266Q38 306 53.5 336Q69 366 96 385Q123 404 159.5 413.5Q196 423 237 423Q340 423 394.5 369Q449 315 449 204Q449 98 393 41Q337 -16 228 -16Q199 -16 170.5 -12.5Q142 -9 117.5 2.5Q93 14 74 34.5Q55 55 44 90Z" glyph-name="uni2089" horiz-adv-x="484" unicode="&#8329;" /><glyph d="M114 133H32V313H114V389H307V313H389V133H307V56H114Z" glyph-name="uni208A" horiz-adv-x="422" unicode="&#8330;" /><glyph d="M33 133V313H389V133Z" glyph-name="uni208B" horiz-adv-x="422" unicode="&#8331;" /><glyph d="M33 239V398H389V239ZM33 47V207H389V47Z" glyph-name="uni208C" horiz-adv-x="422" unicode="&#8332;" /><glyph d="M237 210Q237 144 252 76Q267 8 290 -43H115Q91 6 72.5 68.5Q54 131 54 210Q54 289 72.5 351.5Q91 414 115 463H290Q267 412 252 344Q237 276 237 210Z" glyph-name="uni208D" horiz-adv-x="335" unicode="&#8333;" /><glyph d="M97 210Q97 276 82 344Q67 412 44 463H218Q244 414 262 351.5Q280 289 280 210Q280 131 262 68.5Q244 6 218 -43H44Q67 8 82 76Q97 144 97 210Z" glyph-name="uni208E" horiz-adv-x="335" unicode="&#8334;" /><glyph d="M245 380Q245 367 245 355Q245 343 247 332L359 598Q298 578 271.5 523Q245 468 245 380ZM487 600Q479 602 471 603.5Q463 605 454 607L287 212Q292 204 298.5 198Q305 192 312 186ZM631 726Q676 697 704 657Q732 617 750 571L589 489Q581 505 573.5 519.5Q566 534 556 548L390 155Q409 152 431 152Q468 152 493.5 162Q519 172 537 188.5Q555 205 566.5 226.5Q578 248 589 271L750 189Q734 147 709 110Q684 73 646.5 45Q609 17 556.5 0.5Q504 -16 432 -16Q374 -16 322 -5L305 -46H214L242 19Q234 23 226.5 26.5Q219 30 212 35L178 -46H87L144 88Q95 140 71.5 213.5Q48 287 48 380Q48 471 71.5 544.5Q95 618 142.5 669.5Q190 721 262 748.5Q334 776 432 776H434L449 810H540L522 768Q531 766 539 764Q547 762 555 760L576 810H667Z" glyph-name="uni20A1" horiz-adv-x="785" unicode="&#8353;" /><glyph d="M639 483Q681 483 706.5 479Q732 475 756 465L740 278Q729 286 705 292Q681 298 652 298Q638 298 619.5 297Q601 296 582 291.5Q563 287 545 279Q527 271 514 258V180Q536 196 546 218.5Q556 241 558 267L773 242Q771 121 679.5 52.5Q588 -16 414 -16Q315 -16 243.5 14Q172 44 126 97.5Q80 151 58 223.5Q36 296 36 382Q36 467 58 540Q80 613 126 666.5Q172 720 243.5 750Q315 780 414 780Q588 780 679.5 711.5Q771 643 773 522L558 497Q556 543 522 574Q488 605 414 605Q365 605 333 587Q301 569 282.5 538Q264 507 257 467Q250 427 250 382Q250 326 261 275Q272 224 306 192V308L296 465H485L498 423Q526 451 561.5 467Q597 483 639 483Z" glyph-name="uni20A2" horiz-adv-x="808" unicode="&#8354;" /><glyph d="M590 321V396H537ZM292 368H345L292 443ZM429 249H292V0H98V249H21V368H98V396H21V515H98V764H278L453 515H590V764H784V515H861V396H784V368H861V249H784V0H604Z" glyph-name="uni20A6" horiz-adv-x="882" unicode="&#8358;" /><glyph d="M448 414Q463 414 479.5 418Q496 422 509.5 432Q523 442 531.5 459.5Q540 477 540 505Q540 533 531.5 551Q523 569 509.5 579Q496 589 479.5 592.5Q463 596 448 596H244V414ZM973 126Q1015 126 1040 129.5Q1065 133 1078.5 139Q1092 145 1096 153.5Q1100 162 1100 171Q1098 189 1072.5 190.5Q1047 192 1000 194Q952 197 908 202.5Q864 208 830.5 224.5Q797 241 777.5 273Q758 305 758 361Q758 415 783 450.5Q808 486 846 507Q884 528 930.5 537Q977 546 1021 546Q1150 546 1214.5 506Q1279 466 1288 372L1098 348Q1097 369 1081 383Q1065 397 1022 396Q995 395 978 388Q961 381 961 364Q962 348 985.5 345.5Q1009 343 1054 341Q1100 338 1143.5 333Q1187 328 1221 312Q1255 296 1276 263.5Q1297 231 1297 171Q1297 120 1273.5 84.5Q1250 49 1207.5 26.5Q1165 4 1105 -6Q1045 -16 972 -16Q868 -16 788 -4.5Q708 7 647 27Q586 47 543 73Q500 99 469 128Q438 157 417.5 187.5Q397 218 382 245H244V0H50V764H437Q491 764 545 752.5Q599 741 642 711.5Q685 682 712 632Q739 582 739 505Q739 407 698 349.5Q657 292 593 267Q608 249 635 224.5Q662 200 706.5 178Q751 156 816 141Q881 126 973 126Z" glyph-name="uni20A8" horiz-adv-x="1319" unicode="&#8360;" /><glyph d="M275 340 293 396H267ZM728 340 735 396H709ZM470 368H532L501 457ZM251 523 252 515H334L424 764H577L669 515H751L752 523L781 764H984L936 515H983V396H913L907 368H983V249H884L833 -16H672L575 249H427L331 -16H169L118 249H21V368H95L90 396H21V515H67L20 764H220Z" glyph-name="uni20A9" horiz-adv-x="1004" unicode="&#8361;" /><glyph d="M278 0V570H401V165H531Q587 165 587 215V764H782V200Q782 97 723 48.5Q664 0 554 0ZM328 764Q437 764 495.5 715.5Q554 667 554 564V194H431V549Q431 599 376 599H245V0H50V764Z" glyph-name="uni20AA" horiz-adv-x="830" unicode="&#8362;" /><glyph d="M398 268V0H204V177L92 127V220L204 270V304L92 254V347L204 397V598H13V764H586V598H398V487L521 543V451L398 395V360L521 416V324Z" glyph-name="uni20AE" horiz-adv-x="600" unicode="&#8366;" /><glyph d="M305 567H499Q491 580 477.5 589Q464 598 435 598H305ZM435 277Q464 277 477.5 286Q491 295 499 307H305V277ZM536 437Q536 451 535 454Q534 457 534 452H305V422H534Q534 418 535 420.5Q536 423 536 437ZM695 307Q678 253 648 215.5Q618 178 578 154.5Q538 131 490 121Q442 111 390 111L305 112V0H110V307H32V422H110V452H32V567H110V764H390Q442 764 490 753.5Q538 743 578 720Q618 697 648 659Q678 621 695 567H765V452H711Q712 448 711.5 444.5Q711 441 711 437Q711 434 711.5 430Q712 426 711 422H765V307Z" glyph-name="uni20B1" horiz-adv-x="799" unicode="&#8369;" /><glyph d="M86 794 621 675 503 566 295 621 447 484 701 246 601 153 346 390 200 532 259 338 142 228 14 727Z" glyph-name="uni2196" horiz-adv-x="911" unicode="&#8598;" /><glyph d="M701 727 574 228 457 338 516 532 369 390 114 153 14 246 268 484 420 621 212 566 95 675 629 794Z" glyph-name="uni2197" horiz-adv-x="911" unicode="&#8599;" /><glyph d="M210 53 338 552 455 442 396 248 542 390 797 627 897 534 643 296 491 159 699 214 817 105 282 -14Z" glyph-name="uni2198" horiz-adv-x="911" unicode="&#8600;" /><glyph d="M825 -14 291 105 409 214 616 159 464 296 210 534 310 627 565 390 712 248 653 442 770 552 897 53Z" glyph-name="uni2199" horiz-adv-x="911" unicode="&#8601;" /><glyph d="M614 733 803 6 21 180Z" glyph-name="uni25E2" horiz-adv-x="819" unicode="&#9698;" /><glyph d="M798 180 16 6 205 733Z" glyph-name="uni25E3" horiz-adv-x="819" unicode="&#9699;" /><glyph d="M205 47 16 774 798 600Z" glyph-name="uni25E4" horiz-adv-x="819" unicode="&#9700;" /><glyph d="M21 600 803 774 614 47Z" glyph-name="uni25E5" horiz-adv-x="819" unicode="&#9701;" /><glyph d="M189 -10 295 297 15 486H361L467 792L574 486H920L641 297L747 -10L467 180Z" glyph-name="uni2605" horiz-adv-x="937" unicode="&#9733;" /><glyph d="M759 360 927 287 742 302 884 190 709 249 814 108 663 206 727 44 607 174 623 4 543 159 511 -10 479 159 399 4 415 174 296 44 358 206 207 108 312 249 137 190 280 302 97 287 263 360 82 390 263 420 97 493 280 478 137 590 312 531 207 672 358 574 296 736 415 606 399 776 479 621 511 790 543 621 623 776 607 606 727 736 663 574 814 672 709 531 884 590 742 478 927 493 759 420 942 390Z" glyph-name="uni263C" horiz-adv-x="1023" unicode="&#9788;" /><glyph d="M667 728Q596 728 532.5 700.5Q469 673 421 626.5Q373 580 345 519Q317 458 317 390Q317 322 345 261Q373 200 421 153.5Q469 107 532.5 79.5Q596 52 667 52Q720 52 768 67Q714 30 648.5 10Q583 -10 511 -10Q422 -10 343.5 21.5Q265 53 207 107Q149 161 115.5 234Q82 307 82 390Q82 473 115.5 546Q149 619 207 673Q265 727 343.5 758.5Q422 790 511 790Q583 790 648.5 769.5Q714 749 768 713Q744 720 718.5 724Q693 728 667 728Z" glyph-name="uni263E" horiz-adv-x="1023" unicode="&#9790;" /></font>
</defs>
</svg>
